<?xml version="1.0" encoding="iso-8859-1"?>
<!-- Generator: Adobe Illustrator 19.0.0, SVG Export Plug-In . SVG Version: 6.00 Build 0)  -->
<svg version="1.1" id="Layer_1" xmlns="http://www.w3.org/2000/svg" xmlns:xlink="http://www.w3.org/1999/xlink" x="0px" y="0px"
	 viewBox="0 0 508.1 508.1" style="enable-background:new 0 0 508.1 508.1;" xml:space="preserve">
<path style="fill:#40596B;" d="M486.8,0H21.2C9.5,0,0,9.5,0,21.2v465.7c0,11.7,9.5,21.2,21.2,21.2h465.7c11.7,0,21.2-9.5,21.2-21.2
	V21.2C508,9.5,498.5,0,486.8,0z"/>
<rect x="45.2" y="45.2" style="fill:#84DBFF;" width="417.7" height="122.7"/>
<g>
	<rect x="45.2" y="214.6" style="fill:#FFFFFF;" width="185.5" height="100"/>
	<rect x="277.3" y="214.6" style="fill:#FFFFFF;" width="185.5" height="100"/>
	<rect x="45.2" y="361.3" style="fill:#FFFFFF;" width="185.5" height="101.6"/>
	<rect x="277.3" y="361.3" style="fill:#FFFFFF;" width="185.5" height="101.6"/>
</g>
<polygon style="fill:#FF7058;" points="170.6,257.6 144.9,257.6 144.9,231.9 130.9,231.9 130.9,257.6 105.2,257.6 105.2,271.6 
	130.9,271.6 130.9,297.3 144.9,297.3 144.9,271.6 170.6,271.6 "/>
<rect x="337.4" y="257.6" style="fill:#FFD15C;" width="65.4" height="14"/>
<g>
	<rect x="337.4" y="388.2" style="fill:#84DBFF;" width="65.4" height="14"/>
	<rect x="337.4" y="421.9" style="fill:#84DBFF;" width="65.4" height="14"/>
</g>
<polygon style="fill:#4CDBC4;" points="166,430.2 147.8,412.1 166,393.9 156.1,384 137.9,402.2 119.7,384 109.9,393.9 128,412.1 
	109.9,430.2 119.7,440.1 137.9,421.9 156.1,440.1 "/>
<g>
</g>
<g>
</g>
<g>
</g>
<g>
</g>
<g>
</g>
<g>
</g>
<g>
</g>
<g>
</g>
<g>
</g>
<g>
</g>
<g>
</g>
<g>
</g>
<g>
</g>
<g>
</g>
<g>
</g>
</svg>
