<?xml version="1.0" encoding="iso-8859-1"?>
<!-- Generator: Adobe Illustrator 19.0.0, SVG Export Plug-In . SVG Version: 6.00 Build 0)  -->
<svg version="1.1" id="Layer_1" xmlns="http://www.w3.org/2000/svg" xmlns:xlink="http://www.w3.org/1999/xlink" x="0px" y="0px"
	 viewBox="0 0 508.1 508.1" style="enable-background:new 0 0 508.1 508.1;" xml:space="preserve">
<path style="fill:#F2F2F2;" d="M0,168v318.9c0,11.7,9.5,21.2,21.2,21.2h465.7c11.7,0,21.2-9.5,21.2-21.2V168H0z"/>
<path style="fill:#CDD6E0;" d="M486.8,0H21.2C9.5,0,0,9.5,0,21.2V168h508V21.2C508,9.5,498.5,0,486.8,0z"/>
<rect x="45.2" y="45.2" style="fill:#FFFFFF;" width="417.7" height="77.7"/>
<g>
	<rect x="45.2" y="213.1" style="fill:#CDD6E0;" width="104.4" height="62.4"/>
	<rect x="201.8" y="213.1" style="fill:#CDD6E0;" width="104.4" height="62.4"/>
	<rect x="358.4" y="213.1" style="fill:#CDD6E0;" width="104.4" height="62.4"/>
	<rect x="45.2" y="400.4" style="fill:#CDD6E0;" width="104.4" height="62.4"/>
	<rect x="45.2" y="306.8" style="fill:#CDD6E0;" width="104.4" height="62.4"/>
	<rect x="201.8" y="400.4" style="fill:#CDD6E0;" width="104.4" height="62.4"/>
	<rect x="201.8" y="306.8" style="fill:#CDD6E0;" width="104.4" height="62.4"/>
</g>
<rect x="358.4" y="400.4" style="fill:#FF7058;" width="104.4" height="62.4"/>
<rect x="358.4" y="306.8" style="fill:#CDD6E0;" width="104.4" height="62.4"/>
<g>
</g>
<g>
</g>
<g>
</g>
<g>
</g>
<g>
</g>
<g>
</g>
<g>
</g>
<g>
</g>
<g>
</g>
<g>
</g>
<g>
</g>
<g>
</g>
<g>
</g>
<g>
</g>
<g>
</g>
</svg>
