<?xml version="1.0" encoding="iso-8859-1"?>
<!-- Generator: Adobe Illustrator 19.0.0, SVG Export Plug-In . SVG Version: 6.00 Build 0)  -->
<svg version="1.1" id="Layer_1" xmlns="http://www.w3.org/2000/svg" xmlns:xlink="http://www.w3.org/1999/xlink" x="0px" y="0px"
	 viewBox="0 0 508.1 508.1" style="enable-background:new 0 0 508.1 508.1;" xml:space="preserve">
<path style="fill:#40596B;" d="M486.85,0H65.75c-11.7,0-21.2,9.5-21.2,21.2v179h397.7c11.7,0,21.2,9.5,21.2,21.2v86.4h23.4
	c11.6,0,21.2-9.4,21.2-21.2V21.2C508.05,9.5,498.55,0,486.85,0z"/>
<rect x="44.55" y="85.4" style="fill:#4CDBC4;" width="463.5" height="54.3"/>
<path style="fill:#F2F2F2;" d="M442.35,200.2H21.25c-11.7,0-21.2,9.5-21.2,21.2v265.5c0,11.7,9.5,21.2,21.2,21.2h421.1
	c11.7,0,21.2-9.5,21.2-21.2V221.4C463.55,209.7,454.05,200.2,442.35,200.2z"/>
<path style="fill:#334A5E;" d="M442.35,179.1H44.65v21.1h397.7c11.7,0,21.2,9.5,21.2,21.2v86.4h21.2v-86.4
	C484.65,198,465.65,179.1,442.35,179.1z"/>
<circle style="fill:#FF7058;" cx="341.25" cy="270.6" r="36.6"/>
<circle style="fill:#FFD15C;" cx="393.05" cy="270.6" r="36.6"/>
<rect x="33.95" y="260" style="fill:#84DBFF;" width="226" height="21.3"/>
<rect x="33.95" y="343.4" style="fill:#CDD6E0;" width="140.7" height="21.3"/>
<g>
	<rect x="33.95" y="430.2" style="fill:#ACB3BA;" width="81.4" height="21.3"/>
	<rect x="138.65" y="430.2" style="fill:#ACB3BA;" width="81.4" height="21.3"/>
	<rect x="243.45" y="430.2" style="fill:#ACB3BA;" width="81.4" height="21.3"/>
	<rect x="348.15" y="430.2" style="fill:#ACB3BA;" width="81.4" height="21.3"/>
</g>
<g>
</g>
<g>
</g>
<g>
</g>
<g>
</g>
<g>
</g>
<g>
</g>
<g>
</g>
<g>
</g>
<g>
</g>
<g>
</g>
<g>
</g>
<g>
</g>
<g>
</g>
<g>
</g>
<g>
</g>
</svg>
