<?xml version="1.0" encoding="iso-8859-1"?>
<!-- Generator: Adobe Illustrator 19.0.0, SVG Export Plug-In . SVG Version: 6.00 Build 0)  -->
<svg version="1.1" id="Layer_1" xmlns="http://www.w3.org/2000/svg" xmlns:xlink="http://www.w3.org/1999/xlink" x="0px" y="0px"
	 viewBox="0 0 508 508" style="enable-background:new 0 0 508 508;" xml:space="preserve">
<path style="fill:#84DBFF;" d="M442.8,0H21.7C10,0,0.5,9.5,0.5,21.2v265.4c0,11.7,9.5,21.2,21.2,21.2h183.2v-19.2
	c0-11.7,9.5-21.2,21.2-21.2H464V21.2C464,9.5,454.5,0,442.8,0z"/>
<circle style="fill:#FFFFFF;" cx="341.7" cy="70.4" r="36.6"/>
<circle style="fill:#54C0EB;" cx="393.5" cy="70.4" r="36.6"/>
<g>
	<rect x="34.4" y="59.8" style="fill:#F2F2F2;" width="226" height="21.3"/>
	<rect x="34.4" y="143.2" style="fill:#F2F2F2;" width="140.7" height="21.3"/>
</g>
<g>
	<rect x="34.4" y="230" style="fill:#40596B;" width="81.4" height="21.3"/>
	<rect x="139.1" y="230" style="fill:#40596B;" width="81.4" height="21.3"/>
	<rect x="243.9" y="230" style="fill:#40596B;" width="81.4" height="21.3"/>
	<rect x="348.7" y="230" style="fill:#40596B;" width="81.4" height="21.3"/>
</g>
<path style="fill:#FFD15C;" d="M486.3,267.4H226.1c-11.7,0-21.2,9.5-21.2,21.2v198.2c0,11.7,9.5,21.2,21.2,21.2h260.2
	c11.7,0,21.2-9.5,21.2-21.2V288.6C507.5,276.9,498,267.4,486.3,267.4z"/>
<path style="fill:#FF7058;" d="M356.2,115.2c-63,0-114.2,51.2-114.2,114.2v38h44.5v-38c0-38.4,31.3-69.7,69.7-69.7
	c38.4,0,69.7,31.3,69.7,69.7v38h44.5v-38C470.4,166.4,419.2,115.2,356.2,115.2z"/>
<path style="fill:#40596B;" d="M389.4,367c0-18.3-14.9-33.2-33.2-33.2c-18.3,0-33.2,14.9-33.2,33.2c0,12.4,6.8,23.2,16.9,28.9v29.4
	c0,9,7.3,16.3,16.3,16.3s16.3-7.3,16.3-16.3v-29.4C382.6,390.2,389.4,379.4,389.4,367z"/>
<g>
</g>
<g>
</g>
<g>
</g>
<g>
</g>
<g>
</g>
<g>
</g>
<g>
</g>
<g>
</g>
<g>
</g>
<g>
</g>
<g>
</g>
<g>
</g>
<g>
</g>
<g>
</g>
<g>
</g>
</svg>
