<?xml version="1.0" encoding="iso-8859-1"?>
<!-- Generator: Adobe Illustrator 19.0.0, SVG Export Plug-In . SVG Version: 6.00 Build 0)  -->
<svg version="1.1" id="Layer_1" xmlns="http://www.w3.org/2000/svg" xmlns:xlink="http://www.w3.org/1999/xlink" x="0px" y="0px"
	 viewBox="0 0 508.025 508.025" style="enable-background:new 0 0 508.025 508.025;" xml:space="preserve">
<path style="fill:#40596B;" d="M391.263,145.1c0-0.1,0-0.2,0-0.3c0-41.1-57.4-73.4-131.6-75V60c14-2.7,24.5-15,24.5-29.8
	c0.1-16.6-13.5-30.2-30.1-30.2s-30.2,13.6-30.2,30.3c0,3.1,2.5,5.7,5.6,5.7s5.6-2.5,5.6-5.7c0-10.5,8.5-19,18.9-19
	c10.4,0,18.9,8.5,18.9,19s-8.5,19-18.9,19c-3.1,0-5.6,2.5-5.6,5.7v14.9c-74.2,1.6-131.6,33.9-131.6,75c0,0.1,0,0.2,0,0.3
	c0,0.2,0,0.5,0,0.7c0,0.1,0,0.2,0,0.3c0,0.2,0,0.5,0,0.7c0,0.1,0,0.2,0,0.3c0,0.2,0,0.5,0,0.7c0,6.2,5,11.3,11.3,11.3
	c6.2,0,11.3-5.1,11.3-11.3c0-24.8,47.1-52.4,114.7-52.4s114.7,27.6,114.7,52.4c0,6.2,5,11.3,11.3,11.3s11.3-5.1,11.3-11.3
	c0-0.2,0-0.5,0-0.7c0-0.1,0-0.2,0-0.3c0-0.2,0-0.5,0-0.7c0-0.1,0-0.2,0-0.3C391.263,145.6,391.263,145.4,391.263,145.1z"/>
<path style="fill:#84DBFF;" d="M409.763,405.5c-5.3-86.3-76.5-153.5-162.7-153.5l0,0c-86.1,0-157.3,67.2-162.6,153.5
	c0,0-2.9,54.1,9.4,64.8c57.9,50.3,248.5,50.3,306.5,0C412.663,459.6,409.763,405.5,409.763,405.5z"/>
<path style="fill:#F2F2F2;" d="M370.263,76.8h-55c0,34-27.4,61.5-61.3,61.5c-33.8,0-61.3-27.5-61.3-61.5h-55l0,0l-105.4,64.7
	l43.3,71.2l73.1-44.9l27.3,111.6h156.1l27.3-111.6l73.1,44.9l43.3-71.2L370.263,76.8z"/>
<path style="fill:#FF7058;" d="M339.763,288.4h-171.4c-0.6,0-1.1-0.5-1.1-1.1v-20.5c0-0.6,0.5-1.1,1.1-1.1h171.4
	c0.6,0,1.1,0.5,1.1,1.1v20.5C340.862,287.9,340.362,288.4,339.763,288.4z"/>
<g>
</g>
<g>
</g>
<g>
</g>
<g>
</g>
<g>
</g>
<g>
</g>
<g>
</g>
<g>
</g>
<g>
</g>
<g>
</g>
<g>
</g>
<g>
</g>
<g>
</g>
<g>
</g>
<g>
</g>
</svg>
