<?xml version="1.0" encoding="iso-8859-1"?>
<!-- Generator: Adobe Illustrator 19.0.0, SVG Export Plug-In . SVG Version: 6.00 Build 0)  -->
<svg version="1.1" id="Layer_1" xmlns="http://www.w3.org/2000/svg" xmlns:xlink="http://www.w3.org/1999/xlink" x="0px" y="0px"
	 viewBox="0 0 508.1 508.1" style="enable-background:new 0 0 508.1 508.1;" xml:space="preserve">
<path style="fill:#84DBFF;" d="M486.8,178H21.2C9.5,178,0,187.5,0,199.1v287.8C0,498.6,9.5,508,21.2,508h465.7
	c11.7,0,21.2-9.5,21.2-21.1V199.1C508,187.5,498.5,178,486.8,178z"/>
<rect x="38.7" y="222.5" style="fill:#FFFFFF;" width="417.7" height="239.9"/>
<g>
	<path style="fill:#F2F2F2;" d="M223.1,96.9l-117.5,80.5H30.4L196.6,59C198.9,75.4,209,89.4,223.1,96.9z"/>
	<path style="fill:#F2F2F2;" d="M249.7,78.7l-2.2,1.5l-2.2-1.5c0.7-0.3,1.4-0.7,2.2-1.1C248.4,78,249,78.4,249.7,78.7z"/>
	<path style="fill:#F2F2F2;" d="M247.5,77.6c0.8,0.4,1.5,0.8,2.2,1.1l-2.2,1.5l-2.2-1.5C246,78.4,246.7,78,247.5,77.6z"/>
	<path style="fill:#F2F2F2;" d="M464.7,177.4h-75.1L272,96.9c14.1-7.6,24.3-21.5,26.6-37.9L464.7,177.4z"/>
</g>
<g>
	<path style="fill:#FF7058;" d="M69.7,343c0-8.6,1.3-15.8,3.9-21.7c1.9-4.3,4.5-8.2,7.9-11.6c3.3-3.4,7-6,10.9-7.6
		c5.3-2.2,11.3-3.3,18.2-3.3c12.5,0,22.4,3.9,29.9,11.6s11.2,18.5,11.2,32.2c0,13.6-3.7,24.3-11.1,32c-7.4,7.7-17.3,11.6-29.8,11.6
		c-12.6,0-22.6-3.8-30-11.5S69.7,356.5,69.7,343z M87.3,342.4c0,9.6,2.2,16.8,6.6,21.8c4.4,4.9,10,7.4,16.8,7.4s12.4-2.4,16.8-7.3
		c4.4-4.9,6.5-12.2,6.5-22c0-9.7-2.1-16.9-6.4-21.7c-4.2-4.8-9.9-7.1-16.9-7.1s-12.7,2.4-17,7.2C89.5,325.4,87.3,332.7,87.3,342.4z"
		/>
	<path style="fill:#FF7058;" d="M176.9,384.7v-84.5h27.4c10.4,0,17.2,0.4,20.3,1.3c4.8,1.3,8.9,4,12.2,8.3s4.9,9.7,4.9,16.5
		c0,5.2-0.9,9.5-2.8,13.1c-1.9,3.5-4.3,6.3-7.2,8.3s-5.9,3.4-8.9,4c-4.1,0.8-10,1.2-17.7,1.2H194v31.9h-17.1V384.7z M194,314.5v24
		h9.3c6.7,0,11.2-0.4,13.5-1.3c2.3-0.9,4-2.3,5.3-4.1c1.3-1.9,1.9-4.1,1.9-6.6c0-3.1-0.9-5.6-2.7-7.6s-4.1-3.2-6.9-3.7
		c-2-0.4-6.1-0.6-12.3-0.6H194V314.5z"/>
	<path style="fill:#FF7058;" d="M267.5,384.7v-84.5h62.7v14.3h-45.6v18.7H327v14.2h-42.5v23h47.2v14.2h-64.2V384.7z"/>
	<path style="fill:#FF7058;" d="M358.3,384.7v-84.5h16.6l34.6,56.4v-56.4h15.9v84.5h-17.1l-34.1-55.1v55.1H358.3z"/>
</g>
<g>
	<ellipse style="fill:#4CDBC4;" cx="247.5" cy="51.6" rx="51.6" ry="51.5"/>
	<path style="fill:#4CDBC4;" d="M249.7,78.7l-2.2,1.5l-2.2-1.5c0.7-0.3,1.4-0.7,2.2-1.1C248.4,78,249,78.4,249.7,78.7z"/>
</g>
<g>
</g>
<g>
</g>
<g>
</g>
<g>
</g>
<g>
</g>
<g>
</g>
<g>
</g>
<g>
</g>
<g>
</g>
<g>
</g>
<g>
</g>
<g>
</g>
<g>
</g>
<g>
</g>
<g>
</g>
</svg>
