<?xml version="1.0" encoding="iso-8859-1"?>
<!-- Generator: Adobe Illustrator 19.0.0, SVG Export Plug-In . SVG Version: 6.00 Build 0)  -->
<svg version="1.1" id="Layer_1" xmlns="http://www.w3.org/2000/svg" xmlns:xlink="http://www.w3.org/1999/xlink" x="0px" y="0px"
	 viewBox="0 0 508 508" style="enable-background:new 0 0 508 508;" xml:space="preserve">
<path style="fill:#40596B;" d="M160.2,122.2C144.1,106,121.6,96,96.9,96v82.8c21.9-16.5,48.3-29.5,77.6-38
	C170.5,134,165.8,127.7,160.2,122.2z"/>
<g>
	<path style="fill:#F1543F;" d="M41.9,245.1H21.2C9.5,245.1,0,254.6,0,266.3v70.5C0,348.4,9.4,358,21.2,358H42
		c-8-17.7-12.4-36.6-12.4-56.4C29.6,281.7,34,262.8,41.9,245.1z"/>
	<path style="fill:#F1543F;" d="M486.8,274.3h-45.5v54.3h45.5c11.7,0,21.2-9.5,21.2-21.2v-12C508,283.8,498.5,274.3,486.8,274.3z"/>
	<path style="fill:#F1543F;" d="M124.3,465.7c0,23.4,18.9,42.3,42.3,42.3h1.4c22,0,40.1-16.7,42.1-38.2c-31.5-4.7-60.6-14.4-85.8-28
		V465.7z"/>
	<path style="fill:#F1543F;" d="M294.2,469.8c2,21.5,20.1,38.2,42.1,38.2h1.4c23.4,0,42.3-18.9,42.3-42.3v-23.9
		C354.9,455.4,325.8,465.1,294.2,469.8z"/>
</g>
<ellipse style="fill:#FF7058;" cx="252.2" cy="301.5" rx="222.5" ry="171.4"/>
<circle style="fill:#40596B;" cx="97.9" cy="253.7" r="17.1"/>
<path id="SVGCleanerId_0" style="fill:#40596B;" d="M170.9,203.8l-8-8c23.8-23.8,55.5-37,89.2-37s65.4,13.1,89.2,37l-8,8
	c-21.7-21.7-50.6-33.7-81.3-33.7C221.5,170.1,192.6,182.1,170.9,203.8z"/>
<g>
	<path id="SVGCleanerId_0_1_" style="fill:#40596B;" d="M170.9,203.8l-8-8c23.8-23.8,55.5-37,89.2-37s65.4,13.1,89.2,37l-8,8
		c-21.7-21.7-50.6-33.7-81.3-33.7C221.5,170.1,192.6,182.1,170.9,203.8z"/>
</g>
<circle style="fill:#FFD15C;" cx="252.2" cy="77.2" r="77.2"/>
<circle style="fill:#F8B64C;" cx="252.2" cy="77.2" r="58.8"/>
<path style="fill:#FFD15C;" d="M242.5,101c-1.7-2.2-2.8-4.9-3.4-7.9l-15,1.6c1.1,7.5,3.8,13.4,7.9,17.5c4.1,4.1,9.5,6.6,16.1,7.4
	v7.5h8.3v-7.8c7.5-1.1,13.3-4,17.5-8.7s6.3-10.6,6.3-17.5c0-6.2-1.7-11.3-5-15.2c-3.3-4-9.6-7.2-18.8-9.7V45.7
	c3.7,1.6,6,4.7,6.9,9.2l14.5-1.9c-1-5.7-3.3-10.3-6.9-13.7s-8.4-5.5-14.5-6.2v-5.7h-8.3V33c-6.6,0.7-11.9,3.1-15.8,7.4
	c-4,4.3-5.9,9.5-5.9,15.8c0,6.2,1.8,11.5,5.3,15.8s9,7.6,16.5,9.7v24.1C246.1,104.8,244.2,103.2,242.5,101z M256.5,84.2
	c3.4,1,5.9,2.4,7.4,4.3s2.3,4.1,2.3,6.6c0,2.9-0.9,5.4-2.7,7.5c-1.8,2.1-4.1,3.5-7,4L256.5,84.2L256.5,84.2z M242.6,61.2
	c-1.2-1.7-1.8-3.6-1.8-5.7c0-2.2,0.7-4.2,2-6.1c1.3-1.8,3.1-3.1,5.4-3.9v19.9C245.7,64.3,243.8,62.9,242.6,61.2z"/>
<g>
</g>
<g>
</g>
<g>
</g>
<g>
</g>
<g>
</g>
<g>
</g>
<g>
</g>
<g>
</g>
<g>
</g>
<g>
</g>
<g>
</g>
<g>
</g>
<g>
</g>
<g>
</g>
<g>
</g>
</svg>
