<?xml version="1.0" encoding="iso-8859-1"?>
<!-- Generator: Adobe Illustrator 19.0.0, SVG Export Plug-In . SVG Version: 6.00 Build 0)  -->
<svg version="1.1" id="Layer_1" xmlns="http://www.w3.org/2000/svg" xmlns:xlink="http://www.w3.org/1999/xlink" x="0px" y="0px"
	 viewBox="0 0 508 508" style="enable-background:new 0 0 508 508;" xml:space="preserve">
<g>
	<path style="fill:#F2F2F2;" d="M74.4,76.8V154c19.6-19.6,43.7-34.6,70.6-43.3C128.5,90,102.9,76.8,74.4,76.8z"/>
	<path style="fill:#F2F2F2;" d="M113.1,436.2V461c0,25.9,21,47,47.1,47c26,0,47.1-21.1,47.1-47v-1.9H201
		C169,459.1,139.1,450.8,113.1,436.2z"/>
	<path style="fill:#F2F2F2;" d="M328.9,459.1h-6.4v1.9c0,25.9,21.1,47,47.1,47s47.1-21.1,47.1-47v-24.9
		C390.7,450.7,360.8,459.1,328.9,459.1z"/>
</g>
<path style="fill:#CDD6E0;" d="M368.3,106.1c-0.6,27-12,51.5-29.7,69.5H191.2c-17.8-18-29.1-42.5-29.7-69.5
	c-33.5,7.5-63.6,24.4-87.2,47.9c-18.4,18.4-32.9,41-42,66C14.3,220.9,0,235.7,0,253.8V307c0,18.2,14.3,33,32.3,33.8
	c24.9,69,91,118.3,168.7,118.3h127.8c49.5,0,94.3-20,126.7-52.3c32.5-32.4,52.5-77,52.5-126.5C508,195.2,448.3,124,368.3,106.1z"/>
<path style="fill:#40596B;" d="M377.9,175.7h-226c-0.4,0-0.8-0.4-0.8-0.8v-15.1c0-0.4,0.4-0.8,0.8-0.8h226c0.4,0,0.8,0.4,0.8,0.8
	v15.1C378.7,175.3,378.3,175.7,377.9,175.7z"/>
<ellipse style="fill:#FFFFFF;" cx="79.1" cy="222.1" rx="15.6" ry="15.6"/>
<path style="fill:#FFD15C;" d="M182.2,103.3c0-45.5,37.1-82.5,82.7-82.5s82.7,37,82.7,82.5c0,31.2-17.4,58.4-43.1,72.4h34
	c18.4-18.7,29.8-44.2,29.8-72.4C368.4,46.3,322,0,264.9,0S161.4,46.3,161.4,103.2c0,28.2,11.4,53.8,29.8,72.4h34
	C199.6,161.7,182.2,134.5,182.2,103.3z"/>
<g>
	<path style="fill:#F8B64C;" d="M269.8,111.2v25.1c3.2-0.6,5.8-2.1,7.9-4.5c2-2.4,3-5.2,3-8.5c0-2.9-0.9-5.4-2.6-7.4
		C276.4,113.9,273.7,112.3,269.8,111.2z"/>
	<path style="fill:#F8B64C;" d="M254.3,72c-1.5,2.1-2.3,4.3-2.3,6.8c0,2.3,0.7,4.4,2.1,6.4c1.4,1.9,3.5,3.5,6.3,4.7V67.6
		C257.8,68.5,255.8,70,254.3,72z"/>
</g>
<path style="fill:#FFD15C;" d="M264.9,0c-57.1,0-103.5,46.3-103.5,103.2c0,28.2,11.4,53.8,29.8,72.4h34
	c-25.7-14-43.1-41.2-43.1-72.4c0-45.5,37.1-82.5,82.7-82.5s82.7,37,82.7,82.5c0,31.2-17.4,58.4-43.1,72.4h34
	c18.4-18.7,29.8-44.2,29.8-72.4C368.4,46.3,322,0,264.9,0z"/>
<path style="fill:#F8B64C;" d="M264.9,20.7c-45.6,0-82.7,37-82.7,82.5c0,31.2,17.4,58.4,43.1,72.4h79.3c25.7-14,43.1-41.2,43.1-72.4
	C347.6,57.8,310.5,20.7,264.9,20.7z M289.5,140.8c-2.1,2.4-4.6,4.4-7.4,5.9c-3.5,2-7.6,3.3-12.2,3.9v8.8h-9.4v-8.5
	c-4.9-0.6-9.3-2-12.9-4.2c-1.9-1.1-3.7-2.5-5.3-4.1c-4.6-4.6-7.6-11.2-8.9-19.7l16.9-1.8c0.7,3.4,2,6.4,3.9,8.9
	c1.9,2.5,4,4.3,6.4,5.4v-27.1c-8.5-2.4-14.7-6.1-18.6-11c-3.9-4.9-6-10.8-6-17.8c0-7.1,2.2-13,6.7-17.8s10.4-7.5,17.9-8.3V47h9.4
	v6.4c6.9,0.8,12.3,3.1,16.4,7c4.1,3.8,6.6,9,7.8,15.4L277.8,78c-1-5.1-3.5-8.6-7.7-10.3v25.2c10.4,2.8,17.4,6.4,21.2,10.8
	c3.7,4.5,5.6,10.2,5.6,17.2C296.6,128.9,294.2,135.4,289.5,140.8z"/>
<path style="fill:#FFD15C;" d="M269.8,93.1V67.8c4.2,1.8,6.8,5.3,7.7,10.3l16.4-2.2c-1.1-6.5-3.7-11.6-7.8-15.4
	c-4.1-3.9-9.5-6.2-16.4-7v-6.4h-9.4v6.4c-7.4,0.7-13.4,3.5-17.9,8.3s-6.7,10.7-6.7,17.8c0,7,2,12.9,6,17.8c3.9,4.9,10.1,8.6,18.6,11
	v27.1c-2.3-1.1-4.5-3-6.4-5.4c-1.9-2.5-3.2-5.5-3.9-8.9l-16.9,1.8c1.3,8.5,4.3,15.1,8.9,19.7c1.6,1.6,3.3,3,5.3,4.1
	c3.7,2.2,8,3.6,12.9,4.2v8.5h9.4v-8.8c4.6-0.7,8.8-1.9,12.2-3.9c2.9-1.5,5.3-3.5,7.4-5.9c4.7-5.3,7.1-11.9,7.1-19.6
	c0-7-1.9-12.7-5.6-17.2C287.2,99.5,280.1,95.9,269.8,93.1z M260.4,90c-2.8-1.2-4.9-2.8-6.3-4.7c-1.4-2-2.1-4.1-2.1-6.4
	c0-2.5,0.7-4.7,2.3-6.8c1.5-2.1,3.5-3.5,6.1-4.4V90z M277.7,131.8c-2.1,2.4-4.7,3.9-7.9,4.5v-25.1c3.9,1.1,6.6,2.7,8.4,4.8
	c1.7,2.1,2.6,4.6,2.6,7.4C280.7,126.6,279.7,129.4,277.7,131.8z"/>
<g>
</g>
<g>
</g>
<g>
</g>
<g>
</g>
<g>
</g>
<g>
</g>
<g>
</g>
<g>
</g>
<g>
</g>
<g>
</g>
<g>
</g>
<g>
</g>
<g>
</g>
<g>
</g>
<g>
</g>
</svg>
