<?xml version="1.0" encoding="iso-8859-1"?>
<!-- Generator: Adobe Illustrator 19.0.0, SVG Export Plug-In . SVG Version: 6.00 Build 0)  -->
<svg version="1.1" id="Layer_1" xmlns="http://www.w3.org/2000/svg" xmlns:xlink="http://www.w3.org/1999/xlink" x="0px" y="0px"
	 viewBox="0 0 485 485" style="enable-background:new 0 0 485 485;" xml:space="preserve">
<path style="fill:#CDD6E0;" d="M464.8,0H20.2C9,0,0,9,0,20.2v412.1c0,11.2,9,20.2,20.2,20.2h444.6c11.2,0,20.2-9,20.2-20.2V20.2
	C485,9,476,0,464.8,0z"/>
<rect x="53.9" y="53.9" style="fill:#F2F2F2;" width="377.3" height="344.7"/>
<g>
	<rect x="53.9" y="452.5" style="fill:#ACB3BA;" width="69.6" height="32.5"/>
	<rect x="361.5" y="452.5" style="fill:#ACB3BA;" width="69.6" height="32.5"/>
</g>
<g>
	<rect x="92.2" y="161.8" style="fill:#84DBFF;" width="28.4" height="28.4"/>
	<rect x="147.1" y="161.8" style="fill:#84DBFF;" width="28.4" height="28.4"/>
	<rect x="201.9" y="161.8" style="fill:#84DBFF;" width="28.4" height="28.4"/>
	<rect x="92.2" y="212" style="fill:#84DBFF;" width="28.4" height="28.4"/>
	<rect x="147.1" y="212" style="fill:#84DBFF;" width="28.4" height="28.4"/>
	<rect x="201.9" y="212" style="fill:#84DBFF;" width="28.4" height="28.4"/>
	<rect x="92.2" y="262.2" style="fill:#84DBFF;" width="28.4" height="28.4"/>
	<rect x="147.1" y="262.2" style="fill:#84DBFF;" width="28.4" height="28.4"/>
	<rect x="201.9" y="262.2" style="fill:#84DBFF;" width="28.4" height="28.4"/>
</g>
<circle style="fill:#40596B;" cx="342.7" cy="226.2" r="47.6"/>
<circle style="fill:#84DBFF;" cx="342.7" cy="226.2" r="24.7"/>
<g>
	<rect x="340.4" y="161.8" style="fill:#40596B;" width="4.5" height="9.8"/>
	<rect x="340.4" y="280.9" style="fill:#40596B;" width="4.5" height="9.8"/>
	
		<rect x="382.481" y="179.265" transform="matrix(0.7072 0.707 -0.707 0.7072 242.8521 -218.0852)" style="fill:#40596B;" width="4.5" height="9.8"/>
	
		<rect x="298.337" y="263.407" transform="matrix(0.7072 0.707 -0.707 0.7072 277.7048 -133.9587)" style="fill:#40596B;" width="4.5" height="9.8"/>
	<rect x="397.3" y="224" style="fill:#40596B;" width="9.8" height="4.5"/>
	<rect x="278.2" y="224" style="fill:#40596B;" width="9.8" height="4.5"/>
	
		<rect x="379.856" y="266.064" transform="matrix(0.707 0.7072 -0.7072 0.707 302.4846 -193.4879)" style="fill:#40596B;" width="9.8" height="4.5"/>
	
		<rect x="295.608" y="181.8" transform="matrix(0.7071 0.7072 -0.7072 0.7071 218.1841 -158.59)" style="fill:#40596B;" width="9.801" height="4.5"/>
</g>
<g>
</g>
<g>
</g>
<g>
</g>
<g>
</g>
<g>
</g>
<g>
</g>
<g>
</g>
<g>
</g>
<g>
</g>
<g>
</g>
<g>
</g>
<g>
</g>
<g>
</g>
<g>
</g>
<g>
</g>
</svg>
