<?xml version="1.0" encoding="iso-8859-1"?>
<!-- Generator: Adobe Illustrator 19.0.0, SVG Export Plug-In . SVG Version: 6.00 Build 0)  -->
<svg version="1.1" id="Layer_1" xmlns="http://www.w3.org/2000/svg" xmlns:xlink="http://www.w3.org/1999/xlink" x="0px" y="0px"
	 viewBox="0 0 508 508" style="enable-background:new 0 0 508 508;" xml:space="preserve">
<path style="fill:#F1543F;" d="M73.75,452.6v34.2c0,11.7,9.5,21.2,21.2,21.2h318.1c11.7,0,21.2-9.5,21.2-21.2v-34.2H73.75z"/>
<path style="fill:#FF7058;" d="M73.75,132.6v311.9c0,2.7,0.2,5.4,0.6,8.1h359.3c0.3-2.7,0.6-5.3,0.6-8.1V132.6H73.75z"/>
<path style="fill:#FFFFFF;" d="M356.65,307.5L356.65,307.5c-6.3-4.7-8.3-13.3-4.6-20.2l0,0c4.9-9.5-0.6-21-11.1-23.1
	c-7.7-1.5-13.2-8.3-12.9-16.2l0,0c0.3-10.7-9.7-18.6-20-16h-0.1c-7.6,2-15.5-1.8-18.6-9l0,0c-4.3-9.8-16.8-12.6-25-5.7l0,0
	c-6,5.1-14.7,5.1-20.7,0l0,0c-8.1-6.9-20.6-4.1-25,5.7l0,0c-3.2,7.2-11.1,11-18.6,9l0,0c-10.3-2.7-20.3,5.3-20,16l0,0
	c0.2,7.8-5.2,14.7-12.9,16.2l0,0c-10.5,2-16,13.6-11.1,23.1l0,0c3.6,6.9,1.7,15.5-4.6,20.2h-0.1c-8.5,6.4-8.5,19.2,0,25.6h0.1
	c6.3,4.7,8.2,13.2,4.6,20.2l0,0c-4.9,9.5,0.6,21,11.1,23.1c7.7,1.5,13.2,8.3,12.9,16.2l0,0c-0.3,10.7,9.7,18.6,20,16h0.1
	c7.6-2,15.5,1.8,18.6,9l0,0c4.3,9.8,16.8,12.6,25,5.7l0,0c6-5.1,14.7-5.1,20.7,0l0,0c8.1,6.9,20.6,4.1,25-5.7l0,0
	c3.2-7.2,11.1-11,18.6-9l0,0c10.3,2.7,20.3-5.3,20-16l0,0c-0.2-7.8,5.2-14.7,12.9-16.2l0,0c10.5-2,16-13.6,11.1-23.1l0,0
	c-3.6-6.9-1.7-15.5,4.6-20.2h0.1C365.15,326.7,365.15,313.9,356.65,307.5z"/>
<g>
	<path style="fill:#FF7058;" d="M177.25,333.6l11-1.1c0.3,2.5,1.2,4.5,2.8,5.9s3.3,2.2,5.3,2.2c2.3,0,4.2-0.9,5.8-2.8
		s2.4-4.7,2.4-8.5c0-3.5-0.8-6.2-2.4-7.9c-1.6-1.8-3.6-2.6-6.2-2.6c-3.2,0-6,1.4-8.5,4.2l-8.9-1.3l5.6-29.9h29.1V302h-20.8l-1.7,9.8
		c2.5-1.2,5-1.8,7.5-1.8c4.9,0,9,1.8,12.4,5.3c3.4,3.6,5.1,8.2,5.1,13.8c0,4.7-1.4,9-4.1,12.7c-3.7,5.1-8.9,7.6-15.6,7.6
		c-5.3,0-9.6-1.4-13-4.3C179.85,342.2,177.85,338.4,177.25,333.6z"/>
	<path style="fill:#FF7058;" d="M240.35,290.6c5.6,0,9.9,2,13.1,6c3.7,4.7,5.6,12.5,5.6,23.4s-1.9,18.7-5.6,23.5
		c-3.1,3.9-7.5,5.9-13,5.9c-5.6,0-10.1-2.2-13.5-6.5s-5.1-12-5.1-23c0-10.8,1.9-18.6,5.6-23.4
		C230.45,292.6,234.85,290.6,240.35,290.6z M240.35,299.8c-1.3,0-2.5,0.4-3.6,1.3c-1,0.9-1.9,2.4-2.4,4.6c-0.8,2.9-1.1,7.6-1.1,14.4
		c0,6.7,0.3,11.4,1,13.9c0.7,2.5,1.5,4.2,2.6,5c1,0.8,2.2,1.3,3.5,1.3c1.3,0,2.5-0.4,3.6-1.3c1-0.8,1.9-2.4,2.4-4.6
		c0.8-2.8,1.1-7.6,1.1-14.4c0-6.7-0.3-11.4-1-13.9c-0.7-2.5-1.5-4.2-2.6-5.1C242.85,300.2,241.75,299.8,240.35,299.8z"/>
	<path style="fill:#FF7058;" d="M266.55,305.1c0-5.2,1.1-9,3.4-11.5s5.3-3.7,9.2-3.7c4,0,7.1,1.2,9.4,3.7s3.4,6.3,3.4,11.5
		s-1.1,9-3.4,11.5s-5.3,3.7-9.2,3.7c-4,0-7.1-1.2-9.4-3.7S266.55,310.2,266.55,305.1z M275.05,305c0,3.7,0.4,6.2,1.3,7.5
		c0.7,0.9,1.6,1.4,2.7,1.4c1.2,0,2.1-0.5,2.7-1.4c0.8-1.3,1.3-3.8,1.3-7.5s-0.4-6.2-1.3-7.5c-0.7-1-1.6-1.5-2.7-1.5
		c-1.2,0-2.1,0.5-2.7,1.4C275.55,298.7,275.05,301.2,275.05,305z M287.45,350.6h-8.2l30.6-60.7h7.9L287.45,350.6z M305.25,335.5
		c0-5.2,1.1-9,3.4-11.5s5.4-3.7,9.3-3.7s7.1,1.2,9.3,3.7c2.3,2.5,3.4,6.3,3.4,11.5s-1.1,9-3.4,11.5s-5.3,3.7-9.2,3.7
		c-4,0-7.1-1.2-9.4-3.7C306.45,344.5,305.25,340.6,305.25,335.5z M313.85,335.4c0,3.7,0.4,6.2,1.3,7.5c0.7,1,1.6,1.5,2.7,1.5
		c1.2,0,2.1-0.5,2.7-1.4c0.9-1.3,1.3-3.8,1.3-7.5s-0.4-6.2-1.3-7.5c-0.7-0.9-1.6-1.4-2.7-1.4c-1.2,0-2.1,0.5-2.7,1.4
		C314.35,329.2,313.85,331.7,313.85,335.4z"/>
</g>
<g>
	<circle style="fill:#FFFFFF;" cx="171.95" cy="195.5" r="12.6"/>
	<circle style="fill:#FFFFFF;" cx="335.95" cy="195.5" r="12.6"/>
</g>
<path style="fill:#40596B;" d="M335.95,202.1c-4.7,0-8.5-3.8-8.5-8.5V90.5c0-40.5-33-73.5-73.5-73.5s-73.5,33-73.5,73.5v103.2
	c0,4.7-3.8,8.5-8.5,8.5c-4.7,0-8.5-3.8-8.5-8.5V90.5c0-49.9,40.6-90.5,90.5-90.5s90.5,40.6,90.5,90.5v103.2
	C344.45,198.3,340.65,202.1,335.95,202.1z"/>
<g>
</g>
<g>
</g>
<g>
</g>
<g>
</g>
<g>
</g>
<g>
</g>
<g>
</g>
<g>
</g>
<g>
</g>
<g>
</g>
<g>
</g>
<g>
</g>
<g>
</g>
<g>
</g>
<g>
</g>
</svg>
