<?xml version="1.0" encoding="iso-8859-1"?>
<!-- Generator: Adobe Illustrator 19.0.0, SVG Export Plug-In . SVG Version: 6.00 Build 0)  -->
<svg version="1.1" id="Layer_1" xmlns="http://www.w3.org/2000/svg" xmlns:xlink="http://www.w3.org/1999/xlink" x="0px" y="0px"
	 viewBox="0 0 511.725 511.725" style="enable-background:new 0 0 511.725 511.725;" xml:space="preserve">
<path style="fill:#FF7058;" d="M500.5,266.75L249.3,15.65c-8.8-8.9-20.7-13.8-33.2-13.8H46.9C21,1.85,0,22.85,0,48.75v169.2
	c0,12.5,4.9,24.3,13.8,33.2l245,245c18.3,18.3,48,18.3,66.3,0l175.5-175.6C515.5,305.55,515.4,281.55,500.5,266.75z M106.1,107.85
	c-11.7,11.7-30.6,11.7-42.3,0s-11.6-30.6,0-42.3c11.7-11.7,30.5-11.7,42.2,0S117.7,96.15,106.1,107.85z"/>
<rect x="90.579" y="141.738" transform="matrix(-0.7071 -0.7071 0.7071 -0.7071 256.6828 625.6958)" style="fill:#FFFFFF;" width="334.697" height="235.898"/>
<g>
	<path style="fill:#4CDBC4;" d="M146.3,167.35l12,9.8c-3,4.3-4.4,8.3-4.1,12.1c0.3,3.7,2.1,7.3,5.6,10.7c3.6,3.6,7.1,5.6,10.4,5.9
		s6.1-0.6,8.1-2.6c1.3-1.3,2-2.8,2.2-4.5s-0.4-3.8-1.6-6.4c-0.9-1.8-3-5.6-6.6-11.4c-4.5-7.5-6.9-13.6-7.2-18.1
		c-0.4-6.5,1.7-11.9,6.1-16.3c2.8-2.8,6.3-4.7,10.3-5.5c4.1-0.9,8.3-0.4,12.6,1.3s8.6,4.7,12.9,9c7,7,10.7,13.7,11.1,20.3
		c0.5,6.6-1.8,12.5-6.7,17.8l-11.7-10.7c2.4-3.3,3.4-6.4,3.1-9.2s-2.1-5.8-5.2-9c-3.3-3.3-6.5-5.1-9.7-5.6c-2-0.3-3.8,0.2-5.2,1.7
		c-1.3,1.3-1.9,3-1.7,5c0.2,2.6,2.4,7.3,6.6,14c4.2,6.7,6.9,12.1,8.1,16.1c1.2,4,1.4,7.9,0.5,11.8c-0.9,3.9-3.1,7.6-6.6,11.1
		c-3.2,3.2-7,5.3-11.6,6.3s-9.1,0.6-13.7-1.3c-4.6-1.9-9.3-5.2-14.1-10.1c-7-7-10.8-14-11.3-21
		C138.3,181.35,140.8,174.35,146.3,167.35z"/>
	<path style="fill:#4CDBC4;" d="M234.1,291.35l-12.2-12.2l7.8-17.5l-22.2-22.2l-17.2,8l-11.9-11.9l77.2-33.9l11.9,11.9L234.1,291.35
		z M235.5,248.75l13-28.3l-28.1,13.1L235.5,248.75z"/>
	<path style="fill:#4CDBC4;" d="M241.6,298.85l55.1-55.1l11.2,11.2l-45.7,45.7l27.9,27.9l-9.4,9.4L241.6,298.85z"/>
	<path style="fill:#4CDBC4;" d="M289.9,347.15l55.5-55.5l41.2,41.2l-9.4,9.4l-30-30l-12.3,12.3l27.9,27.9l-9.4,9.4l-27.8-28
		l-15.1,15.1l31,31l-9.4,9.4L289.9,347.15z"/>
</g>
<g>
</g>
<g>
</g>
<g>
</g>
<g>
</g>
<g>
</g>
<g>
</g>
<g>
</g>
<g>
</g>
<g>
</g>
<g>
</g>
<g>
</g>
<g>
</g>
<g>
</g>
<g>
</g>
<g>
</g>
</svg>
