<?xml version="1.0" encoding="iso-8859-1"?>
<!-- Generator: Adobe Illustrator 19.0.0, SVG Export Plug-In . SVG Version: 6.00 Build 0)  -->
<svg version="1.1" id="Layer_1" xmlns="http://www.w3.org/2000/svg" xmlns:xlink="http://www.w3.org/1999/xlink" x="0px" y="0px"
	 viewBox="0 0 508 508" style="enable-background:new 0 0 508 508;" xml:space="preserve">
<polygon style="fill:#F1543F;" points="386.4,215.5 386.4,264.3 337.6,264.3 185.9,112.5 234.6,63.8 "/>
<g>
	<polygon style="fill:#FF7058;" points="247.6,0 174.6,0 138.1,56.4 174.6,112.8 247.6,112.8 284.2,56.4 	"/>
	<polygon style="fill:#FF7058;" points="300.7,435.1 211.2,508 198.6,497.7 179.3,482 155.2,462.4 135.9,446.8 121.6,435.1 
		125.1,414 132,372 140.5,319.9 147.4,277.9 156.1,225.7 163,183.8 174.6,112.8 247.6,112.8 250.7,131.1 256.8,168.5 261.8,198.6 
		267.9,236.1 272.9,266.1 279.1,303.6 284,333.6 290.2,371.1 295.1,401.2 	"/>
</g>
<g>
	<polygon style="fill:#FFFFFF;" points="250.7,131.1 156.1,225.7 163,183.8 234,112.8 247.6,112.8 	"/>
	<polygon style="fill:#FFFFFF;" points="284,333.6 155.2,462.4 135.9,446.8 279.1,303.6 	"/>
	<polygon style="fill:#FFFFFF;" points="295.1,401.2 198.6,497.7 179.3,482 290.2,371.1 	"/>
	<polygon style="fill:#FFFFFF;" points="261.8,198.6 140.5,319.9 147.4,277.9 256.8,168.5 	"/>
	<polygon style="fill:#FFFFFF;" points="272.9,266.1 125.1,414 132,372 267.9,236.1 	"/>
</g>
<g>
</g>
<g>
</g>
<g>
</g>
<g>
</g>
<g>
</g>
<g>
</g>
<g>
</g>
<g>
</g>
<g>
</g>
<g>
</g>
<g>
</g>
<g>
</g>
<g>
</g>
<g>
</g>
<g>
</g>
</svg>
