<?xml version="1.0" encoding="iso-8859-1"?>
<!-- Generator: Adobe Illustrator 19.0.0, SVG Export Plug-In . SVG Version: 6.00 Build 0)  -->
<svg version="1.1" id="Capa_1" xmlns="http://www.w3.org/2000/svg" xmlns:xlink="http://www.w3.org/1999/xlink" x="0px" y="0px"
	 viewBox="0 0 512 512" style="enable-background:new 0 0 512 512;" xml:space="preserve">
<path style="fill:#58D1C1;" d="M511.999,256c0,3.26-0.063,6.499-0.188,9.728c-0.752,20.292-3.877,39.988-9.091,58.807
	c-8.735,31.514-23.343,60.594-42.59,85.964c-41.994,55.411-106.046,93.205-179.085,100.289C272.802,511.592,264.453,512,256,512
	c-2.111,0-4.221-0.021-6.322-0.073C111.209,508.562,0,395.275,0,256C0,114.616,114.615,0.001,256,0.001
	c1.348,0,2.685,0.01,4.023,0.031c1.829,0.031,3.657,0.073,5.475,0.146c129.076,4.702,233.754,104.96,245.415,232.145
	C511.634,240.118,511.999,248.017,511.999,256z"/>
<path style="fill:#65A3E6;" d="M511.999,256c0,2.361-0.031,4.712-0.094,7.053v0.01c-0.031,0.888-0.063,1.776-0.094,2.664
	c-0.585,15.862-2.623,31.357-5.987,46.352c-0.92,4.19-1.964,8.349-3.103,12.455c-2.121,7.649-4.587,15.161-7.377,22.497
	c-3.877,10.177-8.38,20.041-13.469,29.55c-6.363,11.901-13.646,23.238-21.744,33.917c-12.831,16.917-27.711,32.204-44.283,45.463
	c-29.226,23.406-63.707,40.532-101.386,49.33c-10.888,2.55-22.047,4.389-33.416,5.496L36.352,266.084
	c-15.893-15.893-15.893-41.66,0-57.542L147.268,97.636l64.272-64.282l5.548-5.548l0.376-0.366l15.506-15.517
	c7.502-7.502,17.22-11.473,27.052-11.891c1.829-0.073,3.657-0.021,5.475,0.146c9.122,0.836,18.024,4.754,25.015,11.745l220.4,220.4
	C511.634,240.118,511.999,248.017,511.999,256z"/>
<path style="fill:#374266;" d="M502.722,324.535c-8.735,31.514-23.343,60.594-42.59,85.964L147.258,97.626l64.282-64.272
	l131.709,131.709L502.722,324.535z"/>
<circle style="fill:#FF526C;" cx="141.406" cy="240.274" r="64.261"/>
<circle style="fill:#FFE261;" cx="198.029" cy="296.897" r="64.261"/>
<path style="fill:#495B94;" d="M502.722,324.535c-8.735,31.514-23.343,60.594-42.59,85.964L350.815,301.182l-7.565-136.119
	L502.722,324.535z"/>
<g>
</g>
<g>
</g>
<g>
</g>
<g>
</g>
<g>
</g>
<g>
</g>
<g>
</g>
<g>
</g>
<g>
</g>
<g>
</g>
<g>
</g>
<g>
</g>
<g>
</g>
<g>
</g>
<g>
</g>
</svg>
