<?xml version="1.0" encoding="iso-8859-1"?>
<!-- Generator: Adobe Illustrator 19.0.0, SVG Export Plug-In . SVG Version: 6.00 Build 0)  -->
<svg version="1.1" id="Capa_1" xmlns="http://www.w3.org/2000/svg" xmlns:xlink="http://www.w3.org/1999/xlink" x="0px" y="0px"
	 viewBox="0 0 512 512" style="enable-background:new 0 0 512 512;" xml:space="preserve">
<path style="fill:#FFE261;" d="M512,256c0,38.107-8.328,74.271-23.259,106.768C448.272,450.842,359.278,512,256,512
	S63.728,450.842,23.259,362.768C8.328,330.271,0,294.107,0,256C0,114.615,114.615,0,256,0S512,114.615,512,256z"/>
<path style="fill:#F2F2F7;" d="M488.741,188.176v174.592c-7.043,15.318-15.548,29.821-25.339,43.332
	c-9.853,13.605-21.023,26.185-33.311,37.585c-5.716,5.308-11.672,10.355-17.847,15.109C369.016,492.157,314.828,512,256,512
	s-113.016-19.843-156.244-53.206c-6.175-4.754-12.131-9.801-17.847-15.109c-17.774-16.488-33.207-35.464-45.714-56.393
	c-4.744-7.91-9.059-16.091-12.936-24.524V188.176L256,26.258L488.741,188.176z"/>
<polygon style="fill:#C5C6E0;" points="488.741,188.176 442.107,220.62 396.466,252.374 362.715,275.853 325.005,302.09 
	315.214,308.903 282.311,331.797 275.78,336.332 256,350.093 23.259,188.176 "/>
<path style="fill:#58D1C1;" d="M343.803,50.803c-0.282,45.955-3.114,91.815-8.443,137.373
	c-4.733,40.532-11.463,80.823-20.146,120.728l-32.904,22.894L256,350.093l-67.208-46.759l-22.11-15.381L140.8,269.949
	l-24.012-16.708c4.441-21.567,8.192-43.269,11.254-65.066c6.29-44.805,9.665-90.008,10.094-135.335
	c0.146-15.559,12.737-28.129,28.285-28.4c49.361-0.846,98.732-1.703,148.093-2.55C330.647,21.608,343.907,34.659,343.803,50.803z"/>
<path style="fill:#1AB0AE;" d="M316.886,48.776c-0.219,46.696-3.103,93.215-8.62,139.4c-5.778,48.306-14.44,96.246-25.955,143.621
	L256,350.093l-67.208-46.759l-22.11-15.381L140.8,269.949c5.883-27.073,10.7-54.345,14.44-81.774
	c6.196-45.255,9.488-90.917,9.843-136.777L316.886,48.776z"/>
<g>
	
		<ellipse transform="matrix(0.1394 -0.9902 0.9902 0.1394 -2.0735 403.7613)" style="fill:#58D1C1;" cx="231.255" cy="203.074" rx="42.223" ry="56.914"/>
	<path style="fill:#58D1C1;" d="M470.423,155.366c-4.409,11.003-8.965,21.943-13.699,32.81
		c-4.712,10.888-9.592,21.703-14.618,32.444l-45.641,31.754l-33.75,23.479l-37.71,26.237L256,350.093l-67.208-46.759l-22.11-15.381
		c22.392-32.099,42.935-65.411,61.555-99.777c18.641-34.388,35.349-69.851,50.051-106.193c5.831-14.42,22.141-21.514,36.707-16.071
		c46.258,17.272,92.505,34.555,138.752,51.827C468.877,123.382,476.432,140.382,470.423,155.366z"/>
</g>
<path style="fill:#1AB0AE;" d="M446.109,143.632c-5.977,14.984-12.236,29.832-18.798,44.544
	c-9.655,21.713-19.937,43.123-30.845,64.199l-33.75,23.479l-37.71,26.237L256,350.093l-67.208-46.759
	c25.767-36.916,49.121-75.358,69.987-115.158c16.645-31.723,31.692-64.313,45.108-97.667L446.109,143.632z"/>
<path style="fill:#58D1C1;" d="M362.715,275.853l-37.71,26.237c-11.421,0.303-24.001-2.759-35.819-9.446
	c-27.366-15.464-40.249-44.471-28.766-64.773c11.473-20.302,42.966-24.221,70.332-8.746
	C354.67,232.647,367.512,256.502,362.715,275.853z"/>
<g>
	<path style="fill:#C5C6E0;" d="M430.09,443.685c-5.716,5.308-11.672,10.355-17.847,15.109L256,350.093l19.78-13.761L430.09,443.685
		z"/>
	<path style="fill:#C5C6E0;" d="M256,350.093L99.756,458.794c-6.175-4.754-12.131-9.801-17.847-15.109L236.22,336.332L256,350.093z"
		/>
</g>
<g>
</g>
<g>
</g>
<g>
</g>
<g>
</g>
<g>
</g>
<g>
</g>
<g>
</g>
<g>
</g>
<g>
</g>
<g>
</g>
<g>
</g>
<g>
</g>
<g>
</g>
<g>
</g>
<g>
</g>
</svg>
