<?xml version="1.0" encoding="iso-8859-1"?>
<!-- Generator: Adobe Illustrator 19.0.0, SVG Export Plug-In . SVG Version: 6.00 Build 0)  -->
<svg version="1.1" id="Capa_1" xmlns="http://www.w3.org/2000/svg" xmlns:xlink="http://www.w3.org/1999/xlink" x="0px" y="0px"
	 viewBox="0 0 512 512" style="enable-background:new 0 0 512 512;" xml:space="preserve">
<path style="fill:#FFE261;" d="M512,256c0,49.559-14.085,95.838-38.473,135.043C428.345,463.663,347.815,512,256,512
	c-58.096,0-111.668-19.352-154.624-51.963c-7.617-5.778-14.9-11.975-21.817-18.557c-15.705-14.932-29.508-31.849-41.023-50.333
	C14.106,351.922,0,305.601,0,256c0-50.406,14.566-97.416,39.727-137.028c12.142-19.132,26.76-36.54,43.395-51.764
	c0.125-0.115,0.24-0.219,0.366-0.334C128.993,25.328,189.534,0,256,0c66.476,0,127.018,25.328,172.523,66.873
	C479.817,113.685,512,181.081,512,256z"/>
<rect x="167.309" y="375.4" style="fill:#374266;" width="185.992" height="58.514"/>
<g>
	<path style="fill:#495B94;" d="M390.008,446.455H130.602c-8.079,0-14.629-6.549-14.629-14.629l0,0
		c0-8.079,6.549-14.629,14.629-14.629h259.406c8.079,0,14.629,6.549,14.629,14.629l0,0
		C404.637,439.905,398.087,446.455,390.008,446.455z"/>
	<path style="fill:#495B94;" d="M495.407,71.398v275.456c-5.266,13.887-11.713,27.188-19.205,39.79
		c-5.183,2.8-11.118,4.399-17.429,4.399H53.238c-6.311,0-12.257-1.599-17.439-4.399c-7.492-12.601-13.939-25.903-19.195-39.779
		V71.398c0-20.229,16.394-36.634,36.634-36.634h405.535C479.002,34.764,495.407,51.169,495.407,71.398z"/>
</g>
<path style="fill:#F2F2F7;" d="M53.232,363.875c-5.218,0-9.464-4.245-9.464-9.464V71.395c0-5.218,4.245-9.464,9.464-9.464h405.543
	c5.219,0,9.465,4.245,9.465,9.464v283.016c0,5.218-4.245,9.464-9.465,9.464H53.232V363.875z"/>
<polygon style="fill:#C5C6E0;" points="120.359,298.505 103.291,285.316 186.233,177.989 285.738,224.55 392.799,123.977 
	407.568,139.699 289.845,250.285 192.738,204.848 "/>
<g>
	<circle style="fill:#FF526C;" cx="111.825" cy="291.913" r="24.976"/>
	<circle style="fill:#FF526C;" cx="189.482" cy="191.415" r="24.976"/>
	<circle style="fill:#FF526C;" cx="287.796" cy="237.422" r="24.976"/>
	<circle style="fill:#FF526C;" cx="400.185" cy="131.835" r="24.976"/>
</g>
<g>
</g>
<g>
</g>
<g>
</g>
<g>
</g>
<g>
</g>
<g>
</g>
<g>
</g>
<g>
</g>
<g>
</g>
<g>
</g>
<g>
</g>
<g>
</g>
<g>
</g>
<g>
</g>
<g>
</g>
</svg>
