<?xml version="1.0" encoding="iso-8859-1"?>
<!-- Generator: Adobe Illustrator 19.0.0, SVG Export Plug-In . SVG Version: 6.00 Build 0)  -->
<svg version="1.1" id="Capa_1" xmlns="http://www.w3.org/2000/svg" xmlns:xlink="http://www.w3.org/1999/xlink" x="0px" y="0px"
	 viewBox="0 0 512 512" style="enable-background:new 0 0 512 512;" xml:space="preserve">
<path style="fill:#FFE261;" d="M511.999,255.999c0,16.405-1.546,32.454-4.493,48.013c-7.659,40.375-24.806,77.395-49.026,108.648
	c-46.822,60.437-120.11,99.338-202.48,99.338c-141.385,0-255.999-114.615-255.999-255.999S114.615,0,256,0
	S511.999,114.615,511.999,255.999z"/>
<path style="fill:#BCBDD6;" d="M469.145,45.041v352.793c-4.556,6.844-9.446,13.448-14.629,19.801
	C407.58,475.23,336.078,512,255.997,512s-151.583-36.77-198.52-94.365c-5.183-6.353-10.073-12.957-14.629-19.801V45.041
	c0-7.008,5.681-12.69,12.69-12.69h400.917C463.464,32.351,469.145,38.032,469.145,45.041z"/>
<path style="fill:#EBEBF2;" d="M454.517,96.613v321.022C407.58,475.23,336.078,512,255.997,512s-151.583-36.77-198.52-94.365V96.613
	H454.517z"/>
<circle style="fill:#FF526C;" cx="80.092" cy="66.836" r="15.672"/>
<circle style="fill:#FFE261;" cx="127.112" cy="66.836" r="15.672"/>
<circle style="fill:#1AB0AE;" cx="176.442" cy="66.836" r="15.672"/>
<path style="fill:#EBEBF2;" d="M420.971,51.946H232.899c-8.223,0-14.889,6.666-14.889,14.889l0,0
	c0,8.223,6.666,14.889,14.889,14.889h188.072c8.223,0,14.889-6.666,14.889-14.889l0,0C435.86,58.612,429.195,51.946,420.971,51.946z
	"/>
<path style="fill:#FF526C;" d="M134.27,207.171L134.27,207.171c-12.407,0-22.465-10.058-22.465-22.465l0,0
	c0-12.407,10.058-22.465,22.465-22.465l0,0c12.407,0,22.465,10.058,22.465,22.465l0,0
	C156.735,197.113,146.678,207.171,134.27,207.171z"/>
<path style="fill:#374266;" d="M347.951,199.335H200.098c-8.079,0-14.629-6.549-14.629-14.629l0,0
	c0-8.079,6.549-14.629,14.629-14.629h147.853c8.079,0,14.629,6.549,14.629,14.629l0,0
	C362.579,192.785,356.03,199.335,347.951,199.335z"/>
<path style="fill:#FF526C;" d="M134.27,287.106L134.27,287.106c-12.407,0-22.465-10.058-22.465-22.465l0,0
	c0-12.407,10.058-22.465,22.465-22.465l0,0c12.407,0,22.465,10.058,22.465,22.465l0,0
	C156.735,277.048,146.678,287.106,134.27,287.106z"/>
<path style="fill:#374266;" d="M347.951,279.269H200.098c-8.079,0-14.629-6.549-14.629-14.629l0,0
	c0-8.079,6.549-14.629,14.629-14.629h147.853c8.079,0,14.629,6.549,14.629,14.629l0,0
	C362.579,272.72,356.03,279.269,347.951,279.269z"/>
<path style="fill:#FF526C;" d="M134.27,374.877L134.27,374.877c-12.407,0-22.465-10.058-22.465-22.465l0,0
	c0-12.407,10.058-22.465,22.465-22.465l0,0c12.407,0,22.465,10.058,22.465,22.465l0,0
	C156.735,364.819,146.678,374.877,134.27,374.877z"/>
<path style="fill:#374266;" d="M347.951,367.041H200.098c-8.079,0-14.629-6.549-14.629-14.629l0,0
	c0-8.079,6.549-14.629,14.629-14.629h147.853c8.079,0,14.629,6.549,14.629,14.629l0,0
	C362.579,360.491,356.03,367.041,347.951,367.041z"/>
<path style="fill:#FF526C;" d="M429.954,144.99c-6.489-13.281-19.028-22.57-33.635-24.879l-63.53-10.021
	c-18.777-2.967-37.407,6.102-46.634,22.737l-31.221,56.236c-7.158,12.904-7.586,28.526-1.097,41.796l98.649,202.292
	c0.031,0.073,0.063,0.146,0.104,0.219c5.569,11.254,18.62,16.582,30.647,12.967c11.118-3.354,22.068-7.304,32.778-11.849
	c14.629-6.196,28.829-13.479,42.465-21.828c24.221-31.253,41.367-68.273,49.026-108.648L429.954,144.99z M340.96,160.841
	c-5.099,8.997-16.53,12.163-25.537,7.053c-8.986-5.089-12.152-16.52-7.043-25.527c5.099-8.986,16.53-12.163,25.516-7.063
	C342.904,140.403,346.06,151.844,340.96,160.841z"/>
<path style="fill:#F2F2F7;" d="M432.046,268.488c-16.098,4.451-26.523,14.669-21.338,33.416l7.444,26.882
	c5.185,18.746,19.372,22.167,35.469,17.715c15.9-4.397,26.511-14.676,21.326-33.422l-7.426-26.887
	C462.337,267.445,447.946,264.091,432.046,268.488z M448.577,291.432l7.444,26.882c1.728,6.249-1.084,10.092-6.956,11.715
	c-5.873,1.624-10.062-0.282-11.791-6.531l-7.444-26.882c-1.728-6.249,0.898-10.03,6.771-11.654
	C442.475,283.337,446.849,285.182,448.577,291.432z M402.054,202.796c-3.414,0.934-6.019,3.294-6.643,6.926l-28.706,154.909
	c-0.261,1.286-0.271,2.716,0.053,3.85c1.301,4.739,6.938,8.885,13.366,7.107c3.599-0.996,6.684-3.882,7.221-7.096l28.898-154.952
	c0.25-1.294,0.073-2.661-0.243-3.808C414.326,203.683,407.36,201.32,402.054,202.796z M328.273,231.557
	c-16.097,4.451-26.523,14.669-21.339,33.416l7.444,26.882c5.185,18.747,19.372,22.166,35.469,17.715
	c15.906-4.408,26.511-14.676,21.326-33.422l-7.426-26.887C358.564,230.514,344.18,227.149,328.273,231.557z M344.805,254.5
	l7.444,26.882c1.728,6.25-1.095,10.084-6.956,11.715c-5.866,1.613-10.062-0.282-11.791-6.531l-7.444-26.882
	c-1.728-6.25,0.898-10.03,6.771-11.655C338.701,246.405,343.076,248.251,344.805,254.5z"/>
<g>
</g>
<g>
</g>
<g>
</g>
<g>
</g>
<g>
</g>
<g>
</g>
<g>
</g>
<g>
</g>
<g>
</g>
<g>
</g>
<g>
</g>
<g>
</g>
<g>
</g>
<g>
</g>
<g>
</g>
</svg>
