<?xml version="1.0" encoding="iso-8859-1"?>
<!-- Generator: Adobe Illustrator 19.0.0, SVG Export Plug-In . SVG Version: 6.00 Build 0)  -->
<svg version="1.1" id="Capa_1" xmlns="http://www.w3.org/2000/svg" xmlns:xlink="http://www.w3.org/1999/xlink" x="0px" y="0px"
	 viewBox="0 0 512 512" style="enable-background:new 0 0 512 512;" xml:space="preserve">
<path style="fill:#FF526C;" d="M512,256c0,33.782-6.541,66.038-18.432,95.556c0,0.01-0.01,0.01-0.01,0.021
	c-7.555,18.766-17.272,36.425-28.839,52.673c0,0.01,0,0.01,0,0.01c-0.031,0.042-0.063,0.084-0.094,0.125
	c-20.867,29.299-47.731,54-78.838,72.317c-14.461,8.526-29.832,15.673-45.934,21.243c-11.818,4.106-24.033,7.356-36.571,9.697
	c-5.82,1.087-11.713,1.975-17.68,2.654C275.895,511.425,266.01,512,256,512c-5.381,0-10.731-0.167-16.039-0.502
	c-17.742-1.097-34.994-4.002-51.566-8.526c-15.663-4.274-30.72-10-45.035-17.032c-38.128-18.693-70.917-46.602-95.462-80.823
	c-17.356-24.169-30.595-51.472-38.713-80.906C3.197,302.498,0,279.625,0,256C0,114.615,114.615,0,256,0
	c36.394,0,71.011,7.596,102.348,21.274c17.063,7.45,33.155,16.708,48.034,27.523C470.392,95.336,512,170.809,512,256z"/>
<g>
	<path style="fill:#495B94;" d="M285.602,510.297C275.895,511.425,266.01,512,256,512c-5.381,0-10.731-0.167-16.039-0.502
		c-17.742-1.097-34.994-4.002-51.566-8.526l-57.731-85.65l-32.58-48.316l-0.063-0.105l150.476-60.259l-6.541,28.338l-9.519,41.273
		c-1.62,7.001-0.669,14.336,2.623,20.689l0.01,0.01c0.303,0.596,0.637,1.181,0.993,1.755l47.083,77.437
		C289.395,488.417,289.761,500.287,285.602,510.297z"/>
	<path style="fill:#495B94;" d="M77.57,386.775l23.637-6.806L61.828,243.222l-23.637,6.806c-13.559,3.905-21.385,18.061-17.48,31.62
		l25.24,87.647C49.855,382.853,64.011,390.679,77.57,386.775z"/>
	
		<ellipse transform="matrix(-0.2767 -0.961 0.961 -0.2767 377.1462 694.7978)" style="fill:#495B94;" cx="450.052" cy="205.465" rx="76.566" ry="31.17"/>
</g>
<path style="fill:#65A3E6;" d="M356.825,33.452l105.761,367.263c0,0-132.134-71.953-276.693-30.324l-70.86,20.406
	c-10.497,3.023-21.457-3.035-24.48-13.534L54.245,251.182c-3.023-10.497,3.035-21.457,13.534-24.48l70.86-20.406
	C283.198,164.668,356.825,33.452,356.825,33.452z"/>
<path style="fill:#FFE261;" d="M493.568,351.556c0,0.01-0.01,0.01-0.01,0.021c-7.555,18.766-17.272,36.425-28.839,52.673
	c0,0.01,0,0.01,0,0.01c-0.031,0.042-0.063,0.084-0.094,0.125c-1.139-1.724-2.027-3.647-2.633-5.736L357.428,35.527
	c-1.411-4.911-0.972-9.906,0.92-14.252c2.414-5.59,7.231-10.083,13.531-11.901l1.076-0.303c11.212-3.229,22.915,3.239,26.143,14.451
	l7.283,25.276L493.568,351.556z"/>
<path style="fill:#374266;" d="M232.437,378.258c-1.614,7-0.668,14.334,2.627,20.682c-27.227,0.667-55.957,4.436-85.201,12.857
	l-19.198,5.529l-32.58-48.323c41.034-11.328,93.311-24.464,143.876-32.02L232.437,378.258z"/>
<path style="fill:#D8A23C;" d="M493.558,351.577c-7.555,18.766-17.272,36.425-28.839,52.673c-1.254-1.839-2.236-3.897-2.884-6.144
	l-27.752-96.361c3.323,11.504,15.329,18.15,26.843,14.838c5.757-1.661,10.282-5.496,12.967-10.344
	c2.696-4.869,3.521-10.752,1.86-16.499L493.558,351.577z"/>
<path style="fill:#1B79CF;" d="M436.21,309.122l26.376,91.595c0,0-132.134-71.953-276.693-30.324l-70.86,20.406
	c-10.497,3.023-21.457-3.035-24.48-13.534l-9.904-34.393C152.508,322.179,365.937,256.89,436.21,309.122z"/>
<g>
</g>
<g>
</g>
<g>
</g>
<g>
</g>
<g>
</g>
<g>
</g>
<g>
</g>
<g>
</g>
<g>
</g>
<g>
</g>
<g>
</g>
<g>
</g>
<g>
</g>
<g>
</g>
<g>
</g>
</svg>
