<?xml version="1.0" encoding="iso-8859-1"?>
<!-- Generator: Adobe Illustrator 19.0.0, SVG Export Plug-In . SVG Version: 6.00 Build 0)  -->
<svg version="1.1" id="Capa_1" xmlns="http://www.w3.org/2000/svg" xmlns:xlink="http://www.w3.org/1999/xlink" x="0px" y="0px"
	 viewBox="0 0 512 512" style="enable-background:new 0 0 512 512;" xml:space="preserve">
<path style="fill:#65A3E6;" d="M512,256c0,56.863-18.536,109.401-49.904,151.886c-5.611,7.596-11.63,14.879-18.024,21.797
	c-5.716,6.186-11.734,12.089-18.025,17.68C380.834,487.57,321.275,512,256,512s-124.834-24.43-170.047-64.637
	c-6.29-5.59-12.309-11.494-18.024-17.68c-6.395-6.917-12.413-14.2-18.024-21.797C18.536,365.401,0,312.863,0,256
	s18.536-109.401,49.904-151.886c5.611-7.596,11.63-14.879,18.024-21.797c5.716-6.186,11.734-12.089,18.024-17.68
	c7.983-7.095,16.405-13.709,25.245-19.769C152.377,16.562,202.25,0,256,0s103.623,16.562,144.802,44.868
	c8.84,6.06,17.262,12.675,25.245,19.769c6.29,5.59,12.309,11.494,18.025,17.68c6.395,6.917,12.413,14.2,18.024,21.797
	C493.464,146.599,512,199.137,512,256z"/>
<path style="fill:#F2F2F7;" d="M444.071,63.697v365.986c-5.716,6.186-11.734,12.089-18.025,17.68
	C380.834,487.57,321.275,512,256,512s-124.834-24.43-170.047-64.637c-6.29-5.59-12.309-11.494-18.024-17.68V63.697
	c0-10.397,8.422-18.829,18.819-18.829h338.495C435.639,44.868,444.071,53.3,444.071,63.697z"/>
<path style="fill:#FFE261;" d="M444.071,143.148H67.927V63.7c0-10.399,8.43-18.829,18.829-18.829h338.486
	c10.399,0,18.829,8.43,18.829,18.829V143.148z"/>
<g>
	<path style="fill:#374266;" d="M385.22,0.006c-20.07-0.34-36.496,16.518-36.496,36.591v8.271h14.629v-8.464
		c0-11.507,8.929-21.322,20.428-21.76c12.088-0.461,22.068,9.24,22.068,21.227v30.647c0,9.834-6.717,18.135-15.802,20.547
		c-3.206,0.851-5.441,3.746-5.441,7.062l0,0c0,4.766,4.498,8.312,9.107,7.101c15.384-4.043,26.764-18.076,26.764-34.709V35.873
		C420.477,16.297,404.718,0.335,385.22,0.006z"/>
	<path style="fill:#374266;" d="M300.932,0.006c-20.07-0.34-36.497,16.518-36.497,36.591v8.271h14.629v-8.464
		c0-11.507,8.929-21.322,20.428-21.76c12.088-0.461,22.068,9.24,22.068,21.227v30.647c0,9.834-6.717,18.135-15.802,20.547
		c-3.206,0.851-5.441,3.746-5.441,7.062l0,0c0,4.766,4.498,8.312,9.107,7.101c15.384-4.043,26.764-18.076,26.764-34.709V35.873
		C336.189,16.297,320.429,0.335,300.932,0.006z"/>
	<path style="fill:#374266;" d="M216.644,0.006c-20.07-0.34-36.497,16.518-36.497,36.591v8.271h14.629v-8.464
		c0-11.507,8.929-21.322,20.428-21.76c12.088-0.461,22.068,9.24,22.068,21.227v30.647c0,9.834-6.717,18.135-15.802,20.547
		c-3.206,0.851-5.441,3.746-5.441,7.062l0,0c0,4.766,4.498,8.312,9.107,7.101C240.52,97.187,251.9,83.154,251.9,66.52V35.873
		C251.9,16.297,236.141,0.335,216.644,0.006z"/>
	<path style="fill:#374266;" d="M132.355,0.006c-20.07-0.34-36.496,16.518-36.496,36.591v8.271h14.629v-8.464
		c0-11.507,8.929-21.322,20.428-21.76c12.088-0.461,22.068,9.24,22.068,21.227v30.647c0,9.834-6.717,18.135-15.802,20.547
		c-3.206,0.851-5.441,3.746-5.441,7.062l0,0c0,4.766,4.498,8.312,9.107,7.101c15.384-4.043,26.764-18.076,26.764-34.709V35.873
		C167.612,16.297,151.853,0.335,132.355,0.006z"/>
</g>
<path style="fill:#FF526C;" d="M138.29,250.122c-0.04,0-0.078,0-0.117,0c-3.424-0.043-6.556-1.944-8.172-4.963l-23.509-43.884
	c-2.453-4.578-0.729-10.278,3.848-12.73c4.577-2.453,10.277-0.729,12.73,3.848l15.462,28.862l30.763-54.143
	c2.567-4.515,8.308-6.095,12.822-3.531c4.515,2.566,6.096,8.307,3.531,12.822l-39.182,68.96
	C144.794,248.307,141.67,250.122,138.29,250.122z"/>
<path style="fill:#374266;" d="M396.889,223.479h-172.4c-5.194,0-9.404-4.21-9.404-9.404s4.21-9.404,9.404-9.404h172.4
	c5.194,0,9.404,4.21,9.404,9.404S402.083,223.479,396.889,223.479z"/>
<path style="fill:#FF526C;" d="M138.29,347.468c-0.04,0-0.078,0-0.117,0c-3.424-0.043-6.556-1.944-8.172-4.963l-23.509-43.884
	c-2.453-4.578-0.729-10.278,3.848-12.73c4.577-2.453,10.277-0.73,12.73,3.848l15.462,28.862l30.763-54.143
	c2.566-4.515,8.308-6.095,12.822-3.531c4.515,2.566,6.096,8.307,3.531,12.822l-39.182,68.96
	C144.794,345.653,141.67,347.468,138.29,347.468z"/>
<g>
	<path style="fill:#374266;" d="M396.889,320.824h-172.4c-5.194,0-9.404-4.21-9.404-9.404c0-5.194,4.21-9.404,9.404-9.404h172.4
		c5.194,0,9.404,4.21,9.404,9.404C406.293,316.615,402.083,320.824,396.889,320.824z"/>
	<path style="fill:#374266;" d="M396.889,426.47h-172.4c-5.194,0-9.404-4.21-9.404-9.404s4.21-9.404,9.404-9.404h172.4
		c5.194,0,9.404,4.21,9.404,9.404S402.083,426.47,396.889,426.47z"/>
</g>
<g>
</g>
<g>
</g>
<g>
</g>
<g>
</g>
<g>
</g>
<g>
</g>
<g>
</g>
<g>
</g>
<g>
</g>
<g>
</g>
<g>
</g>
<g>
</g>
<g>
</g>
<g>
</g>
<g>
</g>
</svg>
