<?xml version="1.0" encoding="iso-8859-1"?>
<!-- Generator: Adobe Illustrator 19.0.0, SVG Export Plug-In . SVG Version: 6.00 Build 0)  -->
<svg version="1.1" id="Capa_1" xmlns="http://www.w3.org/2000/svg" xmlns:xlink="http://www.w3.org/1999/xlink" x="0px" y="0px"
	 viewBox="0 0 512 512" style="enable-background:new 0 0 512 512;" xml:space="preserve">
<path style="fill:#FFE261;" d="M512,256c0,14.639-1.233,28.996-3.594,42.956c-18.066,106.977-102.494,191.394-209.46,209.45
	C284.985,510.777,270.639,512,256,512C114.615,512,0,397.385,0,256c0-14.639,1.233-28.985,3.594-42.945
	c0.491-2.967,1.045-5.914,1.651-8.84c20.511-99.84,99.129-178.458,198.959-198.969c2.926-0.606,5.872-1.16,8.84-1.651
	C227.015,1.233,241.361,0,256,0C397.385,0,512,114.615,512,256z"/>
<path style="fill:#F2F2F7;" d="M508.406,298.956c-18.066,106.977-102.494,191.394-209.46,209.45L0,209.46l5.245-5.245L204.204,5.245
	L209.45,0L508.406,298.956z"/>
<g>
	<path style="fill:#374266;" d="M73.988,237.351l-11.636-11.636c-3.213-3.213-3.213-8.423,0-11.636l146.84-146.84
		c3.213-3.213,8.423-3.213,11.636,0l11.636,11.636c3.213,3.213,3.213,8.423,0,11.636l-146.84,146.84
		C82.411,240.564,77.201,240.564,73.988,237.351z"/>
	<path style="fill:#374266;" d="M185.258,297.495l-11.636-11.636c-3.213-3.213-3.213-8.423,0-11.636l121.277-121.277
		c3.213-3.213,8.423-3.213,11.636,0l11.636,11.636c3.213,3.213,3.213,8.423,0,11.636L196.894,297.495
		C193.681,300.709,188.471,300.709,185.258,297.495z"/>
	<path style="fill:#374266;" d="M273.921,386.158l-11.636-11.636c-3.213-3.213-3.213-8.423,0-11.636l121.276-121.278
		c3.213-3.213,8.423-3.213,11.636,0l11.636,11.636c3.213,3.213,3.213,8.423,0,11.636L285.557,386.158
		C282.344,389.371,277.134,389.371,273.921,386.158z"/>
	<path style="fill:#374266;" d="M96.707,260.07L96.707,260.07c-3.213-3.213-3.213-8.423,0-11.636l146.839-146.84
		c3.213-3.213,8.423-3.213,11.636,0l0,0c3.213,3.213,3.213,8.423,0,11.636l-146.84,146.84
		C105.13,263.283,99.92,263.283,96.707,260.07z"/>
	<path style="fill:#374266;" d="M151.085,263.323L151.085,263.323c-3.213-3.213-3.213-8.423,0-11.636L272.362,130.41
		c3.213-3.213,8.423-3.213,11.636,0l0,0c3.213,3.213,3.213,8.423,0,11.636L162.721,263.323
		C159.508,266.536,154.298,266.536,151.085,263.323z"/>
	<path style="fill:#374266;" d="M204.283,316.519L204.283,316.519c-3.213-3.213-3.213-8.423,0-11.636L325.56,183.606
		c3.213-3.213,8.423-3.213,11.636,0l0,0c3.213,3.213,3.213,8.423,0,11.636L215.919,316.519
		C212.706,319.732,207.496,319.732,204.283,316.519z"/>
	<path style="fill:#374266;" d="M232.359,344.596L232.359,344.596c-3.213-3.213-3.213-8.423,0-11.636l121.277-121.277
		c3.213-3.213,8.423-3.213,11.636,0l0,0c3.213,3.213,3.213,8.423,0,11.636L243.995,344.596
		C240.782,347.81,235.572,347.81,232.359,344.596z"/>
	<path style="fill:#374266;" d="M293.684,405.921L293.684,405.921c-3.213-3.213-3.213-8.423,0-11.636l121.277-121.277
		c3.213-3.213,8.423-3.213,11.636,0l0,0c3.213,3.213,3.213,8.423,0,11.636L305.32,405.921
		C302.107,409.134,296.897,409.134,293.684,405.921z"/>
	<path style="fill:#374266;" d="M293.981,457.343L293.981,457.343c-3.213-3.213-3.213-8.423,0-11.636l146.84-146.84
		c3.213-3.213,8.423-3.213,11.636,0l0,0c3.213,3.213,3.213,8.423,0,11.636l-146.84,146.84
		C302.404,460.557,297.194,460.557,293.981,457.343z"/>
	<path style="fill:#374266;" d="M323.283,486.645L323.283,486.645c-3.213-3.213-3.213-8.423,0-11.636l146.84-146.839
		c3.213-3.213,8.423-3.213,11.636,0l0,0c3.213,3.213,3.213,8.423,0,11.636l-146.839,146.84
		C331.706,489.859,326.496,489.859,323.283,486.645z"/>
	<circle style="fill:#374266;" cx="131.344" cy="283.063" r="8.229"/>
	<circle style="fill:#374266;" cx="184.539" cy="336.259" r="8.229"/>
	<circle style="fill:#374266;" cx="212.94" cy="364.669" r="8.229"/>
	<circle style="fill:#374266;" cx="248.947" cy="400.666" r="8.229"/>
	<circle style="fill:#374266;" cx="274.369" cy="426.099" r="8.229"/>
	<circle style="fill:#374266;" cx="155.314" cy="307.043" r="8.229"/>
</g>
<g>
</g>
<g>
</g>
<g>
</g>
<g>
</g>
<g>
</g>
<g>
</g>
<g>
</g>
<g>
</g>
<g>
</g>
<g>
</g>
<g>
</g>
<g>
</g>
<g>
</g>
<g>
</g>
<g>
</g>
</svg>
