<?xml version="1.0" encoding="iso-8859-1"?>
<!-- Generator: Adobe Illustrator 19.0.0, SVG Export Plug-In . SVG Version: 6.00 Build 0)  -->
<svg version="1.1" id="Capa_1" xmlns="http://www.w3.org/2000/svg" xmlns:xlink="http://www.w3.org/1999/xlink" x="0px" y="0px"
	 viewBox="0 0 512 512" style="enable-background:new 0 0 512 512;" xml:space="preserve">
<path style="fill:#FF526C;" d="M512,256c0,3.072-0.052,6.134-0.167,9.185c-1.651,46.926-15.935,90.645-39.56,127.843
	c-4.984,7.868-10.397,15.444-16.196,22.695c-21.358,26.718-47.95,49.058-78.232,65.473C341.619,500.84,300.116,512,256,512
	c-0.575,0-1.149,0-1.724-0.01c-90.269-0.596-169.451-47.909-214.559-118.972C14.566,353.405,0,306.395,0,256
	C0,114.615,114.615,0,256,0S512,114.615,512,256z"/>
<path style="fill:#FFE261;" d="M490.694,301.735c0,32.381-6.562,63.227-18.422,91.293c-4.984,7.868-10.397,15.444-16.196,22.695
	c-21.358,26.718-47.95,49.058-78.232,65.473C341.619,500.84,300.116,512,256,512c-0.575,0-1.149,0-1.724-0.01
	c-90.269-0.596-169.451-47.909-214.559-118.972c-11.86-28.066-18.411-58.911-18.411-91.282C21.305,172.116,126.38,67.041,256,67.041
	S490.694,172.116,490.694,301.735z"/>
<g>
	<path style="fill:#F58D2C;" d="M438.517,301.74c0,100.803-81.713,182.516-182.517,182.516c-5.891,0-11.716-0.282-17.456-0.834
		c92.618-8.782,165.06-86.77,165.06-181.683s-72.444-172.911-165.06-181.693c5.74-0.552,11.565-0.834,17.456-0.834
		C356.803,119.212,438.517,200.937,438.517,301.74z"/>
	<path style="fill:#F58D2C;" d="M260.402,278.311v-42.86c17.045,1.915,22.258,10.268,31.202,10.268
		c12.345,0,17.396-15.432,17.396-23.008c0-14.124-17.057-20.279-33.155-22.883v-16.185c0-8.439-6.842-15.281-15.28-15.281h-18.774
		c-8.439,0-15.28,6.841-15.28,15.281v17.726c-24.839,6.593-45.17,23.439-45.17,54.732c0,39.056,31.474,52.792,56.976,64.66v47.327
		c-22.429-2.307-30.596-20.522-42.947-20.522c-10.662,0-19.079,14.028-19.079,23.567c0,15.495,21.636,30.554,50.221,35.072v13.632
		c0,8.439,6.841,15.28,15.28,15.28h18.774c8.439,0,15.28-6.841,15.28-15.28V402.16c23.251-8.788,38.206-28.099,38.206-56.84
		C314.05,305.072,285.232,289.465,260.402,278.311z M225.111,251.89c0-6.085,3.99-11.892,13.206-14.833v30.938
		C230.369,263.551,225.111,258.707,225.111,251.89z M260.402,364.708v-31.857c6.053,4.604,9.878,9.924,9.878,16.958
		C270.281,357.012,266.186,361.805,260.402,364.708z"/>
</g>
<path style="fill:#FCCF67;" d="M281.893,278.311v-42.86c17.045,1.915,22.258,10.268,31.202,10.268
	c12.345,0,17.397-15.432,17.397-23.008c0-14.124-17.057-20.279-33.155-22.883v-16.185c0-8.439-6.842-15.281-15.28-15.281h-18.774
	c-8.439,0-15.28,6.841-15.28,15.281v17.726c-24.839,6.593-45.17,23.439-45.17,54.732c0,39.056,31.474,52.792,56.976,64.66v47.327
	c-22.429-2.307-30.596-20.522-42.947-20.522c-10.662,0-19.079,14.028-19.079,23.567c0,15.495,21.636,30.554,50.221,35.072v13.632
	c0,8.439,6.841,15.28,15.28,15.28h18.774c8.439,0,15.28-6.841,15.28-15.28V402.16c23.251-8.788,38.206-28.099,38.206-56.84
	C335.541,305.072,306.722,289.465,281.893,278.311z M246.601,251.89c0-6.085,3.99-11.892,13.206-14.833v30.938
	C251.859,263.551,246.601,258.707,246.601,251.89z M281.893,364.708v-31.857c6.053,4.604,9.878,9.924,9.878,16.958
	C291.771,357.012,287.676,361.805,281.893,364.708z"/>
<g>
</g>
<g>
</g>
<g>
</g>
<g>
</g>
<g>
</g>
<g>
</g>
<g>
</g>
<g>
</g>
<g>
</g>
<g>
</g>
<g>
</g>
<g>
</g>
<g>
</g>
<g>
</g>
<g>
</g>
</svg>
