<?xml version="1.0" encoding="iso-8859-1"?>
<!-- Generator: Adobe Illustrator 19.0.0, SVG Export Plug-In . SVG Version: 6.00 Build 0)  -->
<svg version="1.1" id="Capa_1" xmlns="http://www.w3.org/2000/svg" xmlns:xlink="http://www.w3.org/1999/xlink" x="0px" y="0px"
	 viewBox="0 0 512 512" style="enable-background:new 0 0 512 512;" xml:space="preserve">
<path style="fill:#374266;" d="M512,256c0,137.634-108.617,249.898-244.809,255.749C263.481,511.916,259.751,512,256,512
	c-3.762,0-7.492-0.084-11.212-0.251c-78.137-3.365-147.184-41.754-191.864-99.861c-10.041-13.061-18.85-27.115-26.258-41.994
	C9.603,335.59,0,296.908,0,256c0-66.779,25.569-127.603,67.469-173.171c13.772-14.994,29.309-28.338,46.289-39.706
	C154.436,15.882,203.358,0,256,0C397.385,0,512,114.615,512,256z"/>
<path style="fill:#FFE261;" d="M318.986,395.651c0,19.696-3.647,38.536-10.303,55.881c-8.934,23.27-23.27,43.865-41.493,60.217
	C263.481,511.916,259.751,512,256,512c-3.762,0-7.492-0.084-11.212-0.251c-18.213-16.353-32.549-36.948-41.482-60.217
	c-6.656-17.345-10.303-36.185-10.303-55.881c0-9.874,0.909-19.54,2.664-28.912c12.466-66.476,108.189-66.476,120.654,0
	C318.077,376.111,318.986,385.776,318.986,395.651z"/>
<path style="fill:#FF526C;" d="M212.12,371.746c0-6.882,0.639-13.613,1.861-20.138c8.678-46.297,75.352-46.297,84.03,0
	c1.221,6.525,1.861,13.258,1.861,20.138c0,13.714-2.54,26.834-7.181,38.914c-7.44,19.403-20.289,36.126-36.697,48.332
	c-16.409-12.205-29.253-28.93-36.693-48.332C214.66,398.581,212.12,385.461,212.12,371.746z"/>
<path style="fill:#FFE261;" d="M98.9,381.67c0,5.768-4.681,10.449-10.449,10.449H63.373c-5.768,0-10.449,4.681-10.449,10.449v9.32
	c-10.041-13.061-18.85-27.115-26.258-41.994c3.197-1.776,5.36-5.204,5.36-9.122v-25.078c0-2.884,1.17-5.496,3.062-7.387
	s4.504-3.062,7.387-3.062c5.768,0,10.449,4.681,10.449,10.449v25.078c0,5.768,4.681,10.449,10.449,10.449h25.078
	c2.884,0,5.496,1.17,7.387,3.062C97.729,376.174,98.9,378.786,98.9,381.67z"/>
<g>
	<path style="fill:#FF526C;" d="M149.231,225.343c0,0-62.213,97.813-24.597,170.956c0,0,45.976-54.335,106.58-54.335
		L149.231,225.343z"/>
	<path style="fill:#FF526C;" d="M362.758,225.343c0,0,62.213,97.813,24.597,170.956c0,0-45.976-54.335-106.58-54.335
		L362.758,225.343z"/>
</g>
<path style="fill:#EBEBF2;" d="M369.319,225.343c0,17.774-1.651,35.161-4.807,52.015c-22.413,119.578-194.623,119.578-217.036,0
	c-3.156-16.854-4.807-34.241-4.807-52.015c0-35.422,6.562-69.308,18.547-100.509C180.433,74.721,213.619,31.525,256,0
	c42.381,31.525,75.557,74.721,94.772,124.834C362.757,156.035,369.319,189.921,369.319,225.343z"/>
<path style="fill:#C5C6E0;" d="M256,367.041c-48.661,0-97.322-29.895-108.523-89.684c-3.156-16.854-4.807-34.241-4.807-52.015
	c0-35.422,6.562-69.308,18.547-100.509C180.433,74.721,213.619,31.525,256,0c-21.107,31.525-37.627,74.721-47.188,124.834
	c-5.966,31.201-9.237,65.087-9.237,100.509c0,17.774,0.825,35.161,2.393,52.015C207.548,337.147,231.769,367.041,256,367.041z"/>
<path style="fill:#FF526C;" d="M350.772,124.834c-26.311,20.02-59.152,31.901-94.772,31.901c-17.889,0-35.067-2.999-51.075-8.516
	c-15.882-5.465-30.605-13.416-43.708-23.385C180.433,74.721,213.619,31.525,256,0C298.381,31.525,331.557,74.721,350.772,124.834z"
	/>
<path style="fill:#E83150;" d="M256,0c-21.107,31.525-37.627,74.721-47.188,124.834c-1.463,7.638-2.759,15.433-3.887,23.385
	c-15.882-5.465-30.605-13.416-43.708-23.385C180.433,74.721,213.619,31.525,256,0z"/>
<path style="fill:#1B79CF;" d="M308.245,236.429c0,26.54-21.514,48.065-48.065,48.065c-5.883,0-11.515-1.055-16.718-2.988
	c-18.307-6.792-31.347-24.419-31.347-45.077c0-26.551,21.514-48.065,48.065-48.065c7.137,0,13.897,1.557,19.989,4.347
	C296.741,200.286,308.245,217.015,308.245,236.429z"/>
<g>
	<path style="fill:#FFE261;" d="M479.608,168.511h-25.078c-5.771,0-10.449-4.678-10.449-10.449v-25.078
		c0-5.771-4.678-10.449-10.449-10.449l0,0c-5.771,0-10.449,4.678-10.449,10.449v25.078c0,5.771-4.678,10.449-10.449,10.449h-25.078
		c-5.771,0-10.449,4.678-10.449,10.449l0,0c0,5.771,4.678,10.449,10.449,10.449h25.078c5.771,0,10.449,4.678,10.449,10.449v25.078
		c0,5.771,4.678,10.449,10.449,10.449l0,0c5.771,0,10.449-4.678,10.449-10.449v-25.078c0-5.771,4.678-10.449,10.449-10.449h25.078
		c5.771,0,10.449-4.678,10.449-10.449l0,0C490.057,173.189,485.379,168.511,479.608,168.511z"/>
	<path style="fill:#FFE261;" d="M159.734,72.38c0,5.768-4.681,10.449-10.449,10.449h-25.078c-5.778,0-10.449,4.681-10.449,10.449
		v25.078c0,2.884-1.17,5.496-3.062,7.387s-4.504,3.062-7.387,3.062c-5.778,0-10.449-4.681-10.449-10.449V93.278
		c0-5.768-4.681-10.449-10.449-10.449H67.469c13.772-14.994,29.309-28.338,46.289-39.706v8.359c0,5.768,4.671,10.449,10.449,10.449
		h25.078c2.884,0,5.496,1.17,7.387,3.062C158.563,66.884,159.734,69.496,159.734,72.38z"/>
</g>
<path style="fill:#65A3E6;" d="M308.245,236.429c0,26.54-21.514,48.065-48.065,48.065c-5.883,0-11.515-1.055-16.718-2.988
	l36.707-88.795C296.741,200.286,308.245,217.015,308.245,236.429z"/>
<g>
</g>
<g>
</g>
<g>
</g>
<g>
</g>
<g>
</g>
<g>
</g>
<g>
</g>
<g>
</g>
<g>
</g>
<g>
</g>
<g>
</g>
<g>
</g>
<g>
</g>
<g>
</g>
<g>
</g>
</svg>
