<?xml version="1.0" encoding="iso-8859-1"?>
<!-- Generator: Adobe Illustrator 19.0.0, SVG Export Plug-In . SVG Version: 6.00 Build 0)  -->
<svg version="1.1" id="Capa_1" xmlns="http://www.w3.org/2000/svg" xmlns:xlink="http://www.w3.org/1999/xlink" x="0px" y="0px"
	 viewBox="0 0 512 512" style="enable-background:new 0 0 512 512;" xml:space="preserve">
<path style="fill:#1AB0AE;" d="M512,256c0,57.783-19.143,111.114-51.44,153.955c-7.272,9.634-15.193,18.735-23.719,27.241
	c-23.97,23.928-52.663,43.123-84.553,56.08c-11.17,4.535-22.747,8.317-34.638,11.243C297.9,509.409,277.253,512,256,512
	c-21.264,0-41.911-2.591-61.659-7.481c-11.891-2.936-23.468-6.708-34.638-11.254c-31.89-12.946-60.573-32.141-84.543-56.069
	c-8.526-8.505-16.457-17.617-23.719-27.251C19.143,367.104,0,313.783,0,256C0,114.615,114.615,0,256,0S512,114.615,512,256z"/>
<path style="fill:#FF526C;" d="M460.56,409.955c-7.272,9.634-15.193,18.735-23.719,27.241l-54.711,9.561l-29.842,46.519
	c-11.17,4.535-22.747,8.317-34.638,11.243L256,411.773l-61.659,92.745c-11.891-2.936-23.468-6.708-34.638-11.254l-29.842-46.508
	l-54.7-9.561c-8.526-8.505-16.457-17.617-23.719-27.251l56.519-85.023l73.174-110.08L256,264.61l74.857-49.768l73.174,110.08
	l20.365,30.636L460.56,409.955z"/>
<path style="fill:#E83150;" d="M404.031,324.921c-31.702,48.044-86.173,79.736-148.031,79.736
	c-61.868,0-116.339-31.692-148.041-79.736l73.174-110.08L256,264.61l74.857-49.768L404.031,324.921z"/>
<circle style="fill:#FFE261;" cx="256" cy="187.705" r="177.246"/>
<path style="fill:#F58D2C;" d="M255.997,47.901c-4.756,0-9.457,0.24-14.093,0.703c70.591,7.067,125.707,66.644,125.707,139.097
	S312.496,319.73,241.904,326.798c4.635,0.464,9.335,0.703,14.093,0.703c77.21,0,139.8-62.59,139.8-139.8
	S333.206,47.901,255.997,47.901z"/>
<g>
	
		<rect x="345.086" y="317.146" transform="matrix(-0.5518 -0.834 0.834 -0.5518 211.7083 919.4374)" style="fill:#FFE261;" width="15.674" height="171.367"/>
	
		<rect x="73.223" y="395.007" transform="matrix(-0.834 -0.5518 0.5518 -0.834 69.1462 826.4921)" style="fill:#FFE261;" width="171.367" height="15.674"/>
</g>
<path style="fill:#F58D2C;" d="M261.85,100.06l11.394,45.286c1.251,2.533,3.667,4.289,6.463,4.696l44.723,6.498
	c7.039,1.023,9.851,9.675,4.756,14.64l-32.362,31.544c-2.023,1.972-2.946,4.813-2.468,7.597l17.321,54.224
	c0,0-15.839,2.677-22.135-0.634l-40.001-21.03c-2.5-1.314-5.488-1.314-7.988,0l-29.882,21.883c-6.297,3.31-23.776-2.89-22.573-9.901
	l7.639-44.542c0.478-2.785-0.445-5.626-2.468-7.597l-32.362-31.544c-5.094-4.965-2.283-13.617,4.756-14.64l44.723-6.498
	c2.795-0.406,5.212-2.162,6.463-4.696l20-40.525C240.998,98.442,261.85,100.06,261.85,100.06z"/>
<path style="fill:#FCCF67;" d="M268.918,104.821l20,40.525c1.251,2.533,3.667,4.289,6.463,4.696l44.723,6.498
	c7.039,1.023,9.851,9.675,4.756,14.64l-32.362,31.544c-2.023,1.972-2.946,4.813-2.468,7.597l7.639,44.542
	c1.203,7.011-6.157,12.358-12.453,9.048l-40.001-21.03c-2.5-1.314-5.488-1.314-7.988,0l-40.001,21.03
	c-6.297,3.31-13.656-2.037-12.453-9.048l7.639-44.542c0.478-2.785-0.445-5.626-2.468-7.597l-32.362-31.544
	c-5.094-4.965-2.283-13.617,4.756-14.64l44.723-6.498c2.795-0.406,5.212-2.162,6.463-4.696l20-40.525
	C256.673,98.442,265.77,98.442,268.918,104.821z"/>
<g>
</g>
<g>
</g>
<g>
</g>
<g>
</g>
<g>
</g>
<g>
</g>
<g>
</g>
<g>
</g>
<g>
</g>
<g>
</g>
<g>
</g>
<g>
</g>
<g>
</g>
<g>
</g>
<g>
</g>
</svg>
