<?xml version="1.0" encoding="iso-8859-1"?>
<!-- Generator: Adobe Illustrator 19.0.0, SVG Export Plug-In . SVG Version: 6.00 Build 0)  -->
<svg version="1.1" id="Capa_1" xmlns="http://www.w3.org/2000/svg" xmlns:xlink="http://www.w3.org/1999/xlink" x="0px" y="0px"
	 viewBox="0 0 512 512" style="enable-background:new 0 0 512 512;" xml:space="preserve">
<circle style="fill:#374266;" cx="256" cy="256" r="256"/>
<path style="fill:#FFE261;" d="M391.38,203.179L264.626,36.868L137.871,203.179l-12.466-9.501l132.987-174.49
	c1.482-1.945,3.788-3.087,6.233-3.087s4.75,1.141,6.233,3.087l132.987,174.49L391.38,203.179z"/>
<g>
	<path style="fill:#FF526C;" d="M495.417,230.514c0-23.197-18.808-42.015-42.015-42.015h-40.741H112.703H71.952
		c-23.197,0-42.015,18.819-42.015,42.015v145.711c13.918,26.133,32.246,49.56,53.979,69.308h28.787h299.959h15.423
		c2.242-2.038,4.436-4.127,6.604-6.241c0.01-0.006,0.021-0.011,0.03-0.018c6.269-3.866,11.442-9.352,14.952-15.862
		c0.006-0.013,0.011-0.025,0.019-0.038c19.416-22.448,35.006-48.293,45.727-76.534V230.514H495.417z"/>
	<circle style="fill:#FF526C;" cx="264.62" cy="47.969" r="34.48"/>
</g>
<g>
	<path style="fill:#F2F2F7;" d="M94.426,280.93c-7.534,0-11.895,4.229-11.895,13.217v35.023c0,8.987,4.361,13.217,12.027,13.217
		c10.573,0,11.234-8.062,11.63-13.217c0.397-4.89,4.89-6.212,10.177-6.212c7.137,0,10.441,1.85,10.441,9.78
		c0,17.577-14.274,27.622-33.172,27.622c-17.314,0-31.719-8.458-31.719-31.19v-35.023c0-22.732,14.406-31.19,31.719-31.19
		c18.899,0,33.172,9.516,33.172,26.3c0,7.931-3.304,9.78-10.309,9.78c-5.55,0-10.045-1.453-10.309-6.212
		C106.056,289.389,105.66,280.93,94.426,280.93z"/>
	<path style="fill:#F2F2F7;" d="M159.455,359.568c-4.494,0-8.987-2.115-8.987-6.344v-84.056c0-4.361,5.154-6.212,10.309-6.212
		s10.308,1.85,10.308,6.212v72.425h30.134c3.965,0,5.948,4.494,5.948,8.987c0,4.494-1.982,8.987-5.948,8.987L159.455,359.568
		L159.455,359.568z"/>
	<path style="fill:#F2F2F7;" d="M226.201,329.171v-35.023c0-22.732,14.142-31.19,32.38-31.19c18.238,0,32.512,8.458,32.512,31.19
		v35.023c0,22.732-14.274,31.19-32.512,31.19C240.342,360.361,226.201,351.903,226.201,329.171z M270.475,294.147
		c0-9.119-4.493-13.217-11.894-13.217c-7.401,0-11.762,4.097-11.762,13.217v35.023c0,9.119,4.361,13.217,11.762,13.217
		c7.401,0,11.894-4.097,11.894-13.217V294.147z"/>
	<path style="fill:#F2F2F7;" d="M357.177,333.664c0-15.991-41.895-13.217-41.895-44.142c0-19.825,17.313-27.358,33.834-27.358
		c7.005,0,26.3,1.322,26.3,11.63c0,3.568-2.378,10.838-8.194,10.838c-4.758,0-7.269-5.022-18.107-5.022
		c-9.383,0-13.217,3.833-13.217,7.93c0,13.217,41.896,10.705,41.896,44.01c0,19.032-13.877,29.341-33.041,29.341
		c-17.314,0-31.852-8.458-31.852-17.181c0-4.494,3.964-11.102,8.986-11.102c6.212,0,10.177,9.78,22.467,9.78
		C350.438,342.387,357.177,340.008,357.177,333.664z"/>
	<path style="fill:#F2F2F7;" d="M421.808,303.266h19.825c3.965,0,6.212,3.833,6.212,8.062c0,3.568-1.852,7.798-6.212,7.798h-19.825
		v22.467h35.42c3.965,0,6.212,4.229,6.212,9.119c0,4.23-1.852,8.856-6.212,8.856h-47.05c-4.493,0-8.987-2.115-8.987-6.344v-83.923
		c0-4.23,4.494-6.344,8.987-6.344h47.05c4.361,0,6.212,4.626,6.212,8.855c0,4.889-2.248,9.119-6.212,9.119h-35.42L421.808,303.266
		L421.808,303.266z"/>
</g>
<g>
</g>
<g>
</g>
<g>
</g>
<g>
</g>
<g>
</g>
<g>
</g>
<g>
</g>
<g>
</g>
<g>
</g>
<g>
</g>
<g>
</g>
<g>
</g>
<g>
</g>
<g>
</g>
<g>
</g>
</svg>
