<?xml version="1.0" encoding="iso-8859-1"?>
<!-- Generator: Adobe Illustrator 19.0.0, SVG Export Plug-In . SVG Version: 6.00 Build 0)  -->
<svg version="1.1" id="Capa_1" xmlns="http://www.w3.org/2000/svg" xmlns:xlink="http://www.w3.org/1999/xlink" x="0px" y="0px"
	 viewBox="0 0 512 512" style="enable-background:new 0 0 512 512;" xml:space="preserve">
<path style="fill:#374266;" d="M512,256c0,31.984-5.862,62.61-16.583,90.843c-5.423,14.273-12.079,27.941-19.853,40.856
	c-7.607,12.654-16.29,24.597-25.893,35.715c-0.658,0.763-1.317,1.515-1.996,2.267c-4.148,4.692-8.464,9.226-12.957,13.594
	c-2.173,2.132-4.389,4.211-6.635,6.259C382.621,486.839,322.257,512,256,512s-126.621-25.161-172.084-66.466
	c-21.734-19.749-40.061-43.175-53.979-69.308C10.825,340.375,0,299.447,0,256C0,114.615,114.615,0,256,0S512,114.615,512,256z"/>
<path style="fill:#FFE261;" d="M391.38,203.18L264.626,36.869L137.871,203.18l-12.466-9.501L258.393,19.19
	c1.482-1.945,3.788-3.087,6.233-3.087s4.75,1.141,6.233,3.087l132.987,174.49L391.38,203.18z"/>
<g>
	<path style="fill:#58D1C1;" d="M495.417,230.515c0-23.197-18.808-42.015-42.015-42.015h-40.741H112.703H71.952
		c-23.197,0-42.015,18.819-42.015,42.015v145.711c13.918,26.133,32.246,49.559,53.979,69.308h28.787h299.959h15.423
		c2.242-2.038,4.436-4.127,6.604-6.241c0.01-0.006,0.021-0.011,0.03-0.018c6.269-3.866,11.442-9.352,14.952-15.862
		c0.006-0.013,0.011-0.025,0.019-0.038c19.416-22.448,35.006-48.293,45.727-76.534V230.515H495.417z"/>
	<circle style="fill:#58D1C1;" cx="264.62" cy="47.97" r="34.48"/>
</g>
<g>
	<path style="fill:#F2F2F7;" d="M103.726,336.195V302.63c0-21.785,13.552-29.891,31.031-29.891s31.158,8.106,31.158,29.891v33.565
		c0,21.785-13.679,29.89-31.158,29.89C117.278,366.085,103.726,357.979,103.726,336.195z M146.156,302.63
		c0-8.74-4.306-12.666-11.399-12.666c-7.093,0-11.273,3.927-11.273,12.666v33.565c0,8.74,4.18,12.665,11.273,12.665
		c7.094,0,11.399-3.926,11.399-12.665V302.63z"/>
	<path style="fill:#F2F2F7;" d="M191.243,278.691c0-3.166,2.913-5.953,7.347-5.953h26.219c16.718,0,29.891,7.853,29.891,29.132
		v0.633c0,21.278-13.679,29.385-31.158,29.385h-12.539v27.359c0,4.053-4.94,6.079-9.88,6.079s-9.88-2.026-9.88-6.079v-80.555
		H191.243z M211.003,289.963v26.725h12.539c7.093,0,11.4-4.053,11.4-12.666v-1.393c0-8.613-4.307-12.666-11.4-12.666
		L211.003,289.963L211.003,289.963z"/>
	<path style="fill:#F2F2F7;" d="M295.733,311.369h18.998c3.799,0,5.953,3.674,5.953,7.727c0,3.419-1.773,7.472-5.953,7.472h-18.998
		V348.1h33.943c3.8,0,5.953,4.053,5.953,8.74c0,4.053-1.773,8.487-5.953,8.487h-45.089c-4.307,0-8.613-2.026-8.613-6.079v-80.428
		c0-4.053,4.307-6.079,8.613-6.079h45.089c4.18,0,5.953,4.434,5.953,8.487c0,4.686-2.154,8.74-5.953,8.74h-33.943V311.369z"/>
	<path style="fill:#F2F2F7;" d="M400.729,360.006l-24.065-43.823v43.063c0,4.053-4.94,6.079-9.879,6.079
		c-4.939,0-9.88-2.026-9.88-6.079v-80.428c0-4.18,4.94-6.079,9.88-6.079c7.093,0,9.752,0.633,14.566,9.879l20.519,39.138v-43.063
		c0-4.18,4.94-5.953,9.879-5.953s9.879,1.773,9.879,5.953v80.554c0,4.053-4.94,6.079-9.879,6.079
		C407.188,365.326,403.135,364.438,400.729,360.006z"/>
</g>
<g>
</g>
<g>
</g>
<g>
</g>
<g>
</g>
<g>
</g>
<g>
</g>
<g>
</g>
<g>
</g>
<g>
</g>
<g>
</g>
<g>
</g>
<g>
</g>
<g>
</g>
<g>
</g>
<g>
</g>
</svg>
