<?xml version="1.0" encoding="iso-8859-1"?>
<!-- Generator: Adobe Illustrator 19.0.0, SVG Export Plug-In . SVG Version: 6.00 Build 0)  -->
<svg version="1.1" id="Capa_1" xmlns="http://www.w3.org/2000/svg" xmlns:xlink="http://www.w3.org/1999/xlink" x="0px" y="0px"
	 viewBox="0 0 512 512" style="enable-background:new 0 0 512 512;" xml:space="preserve">
<path style="fill:#65A3E6;" d="M511.681,256.319c0,60.351-20.903,115.818-55.895,159.545c-0.261,0.334-0.522,0.668-0.793,1.002
	C408.125,474.89,336.399,512,256,512c-76.443,0-145.06-33.552-191.917-86.744c-0.292-0.334-0.595-0.668-0.887-1.012
	C24.03,379.328,0.319,320.584,0.319,256.319c0-61.061,21.394-117.123,57.126-161.089c0.386-0.47,0.772-0.95,1.158-1.419
	c13.953-16.938,30.045-32.038,47.859-44.906c6.846-4.936,13.942-9.549,21.268-13.807C165.426,13.183,209.247,0.639,256,0.639
	c18.409,0,36.369,1.941,53.672,5.646c8.338,1.785,16.531,3.976,24.556,6.543c45.073,14.464,84.698,41.107,114.983,76.047
	c0.417,0.47,0.835,0.95,1.242,1.43C488.638,134.97,511.681,192.963,511.681,256.319z"/>
<path style="fill:#F2F2F7;" d="M455.786,415.864c-0.261,0.334-0.522,0.668-0.793,1.002C408.125,474.89,336.399,512,256,512
	c-76.443,0-145.06-33.552-191.917-86.744c9.789-106.833,7.952-214.469-5.479-321.01c-0.376-3.006-0.762-6.011-1.158-9.017
	c-0.647-4.884-1.315-9.768-2.014-14.642c-1.816-12.805,6.961-24.702,19.734-26.726c10.436-1.649,20.861-3.308,31.297-4.957
	c7.086-1.127,14.182-2.244,21.268-3.371c60.643-9.601,121.287-19.202,181.94-28.814c8.182-1.294,16.374-2.599,24.556-3.893
	c26.393-4.174,52.775-8.349,79.167-12.534c13.055-2.066,25.255,6.971,27.154,20.058c3.308,22.803,6.199,45.647,8.662,68.522
	c0.428,3.955,0.845,7.91,1.242,11.866C461.077,205.475,462.861,310.889,455.786,415.864z"/>
<path style="fill:#FF526C;" d="M411.297,314.875c0,18.012-3.225,35.263-9.121,51.23c-4.456,12.074-10.436,23.408-17.72,33.76
	c-26.768,38.06-71.017,62.929-121.088,62.929c-81.693,0-147.919-66.227-147.919-147.919s66.227-147.919,147.919-147.919
	c32.831,0,63.169,10.697,87.714,28.803C387.608,222.695,411.297,266.014,411.297,314.875z"/>
<path style="fill:#FFE261;" d="M402.176,366.106c-4.456,12.074-10.436,23.408-17.72,33.76
	c-26.768,38.06-71.017,62.929-121.088,62.929c-81.693,0-147.919-66.227-147.919-147.919h147.919L402.176,366.106z"/>
<path style="fill:#58D1C1;" d="M411.297,314.875c0,31.631-9.935,60.946-26.841,84.99l-121.088-84.99l87.714-119.116
	C387.608,222.695,411.297,266.014,411.297,314.875z"/>
<g>
	<path style="fill:#374266;" d="M224.973,88.144l-112.222,19.695c-7.92,1.39-15.466-3.903-16.856-11.823l0,0
		c-1.39-7.92,3.903-15.466,11.823-16.856L219.94,59.465c7.92-1.39,15.466,3.903,16.856,11.823l0,0
		C238.186,79.208,232.893,86.755,224.973,88.144z"/>
	<path style="fill:#374266;" d="M276.034,126.913L117.815,154.68c-7.92,1.39-15.466-3.903-16.856-11.823l0,0
		c-1.39-7.92,3.903-15.466,11.823-16.856l158.219-27.767c7.92-1.39,15.466,3.903,16.856,11.823l0,0
		C289.247,117.976,283.954,125.524,276.034,126.913z"/>
</g>
<g>
</g>
<g>
</g>
<g>
</g>
<g>
</g>
<g>
</g>
<g>
</g>
<g>
</g>
<g>
</g>
<g>
</g>
<g>
</g>
<g>
</g>
<g>
</g>
<g>
</g>
<g>
</g>
<g>
</g>
</svg>
