<?xml version="1.0" encoding="iso-8859-1"?>
<!-- Generator: Adobe Illustrator 19.0.0, SVG Export Plug-In . SVG Version: 6.00 Build 0)  -->
<svg version="1.1" id="Capa_1" xmlns="http://www.w3.org/2000/svg" xmlns:xlink="http://www.w3.org/1999/xlink" x="0px" y="0px"
	 viewBox="0 0 512 512" style="enable-background:new 0 0 512 512;" xml:space="preserve">
<path style="fill:#374266;" d="M512,256c0,46.08-12.173,89.328-33.499,126.683c-26.906,47.166-68.388,84.95-118.313,107.227
	c-31.827,14.2-67.082,22.089-104.186,22.089C114.617,511.998,0.003,397.384,0.003,256S114.617,0.002,256.001,0.002
	S512,114.615,512,256z"/>
<g>
	<path style="fill:#FFE261;" d="M119.313,6.079l25.403,51.472c1.588,3.217,4.657,5.448,8.209,5.963l56.803,8.254
		c8.942,1.299,12.513,12.288,6.042,18.595l-41.103,40.066c-2.569,2.505-3.742,6.113-3.136,9.65l9.703,56.574
		c1.528,8.906-7.82,15.697-15.818,11.493l-50.807-26.711c-3.175-1.67-6.97-1.67-10.146,0l-50.807,26.711
		c-7.998,4.205-17.345-2.587-15.818-11.493l9.703-56.574c0.606-3.537-0.566-7.145-3.136-9.65L3.304,90.364
		c-6.47-6.307-2.9-17.295,6.042-18.595l56.803-8.254c3.551-0.516,6.62-2.746,8.209-5.963L99.761,6.079
		C103.76-2.023,115.314-2.023,119.313,6.079z"/>
	<path style="fill:#FFE261;" d="M278.355,165.12l25.403,51.472c1.588,3.217,4.657,5.448,8.209,5.963l56.803,8.254
		c8.942,1.299,12.513,12.288,6.042,18.595l-41.103,40.065c-2.569,2.505-3.742,6.113-3.136,9.65l9.703,56.574
		c1.528,8.906-7.82,15.697-15.818,11.493l-50.807-26.711c-3.175-1.67-6.97-1.67-10.146,0l-50.807,26.711
		c-7.998,4.205-17.345-2.587-15.818-11.493l9.703-56.574c0.606-3.537-0.566-7.145-3.136-9.65l-41.103-40.065
		c-6.47-6.307-2.9-17.296,6.042-18.595l56.803-8.254c3.551-0.516,6.62-2.746,8.209-5.963l25.403-51.472
		C262.802,157.018,274.356,157.018,278.355,165.12z"/>
	<path style="fill:#FFE261;" d="M478.501,382.682c-26.906,47.166-68.388,84.95-118.313,107.227l5.444-31.744
		c0.606-3.542-0.575-7.147-3.145-9.655l-41.096-40.061c-6.468-6.311-2.905-17.293,6.039-18.599l56.8-8.255
		c3.553-0.512,6.625-2.738,8.213-5.956l25.401-51.471c4.002-8.108,15.548-8.108,19.55,0l25.401,51.471
		c1.588,3.218,4.66,5.444,8.213,5.956L478.501,382.682z"/>
</g>
<g>
</g>
<g>
</g>
<g>
</g>
<g>
</g>
<g>
</g>
<g>
</g>
<g>
</g>
<g>
</g>
<g>
</g>
<g>
</g>
<g>
</g>
<g>
</g>
<g>
</g>
<g>
</g>
<g>
</g>
</svg>
