<?xml version="1.0" encoding="iso-8859-1"?>
<!-- Generator: Adobe Illustrator 19.0.0, SVG Export Plug-In . SVG Version: 6.00 Build 0)  -->
<svg version="1.1" id="Capa_1" xmlns="http://www.w3.org/2000/svg" xmlns:xlink="http://www.w3.org/1999/xlink" x="0px" y="0px"
	 viewBox="0 0 512 512" style="enable-background:new 0 0 512 512;" xml:space="preserve">
<path style="fill:#374266;" d="M512,256c0,124.813-89.328,228.77-207.538,251.423C288.768,510.422,272.572,512,256,512
	s-32.768-1.578-48.462-4.577C89.328,484.77,0,380.813,0,256C0,114.615,114.615,0,256,0S512,114.615,512,256z"/>
<path style="fill:#FF526C;" d="M405.086,406.8L304.462,507.423C288.768,510.422,272.572,512,256,512s-32.768-1.578-48.462-4.577
	L106.904,406.8c-82.338-82.338-82.338-215.834,0-298.172h0.01c82.338-82.348,215.834-82.348,298.172,0
	C487.424,190.966,487.424,324.462,405.086,406.8z"/>
<circle style="fill:#E83150;" cx="256.919" cy="256" r="131.709"/>
<circle style="fill:#F2F2F7;" cx="256.919" cy="256" r="112.567"/>
<path style="fill:#E3E7FC;" d="M187.192,256.001c0-54.844,39.223-100.519,91.147-110.523c-6.936-1.336-14.095-2.045-21.42-2.045
	c-62.169,0-112.568,50.399-112.568,112.568s50.399,112.568,112.568,112.568c7.326,0,14.484-0.708,21.42-2.045
	C226.417,356.52,187.192,310.845,187.192,256.001z"/>
<g>
</g>
<g>
</g>
<g>
</g>
<g>
</g>
<g>
</g>
<g>
</g>
<g>
</g>
<g>
</g>
<g>
</g>
<g>
</g>
<g>
</g>
<g>
</g>
<g>
</g>
<g>
</g>
<g>
</g>
</svg>
