<?xml version="1.0" encoding="iso-8859-1"?>
<!-- Generator: Adobe Illustrator 19.0.0, SVG Export Plug-In . SVG Version: 6.00 Build 0)  -->
<svg version="1.1" id="Capa_1" xmlns="http://www.w3.org/2000/svg" xmlns:xlink="http://www.w3.org/1999/xlink" x="0px" y="0px"
	 viewBox="0 0 512 512" style="enable-background:new 0 0 512 512;" xml:space="preserve">
<path style="fill:#FF526C;" d="M512,256C512,114.615,397.385,0,256,0C169.9,0,93.727,42.506,47.344,107.677
	c-8.129,11.389-15.329,23.468-21.514,36.143c-7.053,14.43-12.779,29.623-17.021,45.422c-2.132,7.899-3.897,15.956-5.266,24.137
	C1.212,227.234,0,241.476,0,256c0,21.264,2.591,41.932,7.502,61.691c0.418,1.755,0.867,3.49,1.337,5.224
	C38.254,431.846,137.77,512,256,512C397.385,512,512,397.385,512,256z"/>
<path style="fill:#65A3E6;" d="M84.793,317.691V107.677H47.344c-8.129,11.389-15.329,23.468-21.514,36.143
	c-7.053,14.43-12.779,29.623-17.021,45.422c-2.132,7.899-3.897,15.956-5.266,24.137C1.212,227.234,0,241.476,0,256
	c0,21.264,2.591,41.932,7.502,61.691H84.793z"/>
<path style="fill:#1B79CF;" d="M84.793,189.241v-81.565H47.344c-8.129,11.389-15.329,23.468-21.514,36.143
	c-7.053,14.43-12.779,29.623-17.021,45.422H84.793z"/>
<rect x="65.985" y="94.616" style="fill:#65A3E6;" width="159.859" height="240.41"/>
<rect x="65.985" y="94.616" style="fill:#1B79CF;" width="159.859" height="77.834"/>
<path style="fill:#FFDCBF;" d="M452.684,236.116c-5.935-5.935-14.137-9.613-23.197-9.613h-9.874c9.059,0,17.262-3.678,23.197-9.592
	c5.945-5.956,9.624-14.158,9.624-23.228c0-0.742-0.021-1.463-0.073-2.184c-0.554-8.182-4.096-15.559-9.55-21.013
	c-5.935-5.935-14.137-9.613-23.197-9.613l-13.417-0.606c14.075,0,26.081-8.861,30.741-21.316c0.01-0.01,0.021-0.031,0.021-0.052
	c0.24-0.648,0.46-1.306,0.669-1.964c0.031-0.115,0.063-0.23,0.094-0.345c0.188-0.658,0.366-1.317,0.522-1.996
	c0.522-2.299,0.794-4.702,0.794-7.158c0-1.693-0.125-3.354-0.387-4.984c-0.042-0.272-0.084-0.543-0.136-0.815
	c-0.136-0.815-0.313-1.609-0.522-2.393c-1.484-5.757-4.504-10.919-8.579-15.005c-0.376-0.366-0.752-0.731-1.139-1.087
	c-0.773-0.7-1.588-1.369-2.424-1.996c-2.32-1.735-4.88-3.176-7.617-4.253c-0.491-0.199-0.993-0.376-1.494-0.554
	c-0.512-0.167-1.024-0.334-1.546-0.481c-2.863-0.815-5.883-1.254-8.997-1.254H161.783c4.137,0,75.486,0.01,75.151,0.021
	c-0.491,0-74.825,0.01-75.337,0.021c-0.46,0.01,0,59.382,0,76.351v49.027c0,0,0,57.145,0,97.75
	c-1.16,45.108,30.312,73.916,47.438,86.204c10.668,7.68,20.355,16.656,28.411,27.031c6.646,8.547,13.155,18.401,15.538,26.687
	c5.684,19.884,26.425,31.399,46.331,25.704c19.884-5.695,31.399-26.446,25.704-46.341c-7.178-25.057-19.989-59.193-37.334-79.653
	l131.762-0.261c9.038,0,17.241-3.657,23.197-9.613c5.935-5.935,9.613-14.137,9.613-23.197c0-16.217-11.776-29.686-27.241-32.34
	c-1.808-0.313-3.668-0.481-5.559-0.481h16.3c6.541-1.254,12.413-4.472,16.927-8.986c5.59-5.59,9.185-13.187,9.582-21.619
	c0.031-0.533,0.042-1.066,0.042-1.599C462.308,250.253,458.63,242.051,452.684,236.116z"/>
<g>
	<path style="fill:#FCBB8D;" d="M273.639,457.707c-2.382-8.286-8.892-18.139-15.538-26.687
		c-8.056-10.376-17.742-19.352-28.411-27.031c-17.126-12.288-48.598-41.096-47.438-86.204c0-40.605,0-97.75,0-97.75v-49.027
		c0-16.969-0.46-76.34,0-76.351c0.512-0.01,6.535-0.041,0.428-0.042h-0.242h-20.656c6.106,0.001,0.084,0.031-0.428,0.042
		c-0.46,0.01,0,59.382,0,76.351v49.027c0,0,0,57.145,0,97.75c-1.16,45.108,30.312,73.916,47.438,86.204
		c10.668,7.68,20.355,16.656,28.411,27.031c6.646,8.547,13.155,18.401,15.538,26.687c5.684,19.884,26.425,31.399,46.331,25.704
		c0.047-0.014,0.092-0.03,0.138-0.044C287.261,479.888,277.31,470.548,273.639,457.707z"/>
	<path style="fill:#FCBB8D;" d="M452.359,195.88c-0.553,8.182-4.091,15.552-9.546,21.008c-5.938,5.938-14.137,9.615-23.2,9.615
		l-13.412,0.604h-0.207c-7.492,0-13.499-6.232-13.153-13.706c0-0.12,0-0.242,0.017-0.363c0.345-6.974,6.145-12.446,13.136-12.446
		h30.641C442.434,200.592,447.837,198.848,452.359,195.88z"/>
	<path style="fill:#FCBB8D;" d="M438.943,129.644c-0.553,8.182-4.091,15.552-9.546,21.008c-5.938,5.938-14.137,9.615-23.2,9.615
		l-13.412,0.604h-0.207c-7.492,0-13.499-6.232-13.153-13.706c0-0.12,0-0.242,0.017-0.363c0.345-6.974,6.145-12.446,13.136-12.446
		h30.641C429.017,134.356,434.42,132.612,438.943,129.644z"/>
	<path style="fill:#FCBB8D;" d="M462.266,260.921c-0.397,8.432-3.992,16.029-9.582,21.619c-4.514,4.514-10.386,7.732-16.927,8.986
		h-16.3c1.891,0,3.751,0.167,5.559,0.481l-8.871,0.125h-0.209c-7.492,0-13.5-6.238-13.155-13.709c0-0.115,0-0.24,0.021-0.366
		c0.345-6.969,6.144-12.445,13.134-12.445h30.647C452.36,265.613,457.752,263.879,462.266,260.921z"/>
	<path style="fill:#FCBB8D;" d="M452.369,326.534c-0.553,8.182-4.091,15.552-9.546,21.008c-5.938,5.938-14.137,9.615-23.2,9.615
		l-13.412,0.604h-119.29c-7.492,0-13.499-6.232-13.153-13.706c0-0.12,0-0.242,0.017-0.363c0.345-6.974,6.145-12.446,13.136-12.446
		h149.722C442.442,331.246,447.845,329.503,452.369,326.534z"/>
</g>
<g>
</g>
<g>
</g>
<g>
</g>
<g>
</g>
<g>
</g>
<g>
</g>
<g>
</g>
<g>
</g>
<g>
</g>
<g>
</g>
<g>
</g>
<g>
</g>
<g>
</g>
<g>
</g>
<g>
</g>
</svg>
