<?xml version="1.0" encoding="iso-8859-1"?>
<!-- Generator: Adobe Illustrator 19.0.0, SVG Export Plug-In . SVG Version: 6.00 Build 0)  -->
<svg version="1.1" id="Capa_1" xmlns="http://www.w3.org/2000/svg" xmlns:xlink="http://www.w3.org/1999/xlink" x="0px" y="0px"
	 viewBox="0 0 512 512" style="enable-background:new 0 0 512 512;" xml:space="preserve">
<path style="fill:#1AB0AE;" d="M512,256c0,141.385-114.615,256-256,256c-86.1,0-162.273-42.506-208.656-107.677
	c-8.129-11.389-15.329-23.468-21.514-36.143c-7.053-14.43-12.779-29.623-17.021-45.422c-2.132-7.899-3.897-15.956-5.266-24.137
	C1.212,284.766,0,270.524,0,256c0-21.264,2.591-41.932,7.502-61.691c0.418-1.755,0.867-3.49,1.337-5.224
	C38.254,80.154,137.77,0,256,0C397.385,0,512,114.615,512,256z"/>
<path style="fill:#65A3E6;" d="M84.793,194.309v210.014H47.344c-8.129-11.389-15.329-23.468-21.514-36.143
	c-7.053-14.43-12.779-29.623-17.021-45.422c-2.132-7.899-3.897-15.956-5.266-24.137C1.212,284.766,0,270.524,0,256
	c0-21.264,2.591-41.932,7.502-61.691L84.793,194.309L84.793,194.309z"/>
<path style="fill:#1B79CF;" d="M84.793,322.759v81.565H47.344c-8.129-11.389-15.329-23.468-21.514-36.143
	c-7.053-14.43-12.779-29.623-17.021-45.422H84.793z"/>
<rect x="65.985" y="176.974" style="fill:#65A3E6;" width="159.859" height="240.41"/>
<rect x="65.985" y="339.55" style="fill:#1B79CF;" width="159.859" height="77.834"/>
<path style="fill:#FFDCBF;" d="M452.681,275.884c5.945-5.935,9.624-14.137,9.624-23.207s-3.678-17.272-9.624-23.218
	c-4.514-4.514-10.386-7.732-16.927-8.986h-16.3c18.108-0.021,32.799-14.712,32.799-32.82c0-9.059-3.678-17.262-9.613-23.197
	c-5.956-5.956-14.158-9.613-23.197-9.613l-131.762-0.261c17.345-20.459,30.156-54.596,37.334-79.653
	c5.695-19.895-5.82-40.647-25.704-46.341c-19.905-5.695-40.647,5.82-46.331,25.704c-2.382,8.286-8.892,18.139-15.538,26.687
	c-8.056,10.376-17.742,19.352-28.411,27.032c-17.126,12.288-48.598,41.096-47.438,86.204c0,40.605,0,97.75,0,97.75v49.027
	c0,16.969-0.46,76.34,0,76.351c0.519,0.011,74.846,0.02,75.341,0.025c0.348,0.004-75.69,0.017-75.341,0.017h244.6
	c3.114,0,6.134-0.439,8.997-1.254c0.522-0.146,1.034-0.313,1.546-0.481c0.502-0.178,1.003-0.355,1.494-0.554
	c2.738-1.076,5.298-2.518,7.617-4.253c0.836-0.627,1.651-1.296,2.424-1.996c0.387-0.355,0.763-0.721,1.139-1.087
	c4.075-4.086,7.095-9.247,8.579-15.005c0.209-0.784,0.387-1.578,0.522-2.393c0.052-0.272,0.094-0.543,0.136-0.815
	c0.261-1.63,0.387-3.291,0.387-4.984c0-2.456-0.272-4.859-0.794-7.158c-0.149-0.674-0.327-1.339-0.517-1.996
	c-0.032-0.113-0.065-0.227-0.098-0.34c-0.201-0.667-0.421-1.324-0.662-1.972c-0.006-0.018-0.014-0.036-0.021-0.053
	c-4.662-12.45-16.669-21.312-30.748-21.312l13.416-0.606c9.059,0,17.262-3.678,23.197-9.613c5.454-5.454,8.997-12.831,9.55-21.013
	c0.052-0.721,0.073-1.442,0.073-2.184c0-9.07-3.678-17.272-9.624-23.228c-5.935-5.914-14.137-9.592-23.197-9.592h9.874
	C438.544,285.497,446.746,281.819,452.681,275.884z"/>
<g>
	<path style="fill:#FCBB8D;" d="M438.234,377.407c-0.146-0.679-0.324-1.337-0.512-1.996c-0.031-0.115-0.063-0.23-0.104-0.345
		c-0.199-0.658-0.418-1.317-0.658-1.964c-0.01-0.021-0.01-0.042-0.021-0.052c-0.031-0.084-0.063-0.167-0.104-0.251
		c-1.651,4.336-4.211,8.223-7.429,11.452c-0.376,0.366-0.752,0.731-1.139,1.087c-0.773,0.7-1.588,1.369-2.424,1.996
		c-2.32,1.735-4.88,3.176-7.617,4.253c-0.491,0.199-0.993,0.376-1.494,0.554c-0.512,0.167-1.024,0.334-1.546,0.481
		c-2.863,0.815-5.883,1.254-8.997,1.254H165.896c16.025,0,71.332-0.01,71.038-0.021c-0.502,0-74.825-0.01-75.348-0.021
		c-0.094,0-0.146-2.33-0.188-6.196c-0.042,16.071-0.031,29.706,0.188,29.706c0.522,0.01,74.846,0.021,75.348,0.021
		c0.294,0.01-55.014,0.021-71.038,0.021h240.291c3.114,0,6.134-0.439,8.997-1.254c0.522-0.146,1.034-0.313,1.546-0.481
		c0.502-0.178,1.003-0.355,1.494-0.554c2.738-1.076,5.298-2.518,7.617-4.253c0.836-0.627,1.651-1.296,2.424-1.996
		c0.387-0.355,0.763-0.721,1.139-1.087c4.075-4.086,7.095-9.247,8.579-15.005c0.209-0.784,0.387-1.578,0.522-2.393
		c0.052-0.272,0.094-0.543,0.136-0.815c0.261-1.63,0.387-3.291,0.387-4.984C439.029,382.109,438.757,379.705,438.234,377.407z"/>
	<path style="fill:#FCBB8D;" d="M452.356,320.505c-0.553,8.182-4.091,15.552-9.546,21.008c-5.938,5.938-14.137,9.615-23.2,9.615
		l-13.412,0.604h-0.207c-7.492,0-13.499-6.232-13.153-13.706c0-0.12,0-0.242,0.017-0.363c0.345-6.974,6.145-12.446,13.136-12.446
		h30.641C442.431,325.217,447.834,323.473,452.356,320.505z"/>
	<path style="fill:#FCBB8D;" d="M462.23,254.875c-0.553,8.182-4.091,15.552-9.546,21.008c-5.938,5.938-14.137,9.615-23.2,9.615
		l-13.412,0.604h-0.207c-7.492,0-13.499-6.232-13.153-13.706c0-0.12,0-0.242,0.017-0.363c0.345-6.974,6.145-12.446,13.136-12.446
		h30.641C452.305,259.587,457.708,257.843,462.23,254.875z"/>
	<path style="fill:#FCBB8D;" d="M452.369,189.383c-0.553,8.182-4.091,15.552-9.546,21.008c-5.938,5.938-14.137,9.615-23.2,9.615
		l-13.412,0.604h-0.207c-7.492,0-13.499-6.232-13.153-13.706c0-0.12,0-0.242,0.017-0.363c0.345-6.974,6.145-12.446,13.136-12.446
		h30.641C442.442,194.095,447.845,192.351,452.369,189.383z"/>
</g>
<g>
</g>
<g>
</g>
<g>
</g>
<g>
</g>
<g>
</g>
<g>
</g>
<g>
</g>
<g>
</g>
<g>
</g>
<g>
</g>
<g>
</g>
<g>
</g>
<g>
</g>
<g>
</g>
<g>
</g>
</svg>
