<?xml version="1.0" encoding="iso-8859-1"?>
<!-- Generator: Adobe Illustrator 19.0.0, SVG Export Plug-In . SVG Version: 6.00 Build 0)  -->
<svg version="1.1" id="Capa_1" xmlns="http://www.w3.org/2000/svg" xmlns:xlink="http://www.w3.org/1999/xlink" x="0px" y="0px"
	 viewBox="0 0 512 512" style="enable-background:new 0 0 512 512;" xml:space="preserve">
<circle style="fill:#1AB0AE;" cx="256" cy="255.999" r="255.999"/>
<path style="fill:#BCBDD6;" d="M469.145,45.041v352.793c-4.556,6.844-9.446,13.448-14.629,19.801
	C407.58,475.23,336.078,512,255.997,512s-151.583-36.77-198.52-94.365c-5.183-6.353-10.073-12.957-14.629-19.801V45.041
	c0-7.008,5.681-12.69,12.69-12.69h400.917C463.464,32.351,469.145,38.032,469.145,45.041z"/>
<path style="fill:#EBEBF2;" d="M454.517,96.613v321.022C407.58,475.23,336.078,512,255.997,512s-151.583-36.77-198.52-94.365V96.613
	H454.517z"/>
<circle style="fill:#FF526C;" cx="80.092" cy="66.836" r="15.672"/>
<circle style="fill:#FFE261;" cx="127.112" cy="66.836" r="15.672"/>
<circle style="fill:#1AB0AE;" cx="176.442" cy="66.836" r="15.672"/>
<path style="fill:#EBEBF2;" d="M420.971,51.946H232.899c-8.223,0-14.889,6.666-14.889,14.889l0,0
	c0,8.223,6.666,14.889,14.889,14.889h188.072c8.223,0,14.889-6.666,14.889-14.889l0,0C435.86,58.612,429.195,51.946,420.971,51.946z
	"/>
<path style="fill:#FF526C;" d="M382.306,273.538l-0.304,1.766l-9.327,53.183l-15.523,88.682
	c-2.38,13.595-14.185,23.514-27.988,23.514H182.829c-13.802,0-25.608-9.919-27.988-23.514l-15.523-88.682l-9.327-53.183
	l-0.304-1.766H382.306z"/>
<polygon style="fill:#E83150;" points="382.003,275.304 372.676,328.487 139.319,328.487 129.992,275.304 "/>
<path style="fill:#FF526C;" d="M381.924,258.342H130.071c-8.079,0-14.629,6.549-14.629,14.629v23.926
	c0,8.079,6.549,14.629,14.629,14.629h251.852c8.079,0,14.629-6.549,14.629-14.629v-23.926
	C396.552,264.892,390.003,258.342,381.924,258.342z"/>
<path style="fill:#374266;" d="M357.88,293.007c-2.967,0-5.936-1.133-8.2-3.397l-93.683-93.683l-93.683,93.683
	c-4.529,4.529-11.871,4.529-16.4,0s-4.529-11.871,0-16.4l101.884-101.884c4.529-4.529,11.871-4.529,16.4,0L366.082,273.21
	c4.529,4.529,4.529,11.871,0,16.4C363.816,291.874,360.848,293.007,357.88,293.007z"/>
<g>
</g>
<g>
</g>
<g>
</g>
<g>
</g>
<g>
</g>
<g>
</g>
<g>
</g>
<g>
</g>
<g>
</g>
<g>
</g>
<g>
</g>
<g>
</g>
<g>
</g>
<g>
</g>
<g>
</g>
</svg>
