<?xml version="1.0" encoding="iso-8859-1"?>
<!-- Generator: Adobe Illustrator 19.0.0, SVG Export Plug-In . SVG Version: 6.00 Build 0)  -->
<svg version="1.1" id="Capa_1" xmlns="http://www.w3.org/2000/svg" xmlns:xlink="http://www.w3.org/1999/xlink" x="0px" y="0px"
	 viewBox="0 0 512 512" style="enable-background:new 0 0 512 512;" xml:space="preserve">
<path style="fill:#374266;" d="M511.949,256.051c0,7.083-0.293,14.103-0.857,21.051c-9.789,120.307-102.777,217.066-221.328,232.684
	c-9.465,1.254-19.086,1.985-28.844,2.163C259.28,511.99,257.64,512,256,512C114.643,512,0.051,397.408,0.051,256.051
	c0-62.525,22.43-119.816,59.662-164.267c5.056-6.038,10.384-11.826,15.973-17.373c3.625-3.604,7.355-7.093,11.189-10.457
	c5.903-5.213,12.035-10.144,18.397-14.793C147.551,18.31,199.649,0.101,256,0.101c138.254,0,250.903,109.619,255.782,246.683
	C511.897,249.856,511.949,252.948,511.949,256.051z"/>
<path style="fill:#FF526C;" d="M511.782,246.784L282.28,17.283c-15.89-15.89-39.416-21.374-60.707-14.145L102.844,43.442
	c-0.815,0.272-1.619,0.564-2.413,0.878C87.905,49.178,77.51,58.131,70.845,69.57c-1.985,3.385-3.636,6.989-4.92,10.781
	L25.62,199.101c-7.229,21.28-1.745,44.807,14.145,60.697l249.998,249.987c125.394-16.517,222.185-123.817,222.185-253.735
	C511.949,252.948,511.897,249.856,511.782,246.784z M157.22,134.738c-14.062,14.062-36.867,14.072-50.939,0
	c-14.062-14.062-14.062-36.867,0.01-50.939c14.062-14.062,36.867-14.072,50.929,0C171.292,97.871,171.282,120.676,157.22,134.738z"
	/>
<path style="fill:#F2F2F7;" d="M168.734,349.558l-38.037-38.037c-26.518-26.518-18.75-53.573,4.018-76.342
	c22.501-22.501,49.823-30.537,76.342-4.018l38.037,38.037c26.518,26.518,18.483,53.841-4.018,76.342
	C222.307,368.308,195.252,376.076,168.734,349.558z M184.27,257.948c-8.839-8.839-17.947-7.768-26.251,0.536
	c-8.304,8.304-9.108,17.143-0.267,25.983l38.037,38.037c8.839,8.839,17.679,8.036,25.983-0.267
	c8.304-8.304,9.375-17.412,0.536-26.251L184.27,257.948z M261.147,115.176c1.607,1.607,3.215,3.75,4.018,6.162l98.842,287.419
	c2.143,5.893-0.268,13.661-5.357,18.75c-9.108,9.108-22.501,7.5-29.197,0.803c-1.607-1.607-2.947-4.017-3.75-6.428l-99.11-287.152
	c-2.411-6.696-0.268-13.126,4.554-17.947C238.647,109.283,252.575,106.604,261.147,115.176z M377.936,312.861l-38.037-38.037
	c-26.518-26.518-18.75-53.573,4.018-76.342c22.501-22.501,49.822-30.536,76.341-4.018l38.037,38.037
	c26.518,26.518,18.484,53.84-4.018,76.341C431.509,331.611,404.455,339.379,377.936,312.861z M393.472,221.251
	c-8.839-8.839-17.947-7.768-26.25,0.535c-8.304,8.304-9.108,17.143-0.268,25.984l38.037,38.037
	c8.839,8.839,17.679,8.036,25.984-0.268c8.303-8.303,9.375-17.411,0.535-26.25L393.472,221.251z"/>
<g>
</g>
<g>
</g>
<g>
</g>
<g>
</g>
<g>
</g>
<g>
</g>
<g>
</g>
<g>
</g>
<g>
</g>
<g>
</g>
<g>
</g>
<g>
</g>
<g>
</g>
<g>
</g>
<g>
</g>
</svg>
