<?xml version="1.0" encoding="iso-8859-1"?>
<!-- Generator: Adobe Illustrator 19.0.0, SVG Export Plug-In . SVG Version: 6.00 Build 0)  -->
<svg version="1.1" id="Capa_1" xmlns="http://www.w3.org/2000/svg" xmlns:xlink="http://www.w3.org/1999/xlink" x="0px" y="0px"
	 viewBox="0 0 512 512" style="enable-background:new 0 0 512 512;" xml:space="preserve">
<path style="fill:#FF526C;" d="M511.423,256.579c0,82.131-38.772,155.213-99.01,201.939c-0.115,0.083-0.219,0.167-0.334,0.261
	c-1.991,1.543-4.014,3.055-6.057,4.545c-3.503,2.544-7.089,5.004-10.728,7.371c-12.49,8.153-25.73,15.231-39.596,21.111
	c-11.239,4.775-22.894,8.757-34.883,11.895c-20.694,5.421-42.421,8.299-64.814,8.299c-6.005,0-11.947-0.208-17.848-0.615
	c-41.107-2.836-79.525-15.398-112.99-35.405C50.539,431.391,0.58,349.823,0.58,256.579c0-23.624,3.211-46.497,9.216-68.213
	c8.445-30.557,22.425-58.82,40.805-83.632c24.885-33.611,57.829-60.905,95.986-79.014c13.157-6.255,26.939-11.416,41.222-15.357
	c21.706-6.005,44.568-9.206,68.192-9.206c31.37,0,61.405,5.651,89.168,16.003c32.444,12.083,61.77,30.578,86.447,53.962
	C480.762,117.661,511.423,183.539,511.423,256.579z"/>
<g>
	<path style="fill:#EBEBF2;" d="M275.841,138.751c-0.01,22.884-5.609,44.475-15.503,63.449
		c-14.137,27.106-22.175,56.975-22.175,87.542l-0.01,205.609v16.034c-41.107-2.836-79.525-15.398-112.99-35.405v-69.86
		c0-38.178,3.722-115.16-54.389-147.383c-27.761-15.393-49.406-40.44-60.978-70.371c-6.912-17.848-10.196-37.51-8.966-58.069
		c0-0.208,0.021-0.417,0.031-0.636c1.689-26.324,10.957-50.709,25.573-71.028l24.166,46.101l4.608,8.789l11.28,21.476
		c2.93,5.598,6.62,10.55,10.853,14.794c18.338,18.328,47.123,23.509,71.289,10.832c21.33-11.197,33.257-33.236,32.579-55.797
		c-0.271-8.914-2.523-17.9-6.954-26.345l-27.669-52.763L133.744,1.23c19.11-0.605,37.375,2.69,54.066,9.133
		c47.362,18.297,82.058,62.031,87.333,114.471C275.601,129.41,275.841,134.07,275.841,138.751z"/>
	<path style="fill:#EBEBF2;" d="M436.277,85.04l-30.254,40.158v338.126c-3.503,2.544-7.089,5.004-10.728,7.371
		c-12.49,8.153-25.73,15.231-39.596,21.111h-2.982V125.198L322.463,85.04l22.706-67.88L350.914,0h56.912l23.791,71.122
		L436.277,85.04z"/>
</g>
<path style="fill:#C5C6E0;" d="M369.686,447.333l-16.97,2.428V125.203h6.691c5.678,0,10.279,4.602,10.279,10.279V447.333z"/>
<rect x="333.351" y="341.973" style="fill:#65A3E6;" width="92.035" height="64.533"/>
<rect x="333.351" y="341.973" style="fill:#1B79CF;" width="36.337" height="64.533"/>
<path style="fill:#FFE261;" d="M439.113,387.949v1.324c0,15.242-7.131,29.316-18.557,39.377c-5.849,5.161-9.55,12.698-9.55,21.101
	c0,3.065,0.49,6.005,1.407,8.768c-26.793,20.788-57.829,36.353-91.597,45.184c2.565-12.844,9.237-24.614,18.693-34.07
	c5.077-5.088,8.226-12.114,8.215-19.871c0.01-8.413-3.68-15.951-9.529-21.111c-11.447-10.06-18.568-24.145-18.568-39.387v-1.314
	L439.113,387.949L439.113,387.949z"/>
<path style="fill:#F58D2C;" d="M320.816,503.701c8.138-2.129,16.115-4.657,23.914-7.546c3.323-9.9,9.101-18.954,16.671-26.524
	c5.077-5.088,8.226-12.114,8.215-19.871c0.01-8.413-3.68-15.951-9.529-21.111c-11.447-10.06-18.568-24.145-18.568-39.387v-1.314
	h-21.892v1.314c0,15.242,7.121,29.327,18.568,39.387c5.849,5.161,9.539,12.698,9.529,21.111c0.01,7.756-3.138,14.783-8.215,19.871
	C330.053,479.087,323.381,490.857,320.816,503.701z"/>
<g>
</g>
<g>
</g>
<g>
</g>
<g>
</g>
<g>
</g>
<g>
</g>
<g>
</g>
<g>
</g>
<g>
</g>
<g>
</g>
<g>
</g>
<g>
</g>
<g>
</g>
<g>
</g>
<g>
</g>
</svg>
