<?xml version="1.0" encoding="iso-8859-1"?>
<!-- Generator: Adobe Illustrator 19.0.0, SVG Export Plug-In . SVG Version: 6.00 Build 0)  -->
<svg version="1.1" id="Capa_1" xmlns="http://www.w3.org/2000/svg" xmlns:xlink="http://www.w3.org/1999/xlink" x="0px" y="0px"
	 viewBox="0 0 512 512" style="enable-background:new 0 0 512 512;" xml:space="preserve">
<circle style="fill:#374266;" cx="256" cy="256" r="256"/>
<path style="fill:#1AB0AE;" d="M478.995,165.789c0,146.994-92.807,272.291-222.994,320.578
	C125.79,438.081,33.005,312.784,33.005,165.789c0-47.298,9.597-92.347,26.979-133.309c9.071,8.287,18.591,16.092,28.519,23.375
	c49.475,36.288,117.226,36.058,166.641-0.31c0.285-0.21,0.571-0.421,0.856-0.632c0.256,0.19,0.512,0.379,0.769,0.568
	c49.409,36.432,117.218,36.664,166.712,0.349c9.923-7.281,19.44-15.085,28.511-23.373
	C469.374,73.418,478.995,118.49,478.995,165.789z"/>
<path style="fill:#58D1C1;" d="M65.393,165.793c0,64.439,19.613,126.192,56.717,178.584c33.97,47.961,80.081,84.825,133.883,107.196
	h0.01c53.812-22.371,99.913-59.235,133.883-107.196c37.104-52.391,56.717-114.145,56.717-178.584
	c0-27.115-3.448-53.687-10.261-79.402c-28.39,18.965-61.367,28.944-95.869,28.944c-29.947,0-58.765-7.513-84.47-21.88
	c-25.684,14.357-54.502,21.87-84.449,21.87c-34.513,0-67.5-9.979-95.89-28.954C68.841,112.106,65.393,138.678,65.393,165.793z"/>
<path style="fill:#6DE8C3;" d="M256.003,93.455v358.118c53.812-22.371,99.913-59.235,133.883-107.196
	c37.104-52.391,56.717-114.145,56.717-178.584c0-27.115-3.448-53.687-10.261-79.402c-28.39,18.965-61.367,28.944-95.869,28.944
	C310.526,115.335,281.708,107.822,256.003,93.455z"/>
<polygon style="fill:#F2F2F7;" points="246.824,352.136 152.446,257.759 184.218,225.987 244.999,286.769 361.598,156.371 
	395.093,186.321 "/>
<g>
</g>
<g>
</g>
<g>
</g>
<g>
</g>
<g>
</g>
<g>
</g>
<g>
</g>
<g>
</g>
<g>
</g>
<g>
</g>
<g>
</g>
<g>
</g>
<g>
</g>
<g>
</g>
<g>
</g>
</svg>
