<?xml version="1.0" encoding="iso-8859-1"?>
<!-- Generator: Adobe Illustrator 19.0.0, SVG Export Plug-In . SVG Version: 6.00 Build 0)  -->
<svg version="1.1" id="Capa_1" xmlns="http://www.w3.org/2000/svg" xmlns:xlink="http://www.w3.org/1999/xlink" x="0px" y="0px"
	 viewBox="0 0 512 512" style="enable-background:new 0 0 512 512;" xml:space="preserve">
<path style="fill:#1AB0AE;" d="M512,256c0,54.053-16.75,104.187-45.349,145.512c-5.225,7.555-10.857,14.806-16.844,21.744
	c-3.459,4.002-7.032,7.899-10.731,11.682c-8.014,8.202-16.583,15.872-25.642,22.936c-0.23,0.188-0.46,0.366-0.69,0.543
	c-10.773,8.359-22.235,15.872-34.283,22.444h-0.01C342.079,500.726,300.366,512,256,512C114.615,512,0,397.385,0,256
	S114.615,0,256,0S512,114.615,512,256z"/>
<path style="fill:#FF526C;" d="M449.808,423.257c-3.459,4.002-7.032,7.899-10.731,11.682c-8.014,8.202-16.583,15.872-25.642,22.936
	c-0.23,0.188-0.46,0.366-0.69,0.543c-10.773,8.359-22.235,15.872-34.283,22.444h-0.01l-82.15-82.16l48.525-9.435h0.01l15.924-55.056
	L449.808,423.257z"/>
<path style="fill:#E83150;" d="M413.435,457.874c-0.23,0.188-0.46,0.366-0.69,0.543c-10.773,8.359-22.235,15.872-34.283,22.444
	h-0.01l-82.15-82.16l-12.037-12.037l28.975-28.985l31.587,31.587L413.435,457.874z"/>
<circle style="fill:#F2F2F7;" cx="240.295" cy="236.554" r="182.617"/>
<circle style="fill:#65A3E6;" cx="240.295" cy="236.554" r="146.38"/>
<path style="fill:#1B79CF;" d="M168.434,312.502c-54.571-54.571-57.045-141.508-7.427-199.018
	c-8.578,5.538-16.708,12.053-24.221,19.566c-57.165,57.165-57.165,149.85,0,207.016s149.85,57.165,207.016,0
	c2.594-2.594,5.068-5.264,7.427-7.999C294.534,368.67,218.088,362.156,168.434,312.502z"/>
<g>
	<circle style="fill:#A7D3FC;" cx="269.5" cy="192.397" r="41.583"/>
	<circle style="fill:#A7D3FC;" cx="326.154" cy="251.716" r="19.044"/>
</g>
<g>
</g>
<g>
</g>
<g>
</g>
<g>
</g>
<g>
</g>
<g>
</g>
<g>
</g>
<g>
</g>
<g>
</g>
<g>
</g>
<g>
</g>
<g>
</g>
<g>
</g>
<g>
</g>
<g>
</g>
</svg>
