<?xml version="1.0" encoding="iso-8859-1"?>
<!-- Generator: Adobe Illustrator 19.0.0, SVG Export Plug-In . SVG Version: 6.00 Build 0)  -->
<svg version="1.1" id="Capa_1" xmlns="http://www.w3.org/2000/svg" xmlns:xlink="http://www.w3.org/1999/xlink" x="0px" y="0px"
	 viewBox="0 0 512 512" style="enable-background:new 0 0 512 512;" xml:space="preserve">
<path style="fill:#FFE261;" d="M512,256c0,39.758-9.059,77.396-25.234,110.968c-15.141,31.42-36.509,59.277-62.506,81.972
	c-11.243,9.812-23.343,18.651-36.185,26.405c-37.606,22.695-81.533,35.997-128.522,36.634C258.372,511.99,257.181,512,256,512
	C114.615,512,0,397.385,0,256S114.615,0,256,0S512,114.615,512,256z"/>
<path style="fill:#1AB0AE;" d="M189.897,192.512v-75.045c29.845,3.353,38.974,17.98,54.631,17.98
	c21.616,0,30.459-27.02,30.459-40.284c0-24.731-29.865-35.507-58.052-40.068v-28.34c0-14.776-11.979-26.755-26.754-26.755h-32.871
	c-14.776,0-26.754,11.979-26.754,26.755v31.036c-43.493,11.544-79.089,41.04-79.089,95.832c0,68.384,55.109,92.437,99.761,113.216
	v82.865c-39.27-4.041-53.57-35.931-75.197-35.931c-18.668,0-33.406,24.562-33.406,41.264c0,27.13,37.882,53.497,87.933,61.408
	v23.869c0,14.776,11.979,26.754,26.754,26.754h32.871c14.775,0,26.754-11.979,26.754-26.754v-30.949
	c40.711-15.386,66.895-49.2,66.895-99.523C283.831,239.369,233.371,212.043,189.897,192.512z M128.102,146.253
	c0-10.656,6.987-20.823,23.124-25.973v54.172C137.309,166.672,128.102,158.189,128.102,146.253z M189.897,343.788v-55.78
	c10.598,8.06,17.296,17.378,17.296,29.692C207.193,330.313,200.022,338.706,189.897,343.788z"/>
<path style="fill:#374266;" d="M453.078,345.673c26.436-11.473,42.392-37.898,42.392-78.305c0-51.221-26.091-74.783-59.392-83.905
	v-41.714c0-11.559-9.371-20.929-20.929-20.929h-23.406c-11.553,0-20.919,9.365-20.919,20.919v36.856h-16.76v-36.845
	c0-11.559-9.371-20.929-20.929-20.929h-23.395c-11.559,0-20.929,9.371-20.929,20.929v37.044
	c-15.266,1.327-29.257,9.247-29.257,23.74v309.447c46.989-0.637,90.917-13.939,128.522-36.634c-0.439,0.01-0.888,0.01-1.337,0.01
	h-49.873v-99.756h49.873c24.942,0,39.905,11.975,39.905,45.892v7.973c0,7.461-0.815,13.928-2.382,19.477
	c25.997-22.695,47.365-50.552,62.506-81.972C478.02,357.125,466.474,350.72,453.078,345.673z M389.235,315.747h-52.37v-69.329h52.37
	c18.954,0,28.432,17.46,28.432,34.921C417.667,298.297,408.189,315.747,389.235,315.747z"/>
<g>
</g>
<g>
</g>
<g>
</g>
<g>
</g>
<g>
</g>
<g>
</g>
<g>
</g>
<g>
</g>
<g>
</g>
<g>
</g>
<g>
</g>
<g>
</g>
<g>
</g>
<g>
</g>
<g>
</g>
</svg>
