<?xml version="1.0" encoding="iso-8859-1"?>
<!-- Generator: Adobe Illustrator 19.0.0, SVG Export Plug-In . SVG Version: 6.00 Build 0)  -->
<svg version="1.1" id="Capa_1" xmlns="http://www.w3.org/2000/svg" xmlns:xlink="http://www.w3.org/1999/xlink" x="0px" y="0px"
	 viewBox="0 0 512.001 512.001" style="enable-background:new 0 0 512.001 512.001;" xml:space="preserve">
<path style="fill:#FFE261;" d="M512,256.001c0,63.164-22.873,120.978-60.792,165.615c-22.005,25.913-49.079,47.396-79.683,62.902
	c-3.845,1.943-7.743,3.793-11.692,5.538c-31.733,14.106-66.863,21.943-103.831,21.943c-141.384,0-255.998-114.614-255.998-255.998
	S114.617,0.002,256.002,0.002c127.884,0,233.857,93.769,252.937,216.303C510.955,229.241,512,242.501,512,256.001z"/>
<path style="fill:#65A3E6;" d="M288.018,47.039H25.434C11.387,47.039,0,58.426,0,72.473v154.444
	c0,14.046,11.387,25.434,25.434,25.434h26.369v78.562l78.562-78.562h183.087V72.473C313.452,58.426,302.065,47.039,288.018,47.039z"
	/>
<polygon style="fill:#1AB0AE;" points="259.157,389.38 259.377,389.599 224.206,394.376 "/>
<path style="fill:#58D1C1;" d="M198.543,241.738v154.444c0,14.046,11.387,25.434,25.434,25.434h67.416l68.44,68.44
	c3.95-1.745,7.847-3.594,11.692-5.538v-62.902h79.683c37.919-44.638,60.792-102.452,60.792-165.615v-14.262
	c0-14.046-11.387-25.434-25.434-25.434H223.977C209.93,216.305,198.543,227.691,198.543,241.738z"/>
<g>
	<path style="fill:#374266;" d="M478.096,297.28H258.68c-6.924,0-12.538-5.613-12.538-12.538l0,0
		c0-6.924,5.613-12.538,12.538-12.538h219.417c6.925,0,12.538,5.613,12.538,12.538l0,0
		C490.635,291.666,485.021,297.28,478.096,297.28z"/>
	<path style="fill:#374266;" d="M478.096,355.268H258.68c-6.924,0-12.538-5.613-12.538-12.538l0,0
		c0-6.925,5.613-12.538,12.538-12.538h219.417c6.925,0,12.538,5.613,12.538,12.538l0,0
		C490.635,349.654,485.021,355.268,478.096,355.268z"/>
	<path style="fill:#374266;" d="M266.773,131.114H47.358c-6.924,0-12.538-5.613-12.538-12.538l0,0
		c0-6.924,5.613-12.538,12.538-12.538h219.417c6.924,0,12.538,5.613,12.538,12.538l0,0
		C279.312,125.5,273.698,131.114,266.773,131.114z"/>
	<path style="fill:#374266;" d="M266.773,189.102H47.358c-6.924,0-12.538-5.613-12.538-12.538l0,0
		c0-6.924,5.613-12.538,12.538-12.538h219.417c6.924,0,12.538,5.613,12.538,12.538l0,0
		C279.312,183.489,273.698,189.102,266.773,189.102z"/>
</g>
<g>
</g>
<g>
</g>
<g>
</g>
<g>
</g>
<g>
</g>
<g>
</g>
<g>
</g>
<g>
</g>
<g>
</g>
<g>
</g>
<g>
</g>
<g>
</g>
<g>
</g>
<g>
</g>
<g>
</g>
</svg>
