<?xml version="1.0" encoding="iso-8859-1"?>
<!-- Generator: Adobe Illustrator 19.0.0, SVG Export Plug-In . SVG Version: 6.00 Build 0)  -->
<svg version="1.1" id="Capa_1" xmlns="http://www.w3.org/2000/svg" xmlns:xlink="http://www.w3.org/1999/xlink" x="0px" y="0px"
	 viewBox="0 0 512 512" style="enable-background:new 0 0 512 512;" xml:space="preserve">
<circle style="fill:#65A3E6;" cx="256" cy="256" r="256"/>
<path style="fill:#F2F2F7;" d="M460.57,102.316v307.597c-14.514,19.278-31.692,36.425-50.981,50.918
	C366.801,492.962,313.626,512,256,512c-56.236,0-108.231-18.129-150.465-48.859c-3.156-2.299-6.259-4.671-9.3-7.105
	c-3.751-2.988-7.408-6.092-10.971-9.289c-2.863-2.56-5.674-5.183-8.411-7.879c-3.772-3.699-7.44-7.513-10.971-11.431
	c-2.894-3.208-5.705-6.478-8.422-9.822c-2.058-2.518-4.075-5.089-6.029-7.69V102.316H460.57z"/>
<path style="fill:#E3E7FC;" d="M460.57,102.316v51.566c-1.003,0.146-2.038,0.209-3.082,0.209H54.512
	c-1.045,0-2.079-0.063-3.082-0.209v-51.566H460.57z"/>
<path style="fill:#FFE261;" d="M457.482,136.849H54.518c-13.293,0-24.068-10.776-24.068-24.068V36.627
	c0-13.293,10.776-24.068,24.068-24.068h402.966c13.293,0,24.068,10.776,24.068,24.068v76.154
	C481.552,126.074,470.776,136.849,457.482,136.849z"/>
<g>
	<path style="fill:#FF526C;" d="M117.837,224.948c0-15.49-33.146-10.739-33.146-35.212c0-15.386,13.217-20.652,25.092-20.652
		c6.092,0,19.619,1.445,19.619,8.261c0,2.375-1.652,7.125-5.37,7.125c-3.201,0-5.576-3.925-14.249-3.925
		c-7.434,0-11.668,2.995-11.668,7.952c0,12.804,33.147,8.364,33.147,35.109c0,14.767-10.326,22.408-24.576,22.408
		c-13.527,0-23.853-6.816-23.853-12.804c0-2.891,2.685-7.229,5.886-7.229c4.234,0,7.022,7.952,17.554,7.952
		C112.468,233.931,117.837,231.143,117.837,224.948z"/>
	<path style="fill:#FF526C;" d="M176.283,173.73c0-2.891,3.304-4.13,6.712-4.13c3.304,0,6.712,1.239,6.712,4.13v48.327
		c0,17.244-10.946,23.646-24.783,23.646c-13.94,0-24.783-6.402-24.783-23.646V173.73c0-2.891,3.304-4.13,6.712-4.13
		c3.304,0,6.711,1.239,6.711,4.13v48.327c0,8.054,4.234,11.875,11.359,11.875c7.124,0,11.358-3.821,11.358-11.875L176.283,173.73
		L176.283,173.73z"/>
	<path style="fill:#FF526C;" d="M237.412,240.849l-22.201-41.511v41.511c0,2.789-3.407,4.234-6.712,4.234
		c-3.407,0-6.712-1.445-6.712-4.234v-67.017c0-2.891,3.304-4.233,6.712-4.233c4.854,0,6.816,1.032,10.016,7.125l19.929,38.516
		V173.73c0-2.891,3.304-4.13,6.712-4.13c3.304,0,6.711,1.239,6.711,4.13v67.119c0,2.789-3.406,4.234-6.711,4.234
		C241.956,245.083,239.169,244.051,237.412,240.849z"/>
	<path style="fill:#FF526C;" d="M288.423,169.599c13.631,0,24.267,6.402,24.267,23.647v28.19c0,17.245-10.636,23.647-24.267,23.647
		h-18.277c-3.51,0-5.886-1.962-5.886-4.13v-67.222c0-2.168,2.376-4.13,5.886-4.13h18.277V169.599z M277.685,181.371v51.94h10.739
		c6.816,0,10.843-3.82,10.843-11.875v-28.19c0-8.055-4.027-11.875-10.843-11.875h-10.739V181.371z"/>
	<path style="fill:#FF526C;" d="M318.884,239.507c0-0.207,0.103-0.62,0.207-1.033l19.928-64.952c0.93-3.097,4.751-4.543,8.571-4.543
		c3.924,0,7.745,1.446,8.675,4.543l19.929,64.952c0.102,0.413,0.206,0.723,0.206,1.033c0,3.201-4.854,5.576-8.467,5.576
		c-2.273,0-4.028-0.723-4.544-2.685l-3.924-13.733h-23.647l-3.924,13.733c-0.516,1.962-2.272,2.685-4.543,2.685
		C323.738,245.083,318.884,242.811,318.884,239.507z M356.575,218.132l-8.984-31.701l-8.984,31.701H356.575z"/>
	<path style="fill:#FF526C;" d="M393.749,214.828c0-0.516-0.103-1.032-0.309-1.343l-21.374-36.967
		c-0.207-0.516-0.31-1.033-0.31-1.343c0-3.304,5.266-5.576,8.881-5.576c2.168,0,3.201,0.827,4.13,2.684l15.695,29.842l15.799-29.842
		c0.93-1.755,1.859-2.684,4.027-2.684c3.614,0,8.881,2.272,8.881,5.576c0,0.309,0,0.827-0.309,1.343l-21.273,36.967
		c-0.206,0.31-0.413,0.827-0.413,1.343v26.021c0,2.789-3.304,4.234-6.712,4.234c-3.304,0-6.712-1.445-6.712-4.234v-26.021H393.749z"
		/>
</g>
<g>
	<path style="fill:#374266;" d="M189.711,284.666c29.922,0,57.779,19.603,57.779,52.362c0,55.715-81.767,73.772-81.767,100.598
		v6.191h71.708c5.675,0,10.575,6.706,10.575,14.445c0,7.738-4.901,14.961-10.575,14.961h-91.828
		c-5.933,0-14.703-4.127-14.703-10.575v-25.02c0-41.27,83.057-63.195,83.057-99.565c0-10.575-6.964-22.956-23.989-22.956
		c-12.639,0-22.956,6.706-22.956,22.699c0,6.191-6.448,12.381-17.54,12.381c-8.77,0-15.219-4.127-15.219-18.056
		C134.254,302.722,161.079,284.666,189.711,284.666z"/>
	<path style="fill:#374266;" d="M347.566,417.506v-4.901c0-19.088-11.865-24.505-28.373-24.505c-7.479,0-10.06-6.448-10.06-13.155
		c0-6.448,2.581-13.155,10.06-13.155c12.897,0,23.731-3.095,23.731-25.278c0-17.025-8.77-22.699-22.699-22.699
		c-16.765,0-22.956,6.964-22.956,17.283c0,7.739-3.612,12.897-15.993,12.897c-14.96,0-17.282-3.611-17.282-14.445
		c0-18.314,12.897-44.882,56.489-44.882c31.211,0,54.427,11.865,54.427,46.172c0,20.378-7.479,36.886-20.12,42.819
		c15.218,5.933,26.311,17.54,26.311,38.95v4.901c0,41.528-27.858,57.264-61.906,57.264c-42.303,0-59.326-26.052-59.326-46.945
		c0-10.317,4.385-13.155,15.992-13.155c13.67,0,17.283,3.611,17.283,11.865c0,11.608,10.317,18.83,26.826,18.83
		C339.313,445.364,347.566,437.109,347.566,417.506z"/>
	<path style="fill:#374266;" d="M223.093,74.707c0,15.276-12.392,27.661-27.669,27.661c-8.267,0-15.688-3.623-20.752-9.365
		c-4.31-4.871-6.917-11.278-6.917-18.295s2.607-13.432,6.917-18.303c5.065-5.744,12.484-9.365,20.752-9.365
		C210.701,47.038,223.093,59.422,223.093,74.707z"/>
	<path style="fill:#374266;" d="M344.246,74.707c0,15.276-12.392,27.661-27.669,27.661c-8.267,0-15.688-3.623-20.752-9.365
		c-4.31-4.871-6.917-11.278-6.917-18.295s2.607-13.432,6.917-18.303c5.065-5.744,12.484-9.365,20.752-9.365
		C331.853,47.038,344.246,59.422,344.246,74.707z"/>
</g>
<g>
</g>
<g>
</g>
<g>
</g>
<g>
</g>
<g>
</g>
<g>
</g>
<g>
</g>
<g>
</g>
<g>
</g>
<g>
</g>
<g>
</g>
<g>
</g>
<g>
</g>
<g>
</g>
<g>
</g>
</svg>
