<?xml version="1.0" encoding="iso-8859-1"?>
<!-- Generator: Adobe Illustrator 19.0.0, SVG Export Plug-In . SVG Version: 6.00 Build 0)  -->
<svg version="1.1" id="Capa_1" xmlns="http://www.w3.org/2000/svg" xmlns:xlink="http://www.w3.org/1999/xlink" x="0px" y="0px"
	 viewBox="0 0 512 512" style="enable-background:new 0 0 512 512;" xml:space="preserve">
<circle style="fill:#374266;" cx="256" cy="256" r="256"/>
<path style="fill:#B55D14;" d="M256.003,53.432v451.671c-1.745-0.408-62.725-0.836-64.46-1.285
	c-23.28-6.039-45.265-15.266-65.473-27.199c-11.254-6.646-21.953-14.117-32.016-22.361c-23.646-19.32-43.76-42.799-59.246-69.308
	V91.454c0-20.999,17.022-38.022,38.022-38.022H256.003z"/>
<path style="fill:#C5C6E0;" d="M138.254,209.261V91.454c0-20.998,17.023-38.022,38.022-38.022h-62.694
	c-20.998,0-38.022,17.023-38.022,38.022v117.807L138.254,209.261L138.254,209.261z"/>
<path style="fill:#ED8C40;" d="M477.187,88.366V384.97c-25.652,43.896-63.99,79.475-109.996,101.689
	c-20.511,9.906-42.538,17.157-65.651,21.295c-14.775,2.654-29.999,4.044-45.537,4.044c-20.396,0-40.229-2.382-59.235-6.896
	c-1.745-0.408-3.49-0.836-5.224-1.285V88.366c0-19.294,15.641-34.934,34.934-34.934h215.776
	C461.546,53.432,477.187,69.073,477.187,88.366z"/>
<rect x="300.408" y="53.436" style="fill:#EBEBF2;" width="67.918" height="147.466"/>
<rect x="300.408" y="53.436" style="fill:#C5C6E0;" width="67.918" height="13.72"/>
<path style="fill:#B55D14;" d="M329.288,267.184l-64.938,64.938c-4.523,4.523-1.32,12.257,5.077,12.257h16.448
	c3.965,0,7.18,3.214,7.18,7.18v96.073c0,3.965,3.214,7.18,7.181,7.18h68.26c3.965,0,7.181-3.214,7.181-7.18v-96.073
	c0-3.965,3.214-7.18,7.18-7.18h16.448c6.397,0,9.601-7.734,5.077-12.257l-64.938-64.938
	C336.639,264.38,332.093,264.38,329.288,267.184z"/>
<g>
</g>
<g>
</g>
<g>
</g>
<g>
</g>
<g>
</g>
<g>
</g>
<g>
</g>
<g>
</g>
<g>
</g>
<g>
</g>
<g>
</g>
<g>
</g>
<g>
</g>
<g>
</g>
<g>
</g>
</svg>
