<?xml version="1.0" encoding="iso-8859-1"?>
<!-- Generator: Adobe Illustrator 19.0.0, SVG Export Plug-In . SVG Version: 6.00 Build 0)  -->
<svg version="1.1" id="Capa_1" xmlns="http://www.w3.org/2000/svg" xmlns:xlink="http://www.w3.org/1999/xlink" x="0px" y="0px"
	 viewBox="0 0 512 512" style="enable-background:new 0 0 512 512;" xml:space="preserve">
<path style="fill:#FFE261;" d="M511.681,256.319c0,60.351-20.903,115.818-55.895,159.545c-0.261,0.334-0.522,0.668-0.793,1.002
	C408.125,474.89,336.399,512,256,512c-76.443,0-145.06-33.552-191.917-86.744c-0.292-0.334-0.595-0.668-0.887-1.012
	C24.03,379.328,0.319,320.584,0.319,256.319c0-61.061,21.394-117.123,57.126-161.089c0.386-0.47,0.772-0.95,1.158-1.419
	c13.953-16.938,30.045-32.038,47.859-44.906c6.846-4.936,13.942-9.549,21.268-13.807C165.426,13.183,209.247,0.639,256,0.639
	c18.409,0,36.369,1.941,53.672,5.646c8.338,1.785,16.531,3.976,24.556,6.543c45.073,14.464,84.698,41.107,114.983,76.047
	c0.417,0.47,0.835,0.95,1.242,1.43C488.638,134.97,511.681,192.963,511.681,256.319z"/>
<path style="fill:#F2F2F7;" d="M455.786,415.864c-0.261,0.334-0.522,0.668-0.793,1.002C408.125,474.89,336.399,512,256,512
	c-76.443,0-145.06-33.552-191.917-86.744c9.789-106.833,7.952-214.469-5.479-321.01c-0.376-3.006-0.762-6.011-1.158-9.017
	c-0.647-4.884-1.315-9.768-2.014-14.642c-1.816-12.805,6.961-24.702,19.734-26.726c10.436-1.649,20.861-3.308,31.297-4.957
	c7.086-1.127,14.182-2.244,21.268-3.371c60.643-9.601,121.287-19.202,181.94-28.814c8.182-1.294,16.374-2.599,24.556-3.893
	c26.393-4.174,52.775-8.349,79.167-12.534c13.055-2.066,25.255,6.971,27.154,20.058c3.308,22.803,6.199,45.647,8.662,68.522
	c0.428,3.955,0.845,7.91,1.242,11.866C461.077,205.475,462.861,310.889,455.786,415.864z"/>
<g>
	<path style="fill:#374266;" d="M136.557,98.349c-0.287-2.203,1.488-4.407,4.574-4.809l18.249-2.374
		c11.637-1.514,21.517,2.758,23.443,17.569l0.057,0.441c1.928,14.811-6.86,21.692-19.026,23.275l-8.729,1.135l2.479,19.044
		c0.367,2.821-2.888,4.678-6.326,5.126c-3.439,0.448-7.06-0.517-7.427-3.336L136.557,98.349z M151.331,104.406l2.42,18.602
		l8.729-1.135c4.936-0.643,7.567-3.854,6.788-9.849l-0.126-0.97c-0.78-5.994-4.145-8.426-9.081-7.783L151.331,104.406z"/>
	<path style="fill:#374266;" d="M186.716,91.822c-0.287-2.203,1.135-4.361,3.693-4.694l18.249-2.374
		c12.078-1.572,22.272,1.674,24.141,16.045c1.285,9.873-2.477,16.101-8.338,19.285l13.291,18.083c0.422,0.483,0.59,1.088,0.648,1.53
		c0.448,3.438-3.655,7.737-7.711,8.265c-1.763,0.23-3.529-0.259-4.74-1.984L210.82,124.1l-5.818,0.758l2.764,21.247
		c0.367,2.82-2.888,4.678-6.326,5.126c-3.438,0.448-7.06-0.517-7.427-3.336L186.716,91.822z M201.489,97.88l2.134,16.398
		l8.728-1.135c4.937-0.643,7.67-3.06,6.868-9.231s-4.065-7.809-9.001-7.167L201.489,97.88z"/>
	<path style="fill:#374266;" d="M238.197,85.124c-0.379-2.91,2.9-4.591,6.338-5.038s7.037,0.339,7.415,3.249l7.296,56.071
		c0.367,2.821-2.888,4.678-6.326,5.126c-3.439,0.448-7.061-0.517-7.427-3.336L238.197,85.124z"/>
	<path style="fill:#374266;" d="M283.472,87.212c-5.025,0.653-7.566,3.854-6.786,9.848l3.04,23.363
		c0.781,5.995,4.055,8.437,9.17,7.772c7.053-0.917,6.794-6.352,6.611-9.825c-0.161-3.296,2.723-4.568,6.249-5.026
		c4.761-0.62,7.126,0.328,7.813,5.618c1.526,11.725-7.125,19.664-19.731,21.305c-11.548,1.503-21.893-2.89-23.866-18.053
		l-3.04-23.363c-1.973-15.163,6.902-22.056,18.451-23.559c12.607-1.641,22.955,3.468,24.412,14.665
		c0.688,5.29-1.356,6.811-6.028,7.419c-3.704,0.482-6.826-0.098-7.416-3.249C291.964,91.845,290.966,86.236,283.472,87.212z"/>
	<path style="fill:#374266;" d="M327.724,96.605l13.224-1.721c2.644-0.344,4.476,2.018,4.843,4.839
		c0.31,2.38-0.558,5.362-3.467,5.741l-13.224,1.721l1.95,14.987l23.627-3.074c2.646-0.344,4.511,2.282,4.935,5.545
		c0.367,2.822-0.465,6.067-3.375,6.446l-31.385,4.085c-2.998,0.39-6.178-0.63-6.545-3.451l-7.284-55.983
		c-0.367-2.822,2.447-4.622,5.444-5.012l31.385-4.084c2.91-0.379,4.545,2.546,4.912,5.367c0.425,3.261-0.708,6.278-3.352,6.622
		l-23.627,3.074L327.724,96.605z"/>
	<path style="fill:#374266;" d="M111.61,221.368c-4.686,0-8.739-3.501-9.313-8.27c-0.62-5.15,3.053-9.828,8.202-10.448
		l298.975-36.002c5.157-0.619,9.828,3.053,10.448,8.202c0.62,5.15-3.052,9.828-8.202,10.448l-298.975,36.002
		C112.364,221.345,111.985,221.368,111.61,221.368z"/>
	<path style="fill:#374266;" d="M116.63,287.671c-4.686,0-8.739-3.501-9.313-8.27c-0.62-5.15,3.053-9.828,8.202-10.448
		l298.974-36.002c5.158-0.619,9.828,3.053,10.448,8.202c0.62,5.15-3.052,9.828-8.202,10.448l-298.974,36.002
		C117.384,287.648,117.005,287.671,116.63,287.671z"/>
	<path style="fill:#374266;" d="M121.304,353.974c-4.686,0-8.739-3.501-9.313-8.27c-0.62-5.15,3.053-9.828,8.202-10.448
		l298.974-36.003c5.158-0.618,9.828,3.052,10.448,8.202c0.62,5.15-3.052,9.828-8.202,10.448L122.44,353.905
		C122.058,353.952,121.679,353.974,121.304,353.974z"/>
	<path style="fill:#374266;" d="M121.304,426.829c-4.686,0-8.739-3.501-9.313-8.27c-0.62-5.15,3.053-9.828,8.202-10.448
		l298.974-36.003c5.158-0.623,9.828,3.053,10.448,8.202c0.62,5.15-3.052,9.828-8.202,10.448L122.44,426.76
		C122.058,426.807,121.679,426.829,121.304,426.829z"/>
</g>
<g>
</g>
<g>
</g>
<g>
</g>
<g>
</g>
<g>
</g>
<g>
</g>
<g>
</g>
<g>
</g>
<g>
</g>
<g>
</g>
<g>
</g>
<g>
</g>
<g>
</g>
<g>
</g>
<g>
</g>
</svg>
