<?xml version="1.0" encoding="iso-8859-1"?>
<!-- Generator: Adobe Illustrator 19.0.0, SVG Export Plug-In . SVG Version: 6.00 Build 0)  -->
<svg version="1.1" id="Capa_1" xmlns="http://www.w3.org/2000/svg" xmlns:xlink="http://www.w3.org/1999/xlink" x="0px" y="0px"
	 viewBox="0 0 512 512" style="enable-background:new 0 0 512 512;" xml:space="preserve">
<path style="fill:#FF526C;" d="M512,256c0,20.814-2.487,41.044-7.178,60.416c-0.366,1.557-0.763,3.103-1.17,4.65
	c-0.178,0.7-0.366,1.4-0.554,2.09c-2.184,8.056-4.754,15.966-7.68,23.698c-0.93,2.445-1.891,4.859-2.894,7.272
	c-1.128,2.706-2.299,5.381-3.511,8.046c-2.999,6.572-6.269,13.009-9.801,19.268c-6.447,11.452-13.751,22.361-21.838,32.622
	c-1.651,2.121-3.354,4.211-5.078,6.269c-6.792,8.108-14.075,15.788-21.807,22.988c-14.9,13.887-31.462,26.018-49.351,36.059
	C344.137,500.151,301.464,512,256,512s-88.137-11.849-125.137-32.622c-17.889-10.041-34.45-22.173-49.351-36.059
	c-9.697-9.038-18.693-18.819-26.906-29.257c-8.056-10.271-15.37-21.18-21.807-32.622c-4.963-8.798-9.415-17.92-13.312-27.335
	c-4.441-10.668-8.171-21.703-11.139-33.04C2.894,300.293,0,278.486,0,256c0-39.978,9.164-77.814,25.506-111.522
	C66.957,58.964,154.593,0,256,0C397.385,0,512,114.615,512,256z"/>
<g>
	<rect x="345.861" y="82.4" style="fill:#FFE261;" width="47.313" height="130.278"/>
	<path style="fill:#FFE261;" d="M463.081,104.591H275.944c-11.374,0-20.593-9.22-20.593-20.593V36.875
		c0-11.374,9.22-20.593,20.593-20.593H463.08c11.374,0,20.593,9.22,20.593,20.593v47.123
		C483.674,95.371,474.454,104.591,463.081,104.591z"/>
</g>
<path style="fill:#65A3E6;" d="M271.538,84.53V36.344c0-2.14,1.735-3.874,3.874-3.874h188.199c2.14,0,3.875,1.735,3.875,3.874V84.53
	c0,2.14-1.735,3.874-3.875,3.874H275.412C273.272,88.405,271.538,86.67,271.538,84.53z"/>
<path style="fill:#FFE261;" d="M479.211,381.44c-7.774,13.814-16.802,26.833-26.917,38.891
	c-6.792,8.108-14.075,15.788-21.807,22.988C384.763,485.93,323.438,512,256,512s-128.763-26.07-174.488-68.681
	c-19.247-17.93-35.725-38.797-48.713-61.879H479.211z"/>
<path style="fill:#F58D2C;" d="M492.523,354.126c-1.128,2.706-2.299,5.381-3.511,8.046c-2.999,6.572-6.269,13.009-9.801,19.268
	H32.799c-4.963-8.798-9.415-17.92-13.312-27.335l27.711-66.748h417.604L492.523,354.126z"/>
<path style="fill:#1B79CF;" d="M48.627,355.318c-0.243-0.508-0.486-1.017-0.725-1.527l16.735-40.311h382.725l16.739,40.318
	c-0.239,0.507-0.48,1.014-0.721,1.519L48.627,355.318L48.627,355.318z"/>
<path style="fill:#FFE261;" d="M436.933,190.482H75.067c-15.392,0-27.871,12.478-27.871,27.871v69.007h417.609v-69.007
	C464.805,202.96,452.327,190.482,436.933,190.482z"/>
<rect x="345.861" y="104.594" style="fill:#F58D2C;" width="47.313" height="26.474"/>
<g>
	<rect x="80.583" y="219.951" style="fill:#65A3E6;" width="142.639" height="37.94"/>
	<path style="fill:#65A3E6;" d="M457.373,414.062c-1.651,2.121-3.354,4.211-5.078,6.269c-6.792,8.108-14.075,15.788-21.807,22.988
		c-14.9,13.887-31.462,26.018-49.351,36.059H130.863c-17.889-10.041-34.45-22.173-49.351-36.059
		c-9.697-9.038-18.693-18.819-26.906-29.257H457.373z"/>
	<circle style="fill:#65A3E6;" cx="293.658" cy="242.448" r="18.807"/>
	<circle style="fill:#65A3E6;" cx="354.774" cy="242.448" r="18.807"/>
</g>
<g>
</g>
<g>
</g>
<g>
</g>
<g>
</g>
<g>
</g>
<g>
</g>
<g>
</g>
<g>
</g>
<g>
</g>
<g>
</g>
<g>
</g>
<g>
</g>
<g>
</g>
<g>
</g>
<g>
</g>
</svg>
