<?xml version="1.0" encoding="iso-8859-1"?>
<!-- Generator: Adobe Illustrator 19.0.0, SVG Export Plug-In . SVG Version: 6.00 Build 0)  -->
<svg version="1.1" id="Capa_1" xmlns="http://www.w3.org/2000/svg" xmlns:xlink="http://www.w3.org/1999/xlink" x="0px" y="0px"
	 viewBox="0 0 512.001 512.001" style="enable-background:new 0 0 512.001 512.001;" xml:space="preserve">
<path style="fill:#FFE261;" d="M512,256.001c0,13.134-0.993,26.039-2.905,38.651c-2.288,15.161-5.914,29.874-10.762,44.032
	c-3.156,9.31-6.855,18.38-11.045,27.167v0.01c-4.044,8.505-8.558,16.76-13.49,24.722c-0.961,1.546-1.933,3.093-2.926,4.618
	c-6.134,9.467-12.894,18.495-20.198,27.042c-5.141,6.008-10.564,11.786-16.227,17.293c-5.496,5.36-11.233,10.459-17.199,15.287
	c-1.16,0.951-2.33,1.891-3.511,2.811c-16.279,12.758-34.158,23.594-53.279,32.141c-8.683,3.897-17.627,7.314-26.802,10.219
	c-13.354,4.253-27.178,7.429-41.378,9.446h-0.01C280.419,511.133,268.319,512,256,512c-59.329,0-113.946-20.177-157.351-54.053
	c-14.869-11.598-28.421-24.806-40.396-39.361C21.849,374.377,0,317.733,0,256.001c0-36.958,7.837-72.098,21.932-103.831
	c14.89-33.51,36.749-63.216,63.76-87.291C130.936,24.524,190.6,0.001,256,0.001c45.808,0,88.806,12.027,125.994,33.113
	c25.412,14.378,48.107,32.987,67.156,54.868C488.302,132.932,512,191.708,512,256.001z"/>
<g>
	<path style="fill:#FF526C;" d="M317.586,99.734c31.486,0,63.241,19.813,63.241,56.184c0,58.899-83.869,78.169-83.869,102.868v2.444
		h71.111c6.787,0,12.757,8.414,12.757,18.184s-5.971,18.728-12.757,18.728h-96.626c-7.6,0-18.456-5.158-18.456-13.028v-26.328
		c0-42.613,85.498-67.041,85.498-101.511c0-8.685-5.429-19.271-20.627-19.271c-10.859,0-20.358,5.428-20.358,20.357
		c0,7.872-8.414,15.471-22.256,15.471c-10.856,0-19-4.886-19-21.985C256.244,118.733,286.644,99.734,317.586,99.734z"/>
	<path style="fill:#FF526C;" d="M444.959,256.343h-63.513c-7.872,0-14.114-5.157-14.114-14.657c0-2.171,0.543-5.158,2.171-8.143
		l62.699-122.954c4.072-7.871,10.857-10.856,17.643-10.856c7.328,0,21.171,6.242,21.171,16.014c0,1.628-0.543,3.257-1.357,5.158
		l-48.042,96.354h23.344v-18.999c0-8.957,10.585-12.756,21.17-12.756c10.587,0,21.171,3.799,21.171,12.756v18.999h11.672
		c8.685,0,13.029,9.772,13.029,19.543c0,9.771-6.515,19.542-13.029,19.542h-11.672v28.771c0,8.685-10.585,13.028-21.171,13.028
		c-10.585,0-21.17-4.343-21.17-13.028v-28.771H444.959z"/>
</g>
<g>
	<path style="fill:#1B79CF;" d="M58.032,22.604L88.069,8.381c12.083-5.721,26.534-1.72,33.953,9.402l0,0l-0.013,0.013
		l78.912,118.367c6.199,9.3,6.017,21.46-0.461,30.568l-24.785,34.854l-1.019-0.735L87.19,130.081L58.032,22.604z"/>
	<path style="fill:#1B79CF;" d="M470.873,395.202c-6.134,9.467-12.894,18.495-20.198,27.042
		c-5.141,6.008-10.564,11.786-16.227,17.293c-5.496,5.36-11.233,10.459-17.199,15.287l-43.823-55.212l-0.742-1.045l49.988-35.506
		L470.873,395.202z"/>
</g>
<path style="fill:#65A3E6;" d="M434.448,439.537c-5.496,5.36-11.233,10.459-17.199,15.287c-1.16,0.951-2.33,1.891-3.511,2.811
	c-16.279,12.758-34.158,23.594-53.279,32.141c-8.683,3.897-17.627,7.314-26.802,10.219
	C220.17,423.707,129.693,329.958,56.184,212.742c-4.315-6.865-8.558-13.803-12.748-20.825c-0.846-1.421-1.682-2.821-2.508-4.242
	l-12.925-21.964c-2.539-4.315-4.577-8.861-6.071-13.542c-4.838-15.036-4.295-31.451,1.839-46.341l34.262-83.226l19.446,29.727
	l8.213,12.549l88.963,135.973l1.024,0.731l-23.98,33.729c23.239,40.95,39.926,66.476,80.353,106.904
	c40.438,40.438,65.954,57.114,106.903,80.342l33.729-23.991l0.742,1.045L434.448,439.537z"/>
<path style="fill:#1B79CF;" d="M77.479,52.339c0,0-53.541,85.159-21.295,160.402c-4.315-6.865-8.558-13.803-12.748-20.825
	c-0.846-1.421-1.682-2.821-2.508-4.242l-12.925-21.964c-10.71-18.202-12.278-40.364-4.232-59.883l34.262-83.226l19.446,29.727
	V52.339z"/>
<g>
</g>
<g>
</g>
<g>
</g>
<g>
</g>
<g>
</g>
<g>
</g>
<g>
</g>
<g>
</g>
<g>
</g>
<g>
</g>
<g>
</g>
<g>
</g>
<g>
</g>
<g>
</g>
<g>
</g>
</svg>
