<?xml version="1.0" encoding="iso-8859-1"?>
<!-- Generator: Adobe Illustrator 19.0.0, SVG Export Plug-In . SVG Version: 6.00 Build 0)  -->
<svg version="1.1" id="Capa_1" xmlns="http://www.w3.org/2000/svg" xmlns:xlink="http://www.w3.org/1999/xlink" x="0px" y="0px"
	 viewBox="0 0 512 512" style="enable-background:new 0 0 512 512;" xml:space="preserve">
<path style="fill:#374266;" d="M512,256c0,67.908-26.436,129.64-69.59,175.459c-0.825,0.878-1.661,1.745-2.497,2.612
	c-20.323,20.982-44.199,38.494-70.656,51.576C335.109,502.523,296.667,512,256,512c-59.047,0-113.424-19.989-156.735-53.582
	c-14.388-11.149-27.544-23.803-39.246-37.71c-15.862-18.85-29.048-40.02-38.985-62.934c-0.157-0.355-0.313-0.721-0.47-1.087
	C7.325,325.778,0,291.746,0,256C0,114.615,114.615,0,256,0S512,114.615,512,256z"/>
<path style="fill:#FFE261;" d="M399.151,134.029c0,0-17.241,41.273,16.718,75.233s32.392,35.527,22.465,45.453
	c-9.927,9.927-73.665-33.959-62.168-99.791"/>
<g>
	<path style="fill:#1AB0AE;" d="M362.647,47.794c-28.043,30.291-60.762,55.889-96.91,75.819c-5.266,2.904-11.888,0.926-14.64-4.421
		c-6.82-13.248-13.64-26.497-20.46-39.745c-2.624-5.098-0.736-11.36,4.275-14.147c29.233-16.257,55.739-36.994,78.552-61.457
		c3.91-4.193,10.443-4.519,14.759-0.746c11.218,9.807,22.436,19.615,33.654,29.422C366.407,36.477,366.733,43.38,362.647,47.794z"/>
	<path style="fill:#1AB0AE;" d="M442.232,378.527c-37.643-16.938-72.328-39.802-102.731-67.723
		c-4.429-4.068-4.662-10.974-0.471-15.286c10.387-10.684,20.775-21.367,31.161-32.051c3.997-4.111,10.535-4.314,14.772-0.452
		c24.719,22.535,52.816,41.058,83.271,54.894c5.22,2.372,7.609,8.461,5.406,13.754c-5.725,13.757-11.449,27.514-17.174,41.271
		C454.155,378.487,447.717,380.995,442.232,378.527z"/>
</g>
<g>
	<path style="fill:#ED8C40;" d="M439.912,434.072C393.383,482.126,328.182,512,256,512c-105.639,0-196.336-63.99-235.436-155.314
		c19.54-226.189,205.688-272.029,252.301-279.98c6.552-1.118,13.27,0.219,18.902,3.751l23.855,14.994l62.819,39.487
		c11.055,6.949,15.538,20.814,10.658,32.914C362.245,234.569,408.398,337.481,439.912,434.072z"/>
	<path style="fill:#ED8C40;" d="M308.831,65.351c0,0,7.838-65.349,92.469-65.349S432.1,53.834,432.1,53.834
		s67.939-4.156,67.939,47.565s-108.143,17.239-108.143,17.239L308.831,65.351z"/>
</g>
<g>
	<path style="fill:#B55D14;" d="M99.265,458.418c-34.179-26.499-61.461-61.45-78.702-101.731
		c19.54-226.189,205.688-272.029,252.301-279.98c6.552-1.118,13.27,0.219,18.902,3.751l23.855,14.994l1.348,2.55
		C316.97,98.001,40.751,150.747,99.265,458.418z"/>
	<path style="fill:#B55D14;" d="M333.322,90.143c0,0,5.224-45.976,45.975-45.976s-19.331,60.082-19.331,60.082
		s46.498-43.363,72.62-17.241s-62.694,27.167-62.694,27.167L333.322,90.143z"/>
</g>
<path style="fill:#FFE261;" d="M412.178,146.204L412.178,146.204c-4.989,7.074-14.768,8.764-21.841,3.775l-98.572-69.52
	c-7.074-4.989-8.764-14.768-3.775-21.841l0,0c4.989-7.074,14.768-8.764,21.841-3.775l98.571,69.52
	C415.476,129.351,417.167,139.13,412.178,146.204z"/>
<path style="fill:#F58D2C;" d="M291.772,80.455c-7.074-4.984-8.767-14.764-3.783-21.838c3.051-4.326,7.899-6.646,12.831-6.646
	c3.114,0,6.269,0.93,9.017,2.873l23.061,16.269c-2.194-1.076-4.556-1.599-6.896-1.599c-4.921,0-9.759,2.309-12.81,6.635
	c-4.984,7.074-3.302,16.854,3.772,21.849L291.772,80.455z"/>
<path style="fill:#B55D14;" d="M306.539,393.271c9.605-59.422-65.869-67.025-62.058-90.605c1.182-7.31,9.125-13.043,25.866-10.337
	c19.337,3.125,22.368,12.81,30.857,14.182c10.376,1.677,16.717-10.607,17.747-16.973c1.918-11.871-11.581-19.361-24.757-23.737
	l2.198-13.604c1.146-7.093-3.674-13.772-10.767-14.918l-15.779-2.551c-7.093-1.146-13.772,3.674-14.918,10.767l-2.408,14.897
	c-21.773,2.167-41.148,13.564-45.399,39.864c-8.919,55.178,66.631,62.309,62.019,90.841c-1.83,11.318-14.541,13.619-25.388,11.867
	c-21.931-3.545-26.184-22.137-37.267-23.929c-8.961-1.448-17.941,9.198-19.237,17.215c-2.105,13.023,14.033,28.618,37.444,36.299
	l-1.852,11.457c-1.146,7.093,3.674,13.772,10.767,14.918l15.779,2.551c7.092,1.146,13.772-3.674,14.918-10.767l2.401-14.855
	C287.442,431.626,302.635,417.426,306.539,393.271z"/>
<g>
	<path style="fill:#1AB0AE;" d="M121.614,177.75c-37.955-16.228-73.062-38.438-103.984-65.783
		c-4.505-3.984-4.868-10.885-0.758-15.274c10.185-10.876,20.369-21.754,30.554-32.63c3.918-4.185,10.452-4.512,14.76-0.729
		c25.137,22.067,53.578,40.059,84.287,53.321c5.263,2.273,7.767,8.316,5.664,13.651c-5.466,13.862-10.931,27.724-16.397,41.587
		C133.535,177.486,127.143,180.114,121.614,177.75z"/>
	<path style="fill:#1AB0AE;" d="M442.41,431.459c-0.825,0.878-1.661,1.745-2.497,2.612c-20.323,20.982-44.199,38.494-70.656,51.576
		c-19.289-3.626-38.306-8.725-56.884-15.276c-5.674-2.006-8.6-8.265-6.437-13.876c5.35-13.908,10.7-27.805,16.05-41.712
		c2.058-5.35,7.993-8.108,13.406-6.228c31.587,11.003,64.711,16.99,98.147,17.742C437.321,426.392,440.592,428.429,442.41,431.459z"
		/>
	<path style="fill:#1AB0AE;" d="M139.536,382.318c-25.13,15.559-51.775,28.421-79.517,38.39
		c-15.862-18.85-29.048-40.02-38.985-62.934c27.867-8.652,54.554-20.752,79.464-36.059c5.339-3.281,12.319-1.724,15.768,3.511
		c8.965,13.594,17.93,27.188,26.896,40.772C146.787,371.493,145.126,378.859,139.536,382.318z"/>
</g>
<g>
</g>
<g>
</g>
<g>
</g>
<g>
</g>
<g>
</g>
<g>
</g>
<g>
</g>
<g>
</g>
<g>
</g>
<g>
</g>
<g>
</g>
<g>
</g>
<g>
</g>
<g>
</g>
<g>
</g>
</svg>
