<?xml version="1.0" encoding="iso-8859-1"?>
<!-- Generator: Adobe Illustrator 19.0.0, SVG Export Plug-In . SVG Version: 6.00 Build 0)  -->
<svg version="1.1" id="Capa_1" xmlns="http://www.w3.org/2000/svg" xmlns:xlink="http://www.w3.org/1999/xlink" x="0px" y="0px"
	 viewBox="0 0 512 512" style="enable-background:new 0 0 512 512;" xml:space="preserve">
<path style="fill:#374266;" d="M512,256c0,2.79-0.042,5.569-0.136,8.338c-1.17,36.78-10.115,71.607-25.224,102.891
	c-0.272,0.554-0.533,1.108-0.815,1.651c-27.805,56.529-75.86,101.292-134.687,124.855C321.724,505.522,289.625,512,256,512
	s-65.724-6.478-95.138-18.265c-24.869-9.958-47.804-23.698-68.096-40.532c-28.202-23.353-51.304-52.652-67.406-85.974
	C9.112,333.594,0,295.852,0,256C0,114.615,114.615,0,256,0S512,114.615,512,256z"/>
<path style="fill:#58D1C1;" d="M400.425,139.975c-29.584,35.167-61.069,68.632-94.281,100.268
	c-29.542,28.151-60.466,54.841-92.645,79.986l-39.939-3.418l-31.929-2.741l-21.813-78.915l-7.177-25.959l-40.793,16.182l0,0
	c-14.763,5.893-27.117-12.522-16.065-23.948c36.841-38.09,80.973-84.646,90.9-93.674c33.471-30.443,64.953-63.054,94.249-97.646
	c10.054-11.872,27.771-13.495,39.904-3.768c38.508,30.892,77.031,61.784,115.539,92.677
	C408.963,109.111,410.821,127.624,400.425,139.975z"/>
<path style="fill:#1AB0AE;" d="M381.017,121.214c-30.009,35.777-61.955,69.716-95.713,101.713
	c-35.313,33.463-72.612,64.801-111.745,93.883l-31.929-2.741l-21.813-78.915l-7.177-25.959l-8.403-30.388
	c21.826-17.064,42.959-34.963,63.364-53.67c33.685-30.849,65.397-63.867,94.977-98.915L381.017,121.214z"/>
<g>
	
		<ellipse transform="matrix(0.74 -0.6726 0.6726 0.74 -68.2549 193.8009)" style="fill:#58D1C1;" cx="216.551" cy="185.187" rx="42.224" ry="56.915"/>
	<path style="fill:#58D1C1;" d="M457.656,195.079c-40.975,20.808-83.034,39.308-125.969,55.449
		c-38.194,14.367-77.089,26.85-116.536,37.419l-35.427-18.754l-28.319-15.001l10.761-81.163l3.539-26.7l-43.873-1.046l-72.095-1.567
		c21.204-5.936,166.168-70.187,186.945-77.454c42.706-14.942,84.43-32.656,124.913-53.047c13.896-7,30.838-1.569,38.205,12.126
		c23.372,43.486,46.759,86.974,70.131,130.46C477.576,170.008,472.052,187.774,457.656,195.079z"/>
</g>
<path style="fill:#1AB0AE;" d="M447.122,170.226c-41.605,21.204-84.273,39.959-127.852,56.22
	c-45.583,17-92.162,31.271-139.547,42.747l-28.319-15.001l10.761-81.163l3.539-26.7l4.141-31.255
	c26.759-7.177,53.206-15.394,79.299-24.639c43.062-15.231,85.156-33.231,126.081-53.931L447.122,170.226z"/>
<ellipse transform="matrix(0.944 -0.3299 0.3299 0.944 -39.2216 98.5495)" style="fill:#58D1C1;" cx="270.748" cy="164.834" rx="42.224" ry="56.915"/>
<path style="fill:#ED8C40;" d="M486.64,159.619v207.611c-27.69,57.302-76.1,102.713-135.502,126.506H160.862
	C101.46,469.943,53.049,424.532,25.36,367.229V159.619c0-23.207,18.808-42.026,42.015-42.026h377.24
	C467.822,117.593,486.64,136.411,486.64,159.619z"/>
<g>
	<path style="fill:#B55D14;" d="M92.745,159.619V451.72c0,0.491,0.01,0.993,0.021,1.484c-28.202-23.353-51.304-52.652-67.406-85.974
		V159.619c0-23.207,18.808-42.026,42.015-42.026h67.396C111.564,117.593,92.745,136.411,92.745,159.619z"/>
	<path style="fill:#B55D14;" d="M511.864,264.338c-1.17,36.78-10.115,71.607-25.224,102.891c-0.272,0.554-0.533,1.108-0.815,1.651
		h-96.58c-13.521,0-24.482-10.961-24.482-24.482V266.94c0-13.521,10.961-24.482,24.482-24.482h98.273
		C500.161,242.458,510.568,252.04,511.864,264.338z"/>
</g>
<circle style="fill:#FFE261;" cx="424.302" cy="305.664" r="39.195"/>
<path style="fill:#F58D2C;" d="M438.677,342.143c-4.451,1.755-9.3,2.717-14.378,2.717c-21.64,0-39.194-17.544-39.194-39.194
	c0-21.65,17.554-39.194,39.194-39.194c5.078,0,9.927,0.961,14.378,2.717c-14.535,5.736-24.827,19.905-24.827,36.477
	C413.851,322.238,424.143,336.407,438.677,342.143z"/>
<path style="fill:#B55D14;" d="M311.12,347.817c0-60.194-75.721-55.655-75.721-79.542c0-7.405,6.927-14.332,23.886-14.332
	c19.588,0,24.126,9.077,32.724,9.077c10.511,0,14.81-13.139,14.81-19.588c0-12.025-14.521-17.265-28.227-19.482v-13.78
	c0-7.185-5.824-13.009-13.009-13.009h-15.984c-7.185,0-13.009,5.824-13.009,13.009v15.09c-21.148,5.613-38.456,19.955-38.456,46.597
	c0,55.895,75.72,50.878,75.72,79.781c0,11.466-12.181,15.765-23.169,15.765c-22.216,0-29.38-17.675-40.608-17.675
	c-9.077,0-16.243,11.943-16.243,20.064c0,13.192,18.419,26.012,42.756,29.859v11.606c0,7.185,5.824,13.009,13.009,13.009h15.984
	c7.184,0,13.009-5.824,13.009-13.009V396.21C298.389,388.728,311.12,372.287,311.12,347.817z"/>
<g>
</g>
<g>
</g>
<g>
</g>
<g>
</g>
<g>
</g>
<g>
</g>
<g>
</g>
<g>
</g>
<g>
</g>
<g>
</g>
<g>
</g>
<g>
</g>
<g>
</g>
<g>
</g>
<g>
</g>
</svg>
