<?xml version="1.0" encoding="iso-8859-1"?>
<!-- Generator: Adobe Illustrator 19.0.0, SVG Export Plug-In . SVG Version: 6.00 Build 0)  -->
<svg version="1.1" id="Capa_1" xmlns="http://www.w3.org/2000/svg" xmlns:xlink="http://www.w3.org/1999/xlink" x="0px" y="0px"
	 viewBox="0 0 512 512" style="enable-background:new 0 0 512 512;" xml:space="preserve">
<circle style="fill:#FFE261;" cx="255.998" cy="256" r="255.998"/>
<path style="fill:#65A3E6;" d="M512,256.002c0,2.361-0.031,4.712-0.094,7.053v0.01c-0.031,0.888-0.063,1.776-0.094,2.664
	c-0.585,15.861-2.623,31.357-5.987,46.351c-0.92,4.19-1.964,8.349-3.103,12.455c-2.121,7.649-4.587,15.161-7.377,22.497
	c-3.877,10.177-8.38,20.041-13.469,29.55c-6.363,11.901-13.646,23.238-21.744,33.917c-12.831,16.917-27.711,32.204-44.283,45.463
	c-29.226,23.406-63.707,40.531-101.386,49.329c-10.888,2.55-22.047,4.389-33.416,5.496L36.355,266.085
	c-15.893-15.893-15.893-41.66,0-57.542L147.27,97.638l64.271-64.282l5.548-5.548l0.376-0.366l15.506-15.517
	c7.502-7.502,17.22-11.473,27.052-11.891c1.829-0.073,3.657-0.021,5.475,0.146c9.122,0.836,18.024,4.754,25.015,11.745
	l220.399,220.399C511.634,240.12,512,248.019,512,256.002z"/>
<path style="fill:#374266;" d="M502.721,324.537c-8.735,31.514-23.343,60.593-42.59,85.963L147.26,97.628l64.282-64.271
	L343.25,165.065L502.721,324.537z"/>
<circle style="fill:#FF526C;" cx="141.405" cy="240.274" r="64.261"/>
<circle style="fill:#FFE261;" cx="198.028" cy="296.897" r="64.261"/>
<circle style="fill:#FF526C;" cx="386.965" cy="125.044" r="125.032"/>
<g>
	<path style="fill:#FFFFFF;" d="M340.737,186.311l-15.047-15.047c-5.638-5.638-5.638-14.778,0-20.416l87.081-87.081
		c5.638-5.638,14.778-5.638,20.416,0l15.047,15.047c5.638,5.638,5.638,14.778,0,20.416l-87.081,87.081
		C355.515,191.949,346.374,191.949,340.737,186.311z"/>
	<path style="fill:#FFFFFF;" d="M325.69,78.815l15.047-15.047c5.638-5.638,14.778-5.638,20.416,0l87.081,87.081
		c5.638,5.638,5.638,14.778,0,20.416l-15.047,15.047c-5.638,5.638-14.778,5.638-20.416,0L325.69,99.231
		C320.051,93.592,320.051,84.452,325.69,78.815z"/>
</g>
<g>
</g>
<g>
</g>
<g>
</g>
<g>
</g>
<g>
</g>
<g>
</g>
<g>
</g>
<g>
</g>
<g>
</g>
<g>
</g>
<g>
</g>
<g>
</g>
<g>
</g>
<g>
</g>
<g>
</g>
</svg>
