<?xml version="1.0" encoding="iso-8859-1"?>
<!-- Generator: Adobe Illustrator 19.0.0, SVG Export Plug-In . SVG Version: 6.00 Build 0)  -->
<svg version="1.1" id="Capa_1" xmlns="http://www.w3.org/2000/svg" xmlns:xlink="http://www.w3.org/1999/xlink" x="0px" y="0px"
	 viewBox="0 0 512 512" style="enable-background:new 0 0 512 512;" xml:space="preserve">
<circle style="fill:#58D1C1;" cx="256" cy="256" r="256"/>
<rect x="167.309" y="375.4" style="fill:#374266;" width="185.992" height="58.514"/>
<g>
	<path style="fill:#495B94;" d="M390.011,446.454H130.605c-8.079,0-14.629-6.549-14.629-14.629l0,0
		c0-8.079,6.549-14.629,14.629-14.629h259.406c8.079,0,14.629,6.549,14.629,14.629l0,0
		C404.64,439.904,398.09,446.454,390.011,446.454z"/>
	<path style="fill:#495B94;" d="M495.41,71.397v275.456c-5.266,13.887-11.713,27.188-19.205,39.79
		c-5.183,2.8-11.118,4.399-17.429,4.399H53.241c-6.311,0-12.257-1.599-17.439-4.399c-7.492-12.601-13.939-25.903-19.195-39.779
		V71.397c0-20.229,16.394-36.634,36.634-36.634h405.535C479.005,34.763,495.41,51.168,495.41,71.397z"/>
</g>
<path style="fill:#FFE261;" d="M53.235,363.874c-5.218,0-9.464-4.245-9.464-9.464V71.395c0-5.218,4.245-9.464,9.464-9.464h405.543
	c5.219,0,9.465,4.245,9.465,9.464v283.016c0,5.218-4.245,9.464-9.465,9.464H53.235z"/>
<path style="fill:#F58D2C;" d="M383.349,102.681h-84.895H213.56h-84.894H43.772v67.869v12.588v7.362
	c0,23.443,19.005,42.447,42.447,42.447l0,0c23.443,0,42.447-19.005,42.447-42.447c0,23.443,19.005,42.447,42.447,42.447l0,0
	c23.443,0,42.447-19.005,42.447-42.447c0,23.443,19.005,42.447,42.447,42.447l0,0c23.443,0,42.447-19.005,42.447-42.447
	c0,23.443,19.005,42.447,42.447,42.447l0,0c23.443,0,42.447-19.005,42.447-42.447c0,23.443,19.005,42.447,42.447,42.447l0,0
	c23.443,0,42.447-19.005,42.447-42.447v-7.362V170.55v-67.869H383.349z"/>
<g>
	<path style="fill:#65A3E6;" d="M123.05,244.223c-9.989-4.42-18.495-7.732-18.495-14.232c0-0.418,0.031-0.846,0.104-1.254
		c0.616-3.709,4.065-7.011,11.285-7.941c1.317-0.167,2.769-0.261,4.357-0.261c12.915,0,15.914,5.987,21.588,5.987
		c1.766,0,3.281-0.564,4.535-1.494c3.657-2.654,5.225-8.255,5.225-11.421c0-8.882-12.027-12.173-21.849-13.312
		c-0.763-0.084-1.505-0.157-2.226-0.219c-2.873-0.261-5.433-0.334-7.272-0.334c-18.129,0-37.063,7.617-39.946,27.282
		c-0.251,1.682-0.376,3.459-0.376,5.329v0.136c0.125,36.718,49.936,33.437,49.936,52.475c0,7.565-8.035,10.397-15.287,10.397
		c-14.649,0-19.372-11.651-26.77-11.651c-5.987,0-10.721,7.868-10.721,13.228c0,10.397,17.335,20.48,37.972,20.48
		c22.841,0,39.382-12.288,39.382-34.973C154.491,259.134,137.261,250.534,123.05,244.223z"/>
	<path style="fill:#65A3E6;" d="M234.823,200.693c-6.144,0-12.288,2.205-12.288,7.398v38.599h-31.347V208.09
		c0-5.193-6.144-7.398-12.288-7.398c-6.144,0-12.288,2.205-12.288,7.398v100.185c0,5.047,6.144,7.565,12.288,7.565
		c6.144,0,12.288-2.518,12.288-7.565v-42.684h31.347v42.684c0,5.047,6.144,7.565,12.288,7.565c6.144,0,12.288-2.518,12.288-7.565
		V208.09C247.111,202.897,240.967,200.693,234.823,200.693z"/>
	<path style="fill:#65A3E6;" d="M340.013,232.938c-1.975-23.395-18.192-32.246-38.557-32.246c-0.585,0-1.17,0.01-1.755,0.031
		c-0.846,0.01-1.682,0.052-2.508,0.104c-18.139,1.181-32.057,10.209-34.074,31.525c-0.167,1.755-0.251,3.594-0.251,5.517v41.744
		c0,27.094,16.854,37.167,38.588,37.167c21.744,0,38.755-10.073,38.755-37.167V237.87
		C340.211,236.156,340.138,234.516,340.013,232.938z M315.635,279.614c0,10.867-5.36,15.747-14.179,15.747
		s-14.012-4.88-14.012-15.747V237.87c0-10.877,5.193-15.757,14.012-15.757c2.738,0,5.141,0.47,7.158,1.442
		c4.472,2.163,7.022,6.813,7.022,14.315V279.614z"/>
	<path style="fill:#65A3E6;" d="M434.681,232.008c-1.933-22.768-17.513-31.316-36.969-31.316h-32.611
		c-5.517,0-9.132,3.459-9.132,7.398v100.185c0,5.047,6.134,7.565,12.278,7.565s12.288-2.518,12.288-7.565v-34.022h15.6
		c19.529,0,35.244-8.14,38.233-29.006c0.334-2.351,0.512-4.859,0.512-7.544v-0.784C434.879,235.216,434.806,233.575,434.681,232.008
		z M410.314,239.594c0,10.71-5.36,15.757-14.179,15.757h-15.6v-33.238h15.705c0.439,0,0.867,0.021,1.285,0.042
		c5.329,0.345,9.237,2.706,11.254,7.241c1.003,2.267,1.536,5.089,1.536,8.474V239.594z"/>
</g>
<path style="fill:#257ECC;" d="M127.575,200.076c-1.818,7.879-5.82,14.911-11.337,20.438c-0.094,0.094-0.188,0.188-0.293,0.282
	c-7.22,0.93-10.668,4.232-11.285,7.941c-5.58,2.696-11.828,4.211-18.442,4.211c-2.121,0-4.2-0.157-6.238-0.46v-0.136
	c0-1.87,0.125-3.647,0.376-5.329c2.884-19.665,21.817-27.282,39.946-27.282C122.141,199.742,124.701,199.815,127.575,200.076z"/>
<path style="fill:#306B91;" d="M151.649,213.607c0,3.166-1.567,8.767-5.225,11.421c-8.213-5.872-14.232-14.597-16.624-24.733
	C139.622,201.434,151.649,204.726,151.649,213.607z"/>
<g>
	<path style="fill:#257ECC;" d="M191.188,208.09v19.822c-5.977,3.208-12.81,5.036-20.072,5.036c-1.526,0-3.03-0.084-4.504-0.24
		V208.09c0-5.193,6.144-7.398,12.288-7.398C185.044,200.693,191.188,202.897,191.188,208.09z"/>
	<path style="fill:#257ECC;" d="M247.111,208.09v23.918c-9.916-2.111-18.547-7.69-24.576-15.402v-8.516
		c0-5.193,6.144-7.398,12.288-7.398S247.111,202.897,247.111,208.09z"/>
	<path style="fill:#257ECC;" d="M297.193,200.828c-1.891,7.576-5.82,14.336-11.17,19.686c-6.092,6.092-14.033,10.344-22.904,11.839
		C265.136,211.037,279.054,202.009,297.193,200.828z"/>
	<path style="fill:#257ECC;" d="M340.013,232.938c-19.529-0.397-35.809-13.991-40.312-32.214c0.585-0.021,1.17-0.031,1.755-0.031
		C321.821,200.693,338.038,209.543,340.013,232.938z"/>
	<path style="fill:#257ECC;" d="M365.101,200.693h17.011c-1.881,7.628-5.82,14.44-11.191,19.822
		c-4.211,4.201-9.289,7.534-14.952,9.676v-22.1C355.969,204.151,359.584,200.693,365.101,200.693z"/>
	<path style="fill:#257ECC;" d="M434.681,232.008c-2.863,0.616-5.831,0.94-8.882,0.94c-6.05,0-11.807-1.264-17.021-3.553
		c-2.017-4.535-5.925-6.896-11.254-7.241c-6.269-5.59-10.867-13.03-12.946-21.462h13.134
		C417.168,200.693,432.748,209.24,434.681,232.008z"/>
</g>
<rect x="43.772" y="61.931" style="fill:#E83150;" width="424.469" height="80.457"/>
<path style="fill:#FF526C;" d="M86.219,192.196L86.219,192.196c-23.443,0-42.447-19.005-42.447-42.447v-19.95h84.894v19.95
	C128.667,173.192,109.662,192.196,86.219,192.196z"/>
<path style="fill:#F2F2F7;" d="M171.114,192.196L171.114,192.196c-23.443,0-42.447-19.005-42.447-42.447v-19.95h84.894v19.95
	C213.56,173.192,194.556,192.196,171.114,192.196z"/>
<path style="fill:#FF526C;" d="M256.007,192.196L256.007,192.196c-23.443,0-42.447-19.005-42.447-42.447v-19.95h84.894v19.95
	C298.454,173.192,279.451,192.196,256.007,192.196z"/>
<path style="fill:#F2F2F7;" d="M340.902,192.196L340.902,192.196c-23.443,0-42.447-19.005-42.447-42.447v-19.95h84.894v19.95
	C383.349,173.192,364.344,192.196,340.902,192.196z"/>
<path style="fill:#FF526C;" d="M425.796,192.196L425.796,192.196c-23.443,0-42.447-19.005-42.447-42.447v-19.95h84.894v19.95
	C468.243,173.192,449.239,192.196,425.796,192.196z"/>
<g>
	<rect x="128.669" y="61.931" style="fill:#E3E7FC;" width="84.898" height="67.869"/>
	<rect x="298.454" y="61.931" style="fill:#E3E7FC;" width="84.898" height="67.869"/>
</g>
<g>
</g>
<g>
</g>
<g>
</g>
<g>
</g>
<g>
</g>
<g>
</g>
<g>
</g>
<g>
</g>
<g>
</g>
<g>
</g>
<g>
</g>
<g>
</g>
<g>
</g>
<g>
</g>
<g>
</g>
</svg>
