<?xml version="1.0" encoding="iso-8859-1"?>
<!-- Generator: Adobe Illustrator 19.0.0, SVG Export Plug-In . SVG Version: 6.00 Build 0)  -->
<svg version="1.1" id="Capa_1" xmlns="http://www.w3.org/2000/svg" xmlns:xlink="http://www.w3.org/1999/xlink" x="0px" y="0px"
	 viewBox="0 0 512 512" style="enable-background:new 0 0 512 512;" xml:space="preserve">
<path style="fill:#374266;" d="M512,256c0,47.031-12.685,91.094-34.816,128.972c-25.652,43.896-63.99,79.475-109.996,101.689
	c-20.511,9.906-42.538,17.157-65.651,21.295C286.762,510.61,271.538,512,256,512c-20.396,0-40.229-2.382-59.235-6.896
	c-1.745-0.408-3.49-0.836-5.224-1.285c-23.28-6.04-45.265-15.266-65.473-27.199c-11.254-6.646-21.953-14.117-32.016-22.361
	c-23.646-19.32-43.76-42.799-59.246-69.308C12.675,347.084,0,303.02,0,256s12.675-91.084,34.806-128.951
	c5.287-9.059,11.118-17.763,17.45-26.07C99.025,39.612,172.889,0,256,0s156.975,39.612,203.745,100.979
	c6.322,8.296,12.152,17,17.439,26.049C499.315,164.906,512,208.969,512,256z"/>
<g>
	<path style="fill:#FF526C;" d="M384.369,27.05l-101.641,75.885h142.874V47.723C425.602,26.489,401.383,14.346,384.369,27.05z"/>
	<path style="fill:#FF526C;" d="M143.155,27.05l101.641,75.885H101.922V47.723C101.922,26.489,126.141,14.346,143.155,27.05z"/>
</g>
<g>
	<path style="fill:#E83150;" d="M144.625,28.147l-1.469-1.097c-17.014-12.703-41.233-0.561-41.233,20.673v55.212h33.717V47.724
		C135.638,39.546,139.237,32.728,144.625,28.147z"/>
	<path style="fill:#E83150;" d="M285.791,68.334h-45.323c-10.179,0-18.431,8.252-18.431,18.431v40.994h82.184V86.765
		C304.222,76.586,295.97,68.334,285.791,68.334z"/>
</g>
<path style="fill:#F58D2C;" d="M256,100.979v404.125c-1.745-0.408-62.725-0.836-64.46-1.285
	c-23.28-6.04-45.265-15.266-65.473-27.199c-11.254-6.646-21.953-14.117-32.016-22.361c-23.646-19.32-43.76-42.799-59.246-69.308
	V123.969c0-12.697,10.293-22.99,22.99-22.99H256z"/>
<path style="fill:#FFE261;" d="M477.184,135.913v249.059c-25.652,43.896-63.99,79.475-109.996,101.689
	c-20.511,9.906-42.538,17.157-65.651,21.295C286.762,510.61,271.538,512,256,512c-20.396,0-40.229-2.382-59.235-6.896
	c-1.745-0.408-3.49-0.836-5.224-1.285V135.913c0-19.294,15.641-34.934,34.934-34.934h215.775
	C461.543,100.979,477.184,116.62,477.184,135.913z"/>
<path style="fill:#FF526C;" d="M367.188,100.979v385.682c-20.511,9.906-42.538,17.157-65.651,21.295V100.979H367.188z"/>
<path style="fill:#E83150;" d="M126.067,100.979V476.62c-11.254-6.646-21.953-14.117-32.016-22.361v-353.28H126.067z"/>
<g>
</g>
<g>
</g>
<g>
</g>
<g>
</g>
<g>
</g>
<g>
</g>
<g>
</g>
<g>
</g>
<g>
</g>
<g>
</g>
<g>
</g>
<g>
</g>
<g>
</g>
<g>
</g>
<g>
</g>
</svg>
