<?xml version="1.0" encoding="iso-8859-1"?>
<!-- Generator: Adobe Illustrator 19.0.0, SVG Export Plug-In . SVG Version: 6.00 Build 0)  -->
<svg version="1.1" id="Capa_1" xmlns="http://www.w3.org/2000/svg" xmlns:xlink="http://www.w3.org/1999/xlink" x="0px" y="0px"
	 viewBox="0 0 512 512" style="enable-background:new 0 0 512 512;" xml:space="preserve">
<path style="fill:#65A3E6;" d="M512,256c0,126.443-91.669,231.466-212.167,252.249l-0.01,0.01
	c-12.309,2.132-24.921,3.375-37.763,3.668c-2.017,0.052-4.033,0.073-6.06,0.073c-19.811,0-39.1-2.247-57.616-6.51
	c-82.536-18.986-149.838-77.876-180.485-155.282c-3.803-9.603-7.043-19.498-9.676-29.633C2.853,299.948,0,278.309,0,256
	C0,114.615,114.615,0,256,0c138.344,0,251.058,109.735,255.833,246.909C511.948,249.929,512,252.959,512,256z"/>
<path style="fill:#FFE261;" d="M506.772,206.228c0,21.18-30.403,37.296-36.609,56.407c-6.431,19.808,8.47,50.674-3.53,67.162
	c-12.119,16.653-46.159,11.958-62.812,24.077c-16.487,11.999-22.475,45.89-42.282,52.321c-19.111,6.206-43.79-17.491-64.971-17.491
	c-21.18,0-45.858,23.696-64.97,17.491c-19.808-6.431-25.795-40.322-42.283-52.321c-16.653-12.119-50.693-7.425-62.812-24.077
	c-11.999-16.487,2.903-47.354-3.529-67.161c-6.206-19.111-36.609-35.227-36.609-56.408c0-21.18,30.403-37.296,36.609-56.407
	c6.431-19.808-8.47-50.674,3.53-67.162c12.119-16.653,46.159-11.958,62.812-24.077c16.487-11.999,22.475-45.889,42.282-52.321
	c19.111-6.206,43.79,17.491,64.971,17.491c21.18,0,45.858-23.696,64.97-17.491c19.808,6.431,25.795,40.322,42.283,52.321
	c16.653,12.119,50.693,7.425,62.812,24.077c11.999,16.487-2.903,47.354,3.53,67.161
	C476.368,168.933,506.772,185.048,506.772,206.228z"/>
<g>
	<path style="fill:#374266;" d="M287.14,106.208c22.473,0,45.138,14.142,45.138,40.101c0,42.038-59.86,55.792-59.86,73.422v1.744
		h50.755c4.844,0,9.105,6.005,9.105,12.979s-4.262,13.367-9.105,13.367h-68.965c-5.424,0-13.173-3.681-13.173-9.299v-18.791
		c0-30.415,61.023-47.849,61.023-72.452c0-6.199-3.876-13.754-14.723-13.754c-7.75,0-14.53,3.874-14.53,14.529
		c0,5.618-6.005,11.042-15.886,11.042c-7.749,0-13.561-3.487-13.561-15.691C243.358,119.768,265.055,106.208,287.14,106.208z"/>
	<path style="fill:#374266;" d="M387.873,217.987h-45.332c-5.618,0-10.074-3.68-10.074-10.46c0-1.551,0.388-3.681,1.55-5.812
		l44.751-87.757c2.906-5.617,7.749-7.749,12.592-7.749c5.231,0,15.11,4.455,15.11,11.429c0,1.162-0.388,2.325-0.969,3.681
		l-34.29,68.772h16.662V176.53c0-6.394,7.555-9.105,15.109-9.105c7.556,0,15.11,2.712,15.11,9.105v13.561h8.331
		c6.199,0,9.299,6.975,9.299,13.948s-4.649,13.947-9.299,13.947h-8.331v20.535c0,6.199-7.555,9.299-15.11,9.299
		c-7.555,0-15.109-3.099-15.109-9.299V217.987z"/>
</g>
<path style="fill:#FF526C;" d="M361.848,484.718c-11.922,16.394-45.098,12.11-62.015,23.531l-0.01,0.01
	C285.581,510.725,270.942,512,256,512c-19.811,0-39.1-2.247-57.616-6.51C105.597,484.153,32.078,412.379,8.223,320.575
	c4.451-5.151,8.192-10.376,9.968-15.83c6.437-19.801-8.464-50.667,3.532-67.156c12.121-16.656,46.164-11.964,62.809-24.085
	c16.488-11.995,22.476-45.881,42.287-52.318c19.111-6.207,43.792,17.492,64.972,17.492s45.85-23.698,64.972-17.492
	c19.801,6.437,25.788,40.323,42.277,52.318c16.656,12.121,50.698,7.429,62.809,24.085c12.006,16.488-2.894,47.355,3.532,67.156
	c6.207,19.111,36.613,35.234,36.613,56.414c0,21.18-30.407,37.292-36.613,56.404C358.954,437.373,373.854,468.24,361.848,484.718z"
	/>
<path style="fill:#E83150;" d="M339.54,409.172c-4.702,14.482-2.894,29.257-1.306,42.287c0.616,5.057,1.599,13.093,1.233,17.032
	c-3.657,1.599-11.713,3.156-16.792,4.138c-12.842,2.487-27.387,5.308-39.622,14.2c-9.341,6.802-15.694,16.018-20.992,25.098
	c-2.017,0.052-4.033,0.073-6.06,0.073c-19.811,0-39.1-2.247-57.616-6.51c-82.536-18.986-149.838-77.876-180.485-155.282
	c1.003-1.076,1.954-2.09,2.79-2.988c8.798-9.383,18.777-19.999,23.343-34.085c4.702-14.482,2.905-29.257,1.317-42.287
	c-0.627-5.057-1.599-13.093-1.243-17.032c3.657-1.599,11.724-3.156,16.792-4.138c12.842-2.487,27.397-5.308,39.623-14.2
	c12.11-8.819,19.216-21.713,25.475-33.081c2.518-4.577,6.52-11.839,9.206-14.838c3.741,0.888,10.648,4.106,15.433,6.332
	c12.037,5.601,25.673,11.954,41.159,11.954c15.475,0,29.111-6.353,41.148-11.954c4.786-2.226,11.682-5.433,15.444-6.332
	c2.675,2.999,6.677,10.261,9.195,14.838c6.259,11.368,13.364,24.263,25.475,33.081c12.236,8.892,26.781,11.713,39.622,14.2
	c5.078,0.982,13.134,2.539,16.792,4.138c0.366,3.939-0.616,11.975-1.233,17.032c-1.588,13.03-3.396,27.805,1.306,42.287
	c4.577,14.085,14.545,24.701,23.353,34.085c3.762,4.012,9.833,10.48,11.63,13.939c-1.797,3.448-7.868,9.916-11.64,13.939
	C354.085,384.47,344.116,395.086,339.54,409.172z"/>
<path style="fill:#F2F2F7;" d="M104.831,340.301v-32.537c0-22.685,14.894-30.933,34.37-30.933c19.247,0,34.371,8.248,34.371,30.933
	v32.537c0,22.685-15.123,30.933-34.371,30.933C119.725,371.234,104.831,362.986,104.831,340.301z M150.659,307.764
	c0-7.562-4.354-10.999-11.457-10.999c-7.103,0-11.227,3.437-11.227,10.999v32.537c0,7.561,4.124,10.999,11.227,10.999
	c7.103,0,11.457-3.437,11.457-10.999V307.764z M244.603,279.581c0,1.375-0.229,2.979-0.916,4.353l-80.655,165.207
	c-1.605,3.437-5.958,5.728-10.311,5.728c-7.791,0-12.831-6.416-12.831-12.144c0-1.375,0.458-2.979,1.145-4.354l80.427-165.206
	c1.833-3.895,5.499-5.728,9.624-5.728C237.5,267.436,244.603,272.248,244.603,279.581z M210.004,414.083v-32.537
	c0-22.685,14.894-30.933,34.371-30.933c19.247,0,34.37,8.248,34.37,30.933v32.537c0,22.685-15.123,30.933-34.37,30.933
	C224.898,445.016,210.004,436.767,210.004,414.083z M255.831,381.546c0-7.562-4.354-10.999-11.456-10.999
	c-7.103,0-11.227,3.437-11.227,10.999v32.537c0,7.561,4.124,10.999,11.227,10.999s11.456-3.437,11.456-10.999V381.546z"/>
<g>
</g>
<g>
</g>
<g>
</g>
<g>
</g>
<g>
</g>
<g>
</g>
<g>
</g>
<g>
</g>
<g>
</g>
<g>
</g>
<g>
</g>
<g>
</g>
<g>
</g>
<g>
</g>
<g>
</g>
</svg>
