<?xml version="1.0" encoding="iso-8859-1"?>
<!-- Generator: Adobe Illustrator 19.0.0, SVG Export Plug-In . SVG Version: 6.00 Build 0)  -->
<svg version="1.1" id="Capa_1" xmlns="http://www.w3.org/2000/svg" xmlns:xlink="http://www.w3.org/1999/xlink" x="0px" y="0px"
	 viewBox="0 0 512 512" style="enable-background:new 0 0 512 512;" xml:space="preserve">
<path style="fill:#FFE261;" d="M511.997,255.987c0,37.959-8.265,73.985-23.091,106.386
	c-34.083,74.518-102.886,129.832-185.721,145.265c-15.286,2.842-31.055,4.099-47.175,4.336
	C118.043,514.005,1.789,398.417,0.023,255.987C-1.73,114.619,114.632,0,256.01,0S511.997,114.609,511.997,255.987z"/>
<path style="fill:#FFDCBF;" d="M419.35,371.045c-4.263,11.775-10.156,22.955-17.407,33.299
	c-38.2,54.499-105.383,74.194-164.615,56.881c-23.551-6.875-45.858-19.612-64.571-38.325l-56.547-56.547l-6.28-6.029L72.201,324.1
	c-6.624,0-12.799-1.881-18.044-5.13c-9.769-6.039-16.279-16.864-16.279-29.193c0-12.34,6.509-23.164,16.279-29.203
	c5.245-3.239,11.42-5.12,18.044-5.12c-6.624,0-12.799-1.881-18.044-5.13c-9.769-6.039-16.279-16.853-16.279-29.183
	c0-12.34,6.509-23.154,16.279-29.193c5.245-3.249,11.42-5.13,18.044-5.13v-40.383c-6.624,0-12.799-1.86-18.044-5.109
	c-9.769-6.05-16.279-16.864-16.279-29.193c0-12.34,6.509-23.164,16.279-29.203c5.245-3.239,11.42-5.12,18.044-5.12l219.302,106.334
	l8.495,4.106l9.56,4.639c0.721-8.589,2.142-17.167,4.263-25.682c2.8-11.253,10.354-20.071,20.019-24.794
	c7.701-3.803,16.749-5.005,25.745-2.769c20.249,5.026,32.589,25.526,27.563,45.764c-5.632,22.642-2.1,46.13,9.957,66.107
	C397.106,251.515,439.871,314.101,419.35,371.045z"/>
<g>
	<path style="fill:#FCBB8D;" d="M237.328,461.226c-23.551-6.875-45.858-19.612-64.571-38.325l-56.547-56.547l-6.28-6.029
		l98.017,20.218C148.36,380.543,196.255,435.69,237.328,461.226z"/>
	<path style="fill:#FCBB8D;" d="M337.696,299.046c-1.609,0.969-3.376,1.439-5.127,1.439c-3.376,0-6.68-1.723-8.546-4.843
		c-18.899-31.376-27.275-67.081-24.255-103.257c0.015-0.698,0.071-2.109,0.228-4.13l9.557,4.629
		c0.726-8.589,2.15-17.163,4.272-25.679c2.792-11.251,10.354-20.067,20.011-24.796c-13.658,26.32-14.128,50.276-14.128,50.56
		l-0.043,0.769c-0.114,1.31-0.2,2.62-0.271,3.917c-1.553,25.551,3.361,50.76,14.3,73.875c2.221,4.7,4.685,9.315,7.406,13.83
		C343.934,290.088,342.424,296.212,337.696,299.046z"/>
	<path style="fill:#FCBB8D;" d="M291.507,184.139v165.724c0,16.948-16.051,30.678-35.877,30.678H130.399l-14.186-14.186
		l-44.009-42.257c-6.622,0-12.804-1.88-18.044-5.127l0.367-0.493c12.81-17.22,12.66-40.844-0.367-57.901l0,0
		c5.241-3.247,11.422-5.127,18.044-5.127c-6.622,0-12.804-1.88-18.044-5.127l2.331-2.903c11.641-14.494,12.246-34.953,1.482-50.109
		l-3.813-5.367c5.241-3.247,11.422-5.127,18.044-5.127V146.44c-6.622,0-12.804-1.866-18.044-5.113l5.967-10.066
		c7.401-12.484,7.103-28.08-0.768-40.274l-5.199-8.054c5.241-3.247,11.422-5.127,18.044-5.127L291.507,184.139z"/>
</g>
<path style="fill:#374266;" d="M72.203,150.278V64.321c0-16.944,16.061-30.687,35.877-30.687h165.594
	c19.815,0,35.877,13.743,35.877,30.687v285.542c0,16.944-16.061,30.678-35.877,30.678H108.08c-19.815,0-35.877-13.733-35.877-30.678
	v-18.964C72.203,330.899,72.203,150.278,72.203,150.278z"/>
<rect x="90.233" y="86.503" style="fill:#65A3E6;" width="201.289" height="241.171"/>
<g>
	<path style="fill:#FF526C;" d="M488.906,362.373c-22.328,48.826-59.567,89.407-105.895,115.926
		c-24.376,13.959-51.271,24.021-79.826,29.339l-33.696-33.696l165.493-165.493L488.906,362.373z"/>
	<path style="fill:#FF526C;" d="M261.234,191.489l-0.167,0.972l-5.13,29.256l-8.54,48.784c-1.309,7.479-7.804,12.935-15.396,12.935
		h-80.499c-7.593,0-14.087-5.456-15.396-12.935l-8.54-48.784l-5.13-29.256l-0.167-0.972L261.234,191.489L261.234,191.489z"/>
</g>
<polygon style="fill:#E83150;" points="261.067,192.46 255.937,221.716 127.567,221.716 122.437,192.46 "/>
<path style="fill:#FF526C;" d="M254.443,183.13H129.061c-8.079,0-14.628,6.549-14.628,14.628l0,0
	c0,8.079,6.549,14.628,14.628,14.628h125.381c8.079,0,14.628-6.549,14.628-14.628l0,0C269.07,189.679,262.521,183.13,254.443,183.13
	z"/>
<path style="fill:#374266;" d="M247.797,202.198c-1.632,0-3.265-0.623-4.512-1.868l-51.535-51.535l-51.535,51.535
	c-2.491,2.491-6.53,2.491-9.021,0c-2.491-2.491-2.491-6.53,0-9.021l56.045-56.045c2.491-2.491,6.53-2.491,9.021,0l56.047,56.045
	c2.491,2.491,2.491,6.53,0,9.021C251.063,201.576,249.429,202.198,247.797,202.198z"/>
<g>
	<path style="fill:#495B94;" d="M221.526,71.679h-61.298c-4.424,0-8.011-3.586-8.011-8.011l0,0c0-4.424,3.586-8.011,8.011-8.011
		h61.298c4.424,0,8.011,3.586,8.011,8.011l0,0C229.537,68.094,225.95,71.679,221.526,71.679z"/>
	<circle style="fill:#495B94;" cx="190.883" cy="354.108" r="15.114"/>
</g>
<path style="fill:#E83150;" d="M383.011,478.299c-24.376,13.959-51.271,24.021-79.826,29.339l-33.696-33.696l54.583-54.583
	L383.011,478.299z"/>
<g>
</g>
<g>
</g>
<g>
</g>
<g>
</g>
<g>
</g>
<g>
</g>
<g>
</g>
<g>
</g>
<g>
</g>
<g>
</g>
<g>
</g>
<g>
</g>
<g>
</g>
<g>
</g>
<g>
</g>
</svg>
