<?xml version="1.0" encoding="iso-8859-1"?>
<!-- Generator: Adobe Illustrator 19.0.0, SVG Export Plug-In . SVG Version: 6.00 Build 0)  -->
<svg version="1.1" id="Capa_1" xmlns="http://www.w3.org/2000/svg" xmlns:xlink="http://www.w3.org/1999/xlink" x="0px" y="0px"
	 viewBox="0 0 512 512" style="enable-background:new 0 0 512 512;" xml:space="preserve">
<path style="fill:#58D1C1;" d="M512,256c0,49.559-14.085,95.838-38.473,135.043C428.345,463.663,347.815,512,256,512
	c-58.096,0-111.668-19.352-154.624-51.963c-7.617-5.778-14.9-11.975-21.817-18.557c-15.705-14.932-29.508-31.849-41.023-50.333
	C14.106,351.922,0,305.601,0,256c0-50.406,14.566-97.416,39.727-137.028c12.142-19.132,26.76-36.54,43.395-51.764
	c0.125-0.115,0.24-0.219,0.366-0.334C128.993,25.328,189.534,0,256,0c66.476,0,127.018,25.328,172.523,66.873
	C479.817,113.685,512,181.081,512,256z"/>
<rect x="167.309" y="375.4" style="fill:#374266;" width="185.992" height="58.514"/>
<g>
	<path style="fill:#495B94;" d="M390.011,446.454H130.605c-8.079,0-14.629-6.549-14.629-14.629l0,0
		c0-8.079,6.549-14.629,14.629-14.629h259.406c8.079,0,14.629,6.549,14.629,14.629l0,0
		C404.64,439.904,398.09,446.454,390.011,446.454z"/>
	<path style="fill:#495B94;" d="M495.41,71.397v275.456c-5.266,13.887-11.713,27.188-19.205,39.79
		c-5.183,2.8-11.118,4.399-17.429,4.399H53.241c-6.311,0-12.257-1.599-17.439-4.399c-7.492-12.601-13.939-25.903-19.195-39.779
		V71.397c0-20.229,16.394-36.634,36.634-36.634h405.535C479.005,34.763,495.41,51.168,495.41,71.397z"/>
</g>
<path style="fill:#65A3E6;" d="M468.243,71.397v283.011c0,5.224-4.242,9.467-9.467,9.467H53.241c-5.224,0-9.467-4.242-9.467-9.467
	V71.397c0-5.224,4.242-9.467,9.467-9.467h405.535C464,61.93,468.243,66.172,468.243,71.397z"/>
<path style="fill:#306B91;" d="M468.243,71.397v111.741H284.686c-13.531,0-24.503-10.971-24.503-24.503V61.93h198.593
	C464,61.93,468.243,66.172,468.243,71.397z"/>
<path style="fill:#FF526C;" d="M505.21,44.116v103.549c0,13.531-10.971,24.503-24.503,24.503H295.656
	c-13.531,0-24.503-10.971-24.503-24.503V44.116c0-13.531,10.971-24.503,24.503-24.503h185.051
	C494.239,19.613,505.21,30.584,505.21,44.116z"/>
<path style="fill:#FC6785;" d="M505.21,44.116v103.549c0,13.531-10.971,24.503-24.503,24.503H373.773l54.805-152.555h52.13
	C494.239,19.613,505.21,30.584,505.21,44.116z"/>
<rect x="271.151" y="53.049" style="fill:#374266;" width="234.057" height="32.392"/>
<polygon style="fill:#495B94;" points="505.21,53.049 505.21,85.441 404.931,85.441 416.561,53.049 "/>
<circle style="fill:#5D98CC;" cx="313.992" cy="128.282" r="22.988"/>
<circle style="fill:#FFE261;" cx="347.429" cy="128.282" r="22.988"/>
<path style="fill:#257ECC;" d="M372.42,309.571H139.597c-8.708,0-15.769-7.059-15.769-15.769v-25.933
	c0-8.708,7.059-15.769,15.769-15.769H372.42c8.708,0,15.769,7.059,15.769,15.769v25.933
	C388.188,302.512,381.129,309.571,372.42,309.571z"/>
<rect x="148.773" y="271.067" style="fill:#374266;" width="214.465" height="19.53"/>
<path style="fill:#FFE261;" d="M172.982,161.547c0-60.194-75.721-55.655-75.721-79.542c0-7.405,6.927-14.332,23.886-14.332
	c19.588,0,24.126,9.077,32.724,9.077c10.511,0,14.81-13.139,14.81-19.588c0-12.025-14.521-17.265-28.227-19.482v-13.78
	c0-7.185-5.824-13.009-13.009-13.009h-15.984c-7.185,0-13.009,5.824-13.009,13.009v15.09c-21.148,5.613-38.456,19.955-38.456,46.597
	c0,55.895,75.72,50.878,75.72,79.781c0,11.466-12.181,15.765-23.169,15.765c-22.216,0-29.38-17.675-40.608-17.675
	c-9.077,0-16.243,11.943-16.243,20.064c0,13.192,18.419,26.012,42.756,29.859v11.606c0,7.185,5.824,13.009,13.009,13.009h15.984
	c7.184,0,13.009-5.824,13.009-13.009V209.94C160.25,202.458,172.982,186.017,172.982,161.547z"/>
<g>
</g>
<g>
</g>
<g>
</g>
<g>
</g>
<g>
</g>
<g>
</g>
<g>
</g>
<g>
</g>
<g>
</g>
<g>
</g>
<g>
</g>
<g>
</g>
<g>
</g>
<g>
</g>
<g>
</g>
</svg>
