<?xml version="1.0" encoding="iso-8859-1"?>
<!-- Generator: Adobe Illustrator 19.0.0, SVG Export Plug-In . SVG Version: 6.00 Build 0)  -->
<svg version="1.1" id="Capa_1" xmlns="http://www.w3.org/2000/svg" xmlns:xlink="http://www.w3.org/1999/xlink" x="0px" y="0px"
	 viewBox="0 0 512 512" style="enable-background:new 0 0 512 512;" xml:space="preserve">
<path style="fill:#58D1C1;" d="M512,256c0,75.295-32.507,143.005-84.261,189.837c-44.69,40.458-103.706,65.348-168.542,66.142
	C258.132,511.99,257.066,512,256,512c-11.243,0-22.309-0.721-33.165-2.132c-67.176-8.683-126.192-43.415-166.578-93.738
	C21.055,372.287,0,316.594,0,256S21.055,139.713,56.257,95.869c26.823-33.416,61.858-59.956,102.045-76.56
	C188.406,6.865,221.403,0,256,0s67.594,6.865,97.698,19.31c27.397,11.316,52.402,27.251,74.041,46.853
	C479.493,112.995,512,180.705,512,256z"/>
<path style="fill:#374266;" d="M427.739,65.766v380.071C382.318,486.964,322.09,512,256,512
	c-80.781,0-152.827-37.418-199.743-95.869V65.766c0-24.054,18.307-43.854,41.765-46.237c1.557-0.157,3.114-0.219,4.723-0.219
	h278.497C406.915,19.31,427.739,40.114,427.739,65.766z"/>
<path style="fill:#2B3C6B;" d="M427.739,202.992v89.381c-7.053,6.374-16.394,10.25-26.645,10.25
	c-21.964,0-39.779-17.805-39.779-39.769c0,21.964-17.805,39.769-39.769,39.769s-39.779-17.805-39.779-39.769
	c0,21.964-17.805,39.769-39.769,39.769c-21.964,0-39.769-17.805-39.769-39.769c0,21.964-17.816,39.769-39.779,39.769
	s-39.769-17.805-39.769-39.769c0,21.964-17.816,39.769-39.779,39.769c-10.25,0-19.592-3.877-26.645-10.25v-89.381L427.739,202.992
	L427.739,202.992z"/>
<path style="fill:#65A3E6;" d="M385.975,93.508v332.288c0,17.293-14.012,31.305-31.284,31.305H129.317
	c-17.262,0-31.284-14.002-31.284-31.284V93.508h256.658C371.973,93.508,385.975,93.508,385.975,93.508z"/>
<path style="fill:#257ECC;" d="M385.975,202.992v96.653c-14.472-5.945-24.66-20.177-24.66-36.791
	c0,21.964-17.805,39.769-39.769,39.769s-39.779-17.805-39.779-39.769c0,21.964-17.805,39.769-39.769,39.769
	c-21.964,0-39.769-17.805-39.769-39.769c0,21.964-17.816,39.769-39.779,39.769s-39.769-17.805-39.769-39.769
	c0,16.603-10.188,30.835-24.649,36.791v-96.653L385.975,202.992L385.975,202.992z"/>
<g>
	<path style="fill:#495B94;" d="M266.742,494.195c0,6.98-2.884,13.291-7.544,17.784C258.132,511.99,257.066,512,256,512
		c-11.243,0-22.309-0.721-33.165-2.132c-3.49-4.274-5.59-9.728-5.59-15.673c0-13.667,11.076-24.754,24.743-24.754
		C255.666,469.441,266.742,480.528,266.742,494.195z"/>
	<path style="fill:#495B94;" d="M291.505,62.794h-99.022c-4.328,0-7.837-3.509-7.837-7.837s3.509-7.837,7.837-7.837h99.022
		c4.328,0,7.837,3.509,7.837,7.837S295.833,62.794,291.505,62.794z"/>
	<path style="fill:#495B94;" d="M163.874,62.793c-6.977,0-10.448-8.847-5.319-13.589c2.532-2.341,6.387-2.718,9.349-0.972
		c2.84,1.675,4.316,5.124,3.636,8.337C170.783,60.153,167.546,62.793,163.874,62.793z"/>
</g>
<polygon style="fill:#E83150;" points="440.866,150.747 43.13,150.747 98.027,93.504 385.97,93.504 "/>
<polygon style="fill:#E3E7FC;" points="361.319,150.747 122.677,150.747 155.616,93.504 328.381,93.504 "/>
<polygon style="fill:#E83150;" points="281.772,150.747 202.224,150.747 213.204,93.504 270.793,93.504 "/>
<path style="fill:#FF526C;" d="M43.13,210.605c0,21.966,17.807,39.774,39.774,39.774s39.774-17.807,39.774-39.774v-59.858H43.13
	V210.605z"/>
<path style="fill:#FFE261;" d="M182.021,233.984c-22.215,0-39.205,9.404-39.205,35.276v37.115c0,25.872,16.99,35.286,39.205,35.286
	c21.953,0,39.205-9.415,39.205-35.286V269.26C221.226,243.388,203.975,233.984,182.021,233.984z M195.093,306.375
	c0,8.631-4.963,12.549-13.072,12.549c-8.098,0-12.8-3.918-12.8-12.549V269.26c0-8.62,4.702-12.539,12.8-12.539
	c8.108,0,13.072,3.918,13.072,12.539V306.375z M286.824,223.263c-4.702,0-8.882,2.09-10.971,6.541l-35.443,72.788l-56.299,115.639
	c-0.784,1.567-1.306,3.396-1.306,4.963c0,6.541,5.757,13.855,14.639,13.855c4.963,0,9.927-2.612,11.766-6.531l75.065-153.757
	l16.927-34.68c0.784-1.567,1.045-3.396,1.045-4.963C302.247,228.759,294.139,223.263,286.824,223.263z M301.986,318.14
	c-22.215,0-39.205,9.404-39.205,35.276v37.115c0,25.872,16.99,35.286,39.205,35.286c21.953,0,39.205-9.415,39.205-35.286v-37.115
	C341.191,327.544,323.939,318.14,301.986,318.14z M315.047,390.531c0,8.62-4.963,12.549-13.061,12.549
	c-8.108,0-12.81-3.929-12.81-12.549v-37.115c0-8.62,4.702-12.539,12.81-12.539c8.098,0,13.061,3.918,13.061,12.539V390.531z"/>
<g>
	<path style="fill:#D8A23C;" d="M221.226,269.26v27.512c-11.4-7.001-18.996-19.571-18.996-33.917c0,8.453-2.644,16.3-7.137,22.737
		V269.26c0-8.62-4.963-12.539-13.072-12.539c-8.098,0-12.8,3.918-12.8,12.539v32.789c-2.205,0.376-4.462,0.575-6.771,0.575
		c-7.137,0-13.845-1.881-19.634-5.172V269.26c0-25.872,16.99-35.276,39.205-35.276C203.975,233.984,221.226,243.388,221.226,269.26z
		"/>
	<path style="fill:#D8A23C;" d="M302.247,237.119c0,1.567-0.261,3.396-1.045,4.963l-16.927,34.68
		c-1.62-4.326-2.508-9.017-2.508-13.908c0,21.964-17.805,39.769-39.769,39.769c-0.533,0-1.066-0.01-1.588-0.031l35.443-72.788
		c2.09-4.451,6.269-6.541,10.971-6.541C294.139,223.263,302.247,228.759,302.247,237.119z"/>
</g>
<path style="fill:#F2F2F7;" d="M122.677,210.605c0,21.966,17.807,39.774,39.774,39.774s39.774-17.807,39.774-39.774v-59.858h-79.547
	v59.858H122.677z"/>
<path style="fill:#FF526C;" d="M202.224,210.605c0,21.966,17.807,39.774,39.774,39.774s39.774-17.807,39.774-39.774v-59.858h-79.547
	v59.858H202.224z"/>
<path style="fill:#F2F2F7;" d="M281.772,210.605c0,21.966,17.807,39.774,39.774,39.774s39.774-17.807,39.774-39.774v-59.858h-79.547
	v59.858H281.772z"/>
<path style="fill:#FF526C;" d="M361.319,210.605c0,21.966,17.807,39.774,39.774,39.774s39.774-17.807,39.774-39.774v-59.858H361.32
	v59.858H361.319z"/>
<g>
</g>
<g>
</g>
<g>
</g>
<g>
</g>
<g>
</g>
<g>
</g>
<g>
</g>
<g>
</g>
<g>
</g>
<g>
</g>
<g>
</g>
<g>
</g>
<g>
</g>
<g>
</g>
<g>
</g>
</svg>
