<?xml version="1.0" encoding="iso-8859-1"?>
<!-- Generator: Adobe Illustrator 19.0.0, SVG Export Plug-In . SVG Version: 6.00 Build 0)  -->
<svg version="1.1" id="Capa_1" xmlns="http://www.w3.org/2000/svg" xmlns:xlink="http://www.w3.org/1999/xlink" x="0px" y="0px"
	 viewBox="0 0 512 512" style="enable-background:new 0 0 512 512;" xml:space="preserve">
<path style="fill:#FFE261;" d="M512,256c0,51.743-15.35,99.903-41.744,140.173c-4.086,6.228-8.432,12.257-13.04,18.087
	c-20.887,26.551-46.937,48.859-76.633,65.431c-11.076,6.175-22.653,11.567-34.67,16.071C317.942,506.263,287.639,512,256,512
	s-61.942-5.736-89.913-16.238c-12.006-4.504-23.583-9.885-34.659-16.071c-16.635-9.279-32.131-20.355-46.205-32.977
	c-11.065-9.916-21.253-20.793-30.448-32.475v-0.01c-3.668-4.629-7.158-9.383-10.491-14.273C16.332,358.943,0,309.373,0,256
	C0,114.615,114.615,0,256,0S512,114.615,512,256z"/>
<polygon style="fill:#E83150;" points="423.625,292.207 111.727,292.207 111.727,457.412 402.725,452.188 "/>
<g>
	<path style="fill:#FF526C;" d="M439.12,185.207h41.481c12.542,0,22.708,10.167,22.708,22.708v35.337
		c0,12.541-10.167,22.708-22.708,22.708H31.398c-12.541,0-22.708-10.167-22.708-22.708v-35.337
		c0-12.541,10.167-22.708,22.708-22.708h41.471"/>
	<path style="fill:#FF526C;" d="M28.86,265.958l4.577,26.248l21.337,122.034c20.898,26.561,46.947,48.891,76.654,65.452h249.156
		c29.696-16.572,55.745-38.881,76.633-65.431l21.347-122.055l4.577-26.248H28.86z M168.688,420.268
		c0,12.821-10.397,23.218-23.218,23.218c-12.831,0-23.218-10.397-23.218-23.218v-94.887c0-12.821,10.386-23.207,23.218-23.207
		c6.405,0,12.215,2.591,16.415,6.792c4.19,4.2,6.802,10.01,6.802,16.415V420.268z M279.218,420.268
		c0,12.821-10.397,23.218-23.218,23.218c-12.831,0-23.218-10.397-23.218-23.218v-94.887c0-12.821,10.386-23.207,23.218-23.207
		c6.405,0,12.215,2.591,16.415,6.792c4.201,4.2,6.802,10.01,6.802,16.415V420.268z M389.747,420.268
		c0,12.821-10.397,23.218-23.218,23.218s-23.218-10.397-23.218-23.218v-94.887c0-12.821,10.397-23.207,23.218-23.207
		c6.416,0,12.215,2.591,16.415,6.792c4.2,4.2,6.802,10.01,6.802,16.415V420.268z"/>
</g>
<g>
	<path style="fill:#E83150;" d="M83.456,439.735L57.668,292.206l-4.577-26.248H28.86l4.587,26.248l21.326,122.023v0.01
		c9.195,11.682,19.383,22.559,30.448,32.475C84.47,444.468,83.874,442.138,83.456,439.735z"/>
	<polygon style="fill:#E83150;" points="483.141,265.961 478.558,292.207 33.442,292.207 28.859,265.961 	"/>
</g>
<g>
	<path style="fill:#374266;" d="M222.782,21.142L222.782,21.142c-13.253-9.076-31.346-5.775-40.541,7.396L66.358,194.531
		c-9.313,13.34-5.961,31.716,7.463,40.908l0,0c13.253,9.076,31.346,5.775,40.541-7.396L230.243,62.05
		C239.557,48.71,236.205,30.334,222.782,21.142z"/>
	<path style="fill:#374266;" d="M289.212,21.142L289.212,21.142c13.253-9.076,31.346-5.775,40.541,7.396l115.881,165.992
		c9.313,13.34,5.961,31.716-7.463,40.908l0,0c-13.253,9.076-31.346,5.775-40.541-7.396L281.749,62.05
		C272.436,48.71,275.788,30.334,289.212,21.142z"/>
</g>
<g>
</g>
<g>
</g>
<g>
</g>
<g>
</g>
<g>
</g>
<g>
</g>
<g>
</g>
<g>
</g>
<g>
</g>
<g>
</g>
<g>
</g>
<g>
</g>
<g>
</g>
<g>
</g>
<g>
</g>
</svg>
