<?xml version="1.0" encoding="iso-8859-1"?>
<!-- Generator: Adobe Illustrator 19.0.0, SVG Export Plug-In . SVG Version: 6.00 Build 0)  -->
<svg version="1.1" id="Capa_1" xmlns="http://www.w3.org/2000/svg" xmlns:xlink="http://www.w3.org/1999/xlink" x="0px" y="0px"
	 viewBox="0 0 512 512" style="enable-background:new 0 0 512 512;" xml:space="preserve">
<path style="fill:#65A3E6;" d="M512,256c0,19.487-2.173,38.463-6.301,56.707c-0.742,3.271-1.546,6.52-2.414,9.738
	c-3.542,13.228-8.119,26.039-13.636,38.327C449.609,449.912,360.051,512,256,512c-104.061,0-193.609-62.088-233.65-151.228
	c-0.554-1.233-1.097-2.466-1.63-3.709c-1.369-3.187-2.675-6.405-3.918-9.665c-4.295-11.201-7.816-22.789-10.501-34.691
	C2.173,294.463,0,275.487,0,256c0-11.327,0.731-22.476,2.173-33.416c4.712-36.258,17.032-70.144,35.297-99.986
	c7.534-12.319,16.071-23.939,25.516-34.764c11.818-13.563,25.057-25.872,39.476-36.697C145.241,19.028,198.395,0,256,0
	C397.385,0,512,114.615,512,256z"/>
<path style="fill:#374266;" d="M505.699,312.707c-2.633,11.64-6.06,22.977-10.219,33.959c-3.887,10.261-8.411,20.198-13.531,29.78
	C438.868,457.111,353.844,512,256,512c-89.14,0-167.633-45.558-213.473-114.657c-7.68-11.567-14.44-23.792-20.177-36.571
	c-1.975-4.389-3.824-8.85-5.548-13.375c-2.257-5.883-4.305-11.88-6.113-17.972c-1.651-5.496-3.114-11.076-4.389-16.718H505.699z"/>
<polygon style="fill:#65A3E6;" points="457.582,261.245 309.76,261.245 309.76,150.559 423.957,150.559 457.07,259.563 "/>
<polygon style="fill:#F2F2F7;" points="457.07,259.563 448.585,261.245 349.069,261.245 409.078,150.559 423.957,150.559 "/>
<path style="fill:#FFE261;" d="M466.552,229.813l-31.535-77.834c-3.114-7.69-10.574-12.716-18.871-12.716H292.744V357.06h175.438
	V238.172C468.182,235.308,467.628,232.467,466.552,229.813z M422.039,238.338h-90.676c-8.568,0-15.517-6.949-15.517-15.517v-44.178
	c0-8.986,7.283-16.269,16.269-16.269h71.21c6.625,0,12.591,4.023,15.078,10.167l18.004,44.46
	C440.545,227.201,433.043,238.338,422.039,238.338z"/>
<path style="fill:#58D1C1;" d="M292.739,116.025v241.037H75.619c-19.999-28.86-34.21-62.025-40.97-97.823
	c-1.661-8.756-2.863-17.669-3.605-26.718c-0.272-3.291-14.242-6.614-28.871-9.937c4.712-36.258,17.032-70.144,35.297-99.986
	c7.534-12.319,16.071-23.939,25.516-34.764h201.55C280.116,87.834,292.739,100.456,292.739,116.025z"/>
<path style="fill:#F9ECCE;" d="M479.496,345.748L479.496,345.748c0,6.247-5.065,11.312-11.312,11.312h-69.849
	c-54.344,0-6.259-16.362-8.707-22.625h78.556C474.432,334.436,479.496,339.501,479.496,345.748z"/>
<path style="fill:#D8A23C;" d="M393.576,357.059H292.744V171.59c0.387,26.06,6.238,142.785,79.465,165.909
	C392.324,343.852,397.401,350.55,393.576,357.059z"/>
<path style="fill:#1AB0AE;" d="M226.283,357.063H20.72c-1.369-3.187-2.675-6.405-3.918-9.665
	c-4.295-11.201-7.816-22.789-10.501-34.691C2.173,294.463,0,275.487,0,256c0-48.87,13.699-94.553,37.47-133.402
	C62.328,206.608,122.681,345.412,226.283,357.063z"/>
<circle style="fill:#495B94;" cx="381.012" cy="357.188" r="50.395"/>
<circle style="fill:#F2F2F7;" cx="381.012" cy="357.188" r="29.168"/>
<path style="fill:#C5C6E0;" d="M387.608,375.209c-13.594,0-24.618-11.024-24.618-24.618c0-9.874,5.81-18.39,14.19-22.309
	c-14.305,1.87-25.339,14.096-25.339,28.902c0,16.112,13.061,29.174,29.174,29.174c14.806,0,27.032-11.034,28.902-25.339
	C405.998,369.4,397.482,375.209,387.608,375.209z"/>
<circle style="fill:#495B94;" cx="98.565" cy="357.188" r="50.395"/>
<circle style="fill:#F2F2F7;" cx="98.565" cy="357.188" r="29.168"/>
<path style="fill:#C5C6E0;" d="M105.17,375.209c-13.594,0-24.618-11.024-24.618-24.618c0-9.874,5.81-18.39,14.19-22.309
	c-14.305,1.87-25.339,14.096-25.339,28.902c0,16.112,13.061,29.174,29.174,29.174c14.806,0,27.032-11.034,28.902-25.339
	C123.56,369.4,115.044,375.209,105.17,375.209z"/>
<path style="fill:#F2F2F7;" d="M463.391,299.666c0,10.01-8.108,18.129-18.118,18.129v-36.258
	C455.283,281.537,463.391,289.656,463.391,299.666z"/>
<g>
	<path style="fill:#D8A23C;" d="M427.154,299.666c0-10.01,8.108-18.129,18.118-18.129v36.258
		C435.263,317.795,427.154,309.676,427.154,299.666z"/>
	<path style="fill:#D8A23C;" d="M325.888,269.522h22.291c3.271,0,5.921-2.651,5.921-5.921l0,0c0-3.271-2.651-5.921-5.921-5.921
		h-22.291c-3.271,0-5.921,2.651-5.921,5.921l0,0C319.968,266.871,322.618,269.522,325.888,269.522z"/>
</g>
<g>
</g>
<g>
</g>
<g>
</g>
<g>
</g>
<g>
</g>
<g>
</g>
<g>
</g>
<g>
</g>
<g>
</g>
<g>
</g>
<g>
</g>
<g>
</g>
<g>
</g>
<g>
</g>
<g>
</g>
</svg>
